<svg xmlns="http://www.w3.org/2000/svg" xmlns:xlink="http://www.w3.org/1999/xlink" viewBox="0 0 2874.8 1424.79"><defs><style>.cls-1{mask:url(#mask);filter:url(#luminosity-noclip-10);}.cls-10,.cls-12,.cls-120,.cls-123,.cls-124,.cls-14,.cls-16,.cls-18,.cls-2,.cls-4,.cls-6,.cls-8{mix-blend-mode:multiply;}.cls-2{fill:url(#linear-gradient);}.cls-3{mask:url(#mask-2);filter:url(#luminosity-noclip-15);}.cls-4{fill:url(#linear-gradient-2);}.cls-5{mask:url(#mask-3);filter:url(#luminosity-noclip-16);}.cls-6{fill:url(#linear-gradient-3);}.cls-7{mask:url(#mask-4);filter:url(#luminosity-noclip-17);}.cls-8{fill:url(#linear-gradient-4);}.cls-9{mask:url(#mask-5);filter:url(#luminosity-noclip-18);}.cls-10{fill:url(#linear-gradient-5);}.cls-11{mask:url(#mask-6);filter:url(#luminosity-noclip-11);}.cls-12{fill:url(#linear-gradient-6);}.cls-13{mask:url(#mask-7);filter:url(#luminosity-noclip-12);}.cls-14{fill:url(#linear-gradient-7);}.cls-15{mask:url(#mask-8);filter:url(#luminosity-noclip-13);}.cls-16{fill:url(#linear-gradient-8);}.cls-17{mask:url(#mask-9);filter:url(#luminosity-noclip-14);}.cls-18{fill:url(#linear-gradient-9);}.cls-19{isolation:isolate;}.cls-20{fill:#fff;}.cls-21{fill:url(#linear-gradient-10);}.cls-22{fill:#f5f7ff;}.cls-23{fill:#fafafa;}.cls-147,.cls-24{opacity:0.35;}.cls-24{fill:url(#linear-gradient-11);}.cls-25{fill:url(#linear-gradient-12);}.cls-26{fill:url(#linear-gradient-13);}.cls-27{fill:url(#linear-gradient-14);}.cls-28{fill:url(#linear-gradient-15);}.cls-29{fill:url(#linear-gradient-16);}.cls-30{fill:url(#linear-gradient-17);}.cls-31{fill:url(#linear-gradient-18);}.cls-32{fill:url(#linear-gradient-19);}.cls-33{fill:url(#linear-gradient-20);}.cls-34{fill:url(#linear-gradient-21);}.cls-35{fill:url(#linear-gradient-22);}.cls-36{fill:url(#linear-gradient-23);}.cls-37{fill:url(#linear-gradient-24);}.cls-38{opacity:0.4;}.cls-39{fill:url(#linear-gradient-25);}.cls-40{opacity:0.7;}.cls-41{opacity:0.51;}.cls-42{fill:#d1d3d4;}.cls-43{fill:#00acb3;}.cls-44{fill:#d84774;}.cls-45{fill:#feca7a;}.cls-46{fill:#f9fbfc;}.cls-47{opacity:0.43;}.cls-48{fill:#f24c88;}.cls-49{fill:#16d8d8;}.cls-50{fill:#f79663;}.cls-51{mask:url(#mask-10);}.cls-52,.cls-54{opacity:0.34;}.cls-52{fill:url(#linear-gradient-26);}.cls-53{mask:url(#mask-11);}.cls-54{fill:url(#linear-gradient-27);}.cls-55{mask:url(#mask-12);}.cls-56{fill:url(#linear-gradient-28);}.cls-57{mask:url(#mask-13);}.cls-58{fill:url(#linear-gradient-29);}.cls-59{mask:url(#mask-14);}.cls-60{fill:url(#linear-gradient-30);}.cls-61{mask:url(#mask-15);}.cls-62{fill:url(#linear-gradient-31);}.cls-63{mask:url(#mask-16);}.cls-64{fill:url(#linear-gradient-32);}.cls-65{mask:url(#mask-17);}.cls-66{fill:url(#linear-gradient-33);}.cls-67{mask:url(#mask-18);}.cls-68{fill:url(#linear-gradient-34);}.cls-69{fill:url(#linear-gradient-35);}.cls-70{fill:url(#linear-gradient-36);}.cls-71{fill:url(#linear-gradient-37);}.cls-72{fill:url(#linear-gradient-38);}.cls-73{fill:url(#linear-gradient-39);}.cls-74{opacity:0.17;}.cls-75{fill:url(#linear-gradient-40);}.cls-76{opacity:0.26;}.cls-77{fill:url(#linear-gradient-41);}.cls-78{fill:#8f8f8f;}.cls-79{fill:#f0f0f0;}.cls-80{fill:#ccc;}.cls-81{fill:url(#linear-gradient-42);}.cls-82{fill:url(#linear-gradient-43);}.cls-83{fill:url(#linear-gradient-44);}.cls-84{fill:url(#linear-gradient-45);}.cls-85{fill:url(#linear-gradient-46);}.cls-86{fill:url(#linear-gradient-47);}.cls-87{fill:url(#linear-gradient-48);}.cls-88{fill:url(#linear-gradient-49);}.cls-89{fill:#e8e8e8;}.cls-90{fill:#da5e5e;}.cls-91{fill:url(#linear-gradient-50);}.cls-92{fill:#e6e6e6;}.cls-93{fill:url(#linear-gradient-51);}.cls-94{fill:#78c2ff;}.cls-95{fill:#d6d6d6;}.cls-96{fill:url(#linear-gradient-52);}.cls-97{fill:url(#linear-gradient-53);}.cls-98{fill:url(#linear-gradient-54);}.cls-99{fill:url(#linear-gradient-55);}.cls-100{fill:url(#linear-gradient-56);}.cls-101{fill:url(#linear-gradient-57);}.cls-102{fill:url(#linear-gradient-58);}.cls-103{fill:url(#linear-gradient-59);}.cls-104{fill:url(#linear-gradient-60);}.cls-105{fill:url(#linear-gradient-61);}.cls-106{fill:url(#linear-gradient-62);}.cls-107{fill:url(#linear-gradient-63);}.cls-108{fill:#c5ccd1;}.cls-109{opacity:0.45;}.cls-110{fill:url(#linear-gradient-64);}.cls-111{fill:url(#linear-gradient-65);}.cls-112{fill:url(#linear-gradient-66);}.cls-113{fill:url(#linear-gradient-67);}.cls-114{fill:#e45940;}.cls-115{fill:#ffb089;}.cls-116{fill:#292c3d;}.cls-117{fill:#b9d2db;}.cls-118{fill:#94bac8;}.cls-119{fill:#73c4d1;}.cls-120{fill:#006b98;opacity:0.32;}.cls-121{fill:#d9d9d9;}.cls-122{fill:#c7c7c7;}.cls-123{opacity:0.1;}.cls-124{opacity:0.03;}.cls-125{fill:none;stroke:#b8b8b8;stroke-linecap:round;stroke-linejoin:round;stroke-width:2.68px;}.cls-126{fill:#adadad;}.cls-127{fill:#65bb69;}.cls-128{fill:url(#linear-gradient-68);}.cls-129{fill:#3a7d8d;}.cls-130{fill:#deccc5;}.cls-131{fill:url(#linear-gradient-69);}.cls-132{fill:#8187e3;}.cls-133{fill:#c5d2de;}.cls-134{fill:url(#linear-gradient-70);}.cls-135{fill:url(#linear-gradient-71);}.cls-136{fill:#484e7d;}.cls-137{fill:#202338;}.cls-138{fill:#fccca2;}.cls-139{fill:#e55353;}.cls-140{fill:#eea886;}.cls-141{fill:#c24646;}.cls-142{fill:#a77860;}.cls-143{fill:#cfbeb8;}.cls-144{fill:#635b59;}.cls-145{fill:#5189fa;}.cls-146{fill:url(#linear-gradient-72);}.cls-147{fill:url(#linear-gradient-73);}.cls-148{fill:url(#linear-gradient-74);}.cls-149{fill:url(#linear-gradient-75);}.cls-150{fill:url(#linear-gradient-76);}.cls-151{filter:url(#luminosity-noclip-9);}.cls-152{filter:url(#luminosity-noclip-8);}.cls-153{filter:url(#luminosity-noclip-7);}.cls-154{filter:url(#luminosity-noclip-6);}.cls-155{filter:url(#luminosity-noclip-5);}.cls-156{filter:url(#luminosity-noclip-4);}.cls-157{filter:url(#luminosity-noclip-3);}.cls-158{filter:url(#luminosity-noclip-2);}.cls-159{filter:url(#luminosity-noclip);}</style><filter id="luminosity-noclip" x="1126.15" y="-9113.18" width="100.11" height="32766" filterUnits="userSpaceOnUse" color-interpolation-filters="sRGB"><feFlood flood-color="#fff" result="bg"/><feBlend in="SourceGraphic" in2="bg"/></filter><mask id="mask" x="1126.15" y="-9113.18" width="100.11" height="32766" maskUnits="userSpaceOnUse"><g class="cls-159"/></mask><linearGradient id="linear-gradient" x1="1176.2" y1="114.33" x2="1176.2" y2="436.09" gradientUnits="userSpaceOnUse"><stop offset="0" stop-color="#fff"/><stop offset="1"/></linearGradient><filter id="luminosity-noclip-2" x="2377.05" y="-9113.18" width="5.88" height="32766" filterUnits="userSpaceOnUse" color-interpolation-filters="sRGB"><feFlood flood-color="#fff" result="bg"/><feBlend in="SourceGraphic" in2="bg"/></filter><mask id="mask-2" x="2377.05" y="-9113.18" width="5.88" height="32766" maskUnits="userSpaceOnUse"><g class="cls-158"/></mask><linearGradient id="linear-gradient-2" x1="2379.99" y1="1049.48" x2="2379.99" y2="225.76" xlink:href="#linear-gradient"/><filter id="luminosity-noclip-3" x="2382.93" y="-9113.18" width="106.09" height="32766" filterUnits="userSpaceOnUse" color-interpolation-filters="sRGB"><feFlood flood-color="#fff" result="bg"/><feBlend in="SourceGraphic" in2="bg"/></filter><mask id="mask-3" x="2382.93" y="-9113.18" width="106.09" height="32766" maskUnits="userSpaceOnUse"><g class="cls-157"/></mask><linearGradient id="linear-gradient-3" x1="2435.97" y1="114.33" x2="2435.97" y2="436.09" xlink:href="#linear-gradient"/><filter id="luminosity-noclip-4" x="2382.93" y="-9113.18" width="84.89" height="32766" filterUnits="userSpaceOnUse" color-interpolation-filters="sRGB"><feFlood flood-color="#fff" result="bg"/><feBlend in="SourceGraphic" in2="bg"/></filter><mask id="mask-4" x="2382.93" y="-9113.18" width="84.89" height="32766" maskUnits="userSpaceOnUse"><g class="cls-156"/></mask><linearGradient id="linear-gradient-4" x1="2425.38" y1="114.33" x2="2425.38" y2="436.09" xlink:href="#linear-gradient"/><filter id="luminosity-noclip-5" x="2795" y="-9113.18" width="5.88" height="32766" filterUnits="userSpaceOnUse" color-interpolation-filters="sRGB"><feFlood flood-color="#fff" result="bg"/><feBlend in="SourceGraphic" in2="bg"/></filter><mask id="mask-5" x="2795" y="-9113.18" width="5.88" height="32766" maskUnits="userSpaceOnUse"><g class="cls-155"/></mask><linearGradient id="linear-gradient-5" x1="2797.94" y1="1362.82" x2="2797.94" y2="578.45" xlink:href="#linear-gradient"/><filter id="luminosity-noclip-6" x="1126.15" y="-9113.18" width="142" height="32766" filterUnits="userSpaceOnUse" color-interpolation-filters="sRGB"><feFlood flood-color="#fff" result="bg"/><feBlend in="SourceGraphic" in2="bg"/></filter><mask id="mask-6" x="1126.15" y="-9113.18" width="142" height="32766" maskUnits="userSpaceOnUse"><g class="cls-154"/></mask><linearGradient id="linear-gradient-6" x1="1197.15" y1="114.33" x2="1197.15" y2="436.09" xlink:href="#linear-gradient"/><filter id="luminosity-noclip-7" x="1123.21" y="-9113.18" width="5.88" height="32766" filterUnits="userSpaceOnUse" color-interpolation-filters="sRGB"><feFlood flood-color="#fff" result="bg"/><feBlend in="SourceGraphic" in2="bg"/></filter><mask id="mask-7" x="1123.21" y="-9113.18" width="5.88" height="32766" maskUnits="userSpaceOnUse"><g class="cls-153"/></mask><linearGradient id="linear-gradient-7" x1="1126.15" y1="1419.73" x2="1126.15" y2="358.15" xlink:href="#linear-gradient"/><filter id="luminosity-noclip-8" x="1541.16" y="-9113.18" width="5.88" height="32766" filterUnits="userSpaceOnUse" color-interpolation-filters="sRGB"><feFlood flood-color="#fff" result="bg"/><feBlend in="SourceGraphic" in2="bg"/></filter><mask id="mask-8" x="1541.16" y="-9113.18" width="5.88" height="32766" maskUnits="userSpaceOnUse"><g class="cls-152"/></mask><linearGradient id="linear-gradient-8" x1="1544.1" y1="1049.48" x2="1544.1" y2="225.76" xlink:href="#linear-gradient"/><filter id="luminosity-noclip-9" x="1959.11" y="-9113.18" width="5.88" height="32766" filterUnits="userSpaceOnUse" color-interpolation-filters="sRGB"><feFlood flood-color="#fff" result="bg"/><feBlend in="SourceGraphic" in2="bg"/></filter><mask id="mask-9" x="1959.11" y="-9113.18" width="5.88" height="32766" maskUnits="userSpaceOnUse"><g class="cls-151"/></mask><linearGradient id="linear-gradient-9" x1="1962.04" y1="1049.48" x2="1962.04" y2="225.76" xlink:href="#linear-gradient"/><linearGradient id="linear-gradient-10" x1="1307.57" y1="469" x2="2099.21" y2="469" gradientTransform="translate(3406.78 937.99) rotate(-180)" gradientUnits="userSpaceOnUse"><stop offset="0" stop-color="#ff9f55"/><stop offset="1" stop-color="#ffd255"/></linearGradient><linearGradient id="linear-gradient-11" x1="1288.46" y1="432.21" x2="1199.9" y2="917.19" gradientUnits="userSpaceOnUse"><stop offset="0" stop-color="#40d5e6"/><stop offset="1" stop-color="#57f"/></linearGradient><linearGradient id="linear-gradient-12" x1="1117.39" y1="604.1" x2="1285.24" y2="604.1" gradientUnits="userSpaceOnUse"><stop offset="0" stop-color="#d5e4ff"/><stop offset="1" stop-color="#edfffe"/></linearGradient><linearGradient id="linear-gradient-13" x1="1142.15" y1="642.12" x2="1285.24" y2="642.12" xlink:href="#linear-gradient-12"/><linearGradient id="linear-gradient-14" x1="1055.15" y1="680.15" x2="1285.24" y2="680.15" xlink:href="#linear-gradient-12"/><linearGradient id="linear-gradient-15" x1="1146.26" y1="756.15" x2="1350.14" y2="756.15" xlink:href="#linear-gradient-11"/><linearGradient id="linear-gradient-16" x1="1144.44" y1="759.7" x2="1369.34" y2="759.7" xlink:href="#linear-gradient-11"/><linearGradient id="linear-gradient-17" x1="1196.93" y1="725.12" x2="1212.57" y2="725.12" gradientTransform="translate(615.7 -551.69) rotate(34.19)" xlink:href="#linear-gradient-11"/><linearGradient id="linear-gradient-18" x1="1202.89" y1="752.61" x2="1229.93" y2="752.61" gradientTransform="translate(833.04 -625.47) rotate(42.71)" xlink:href="#linear-gradient-11"/><linearGradient id="linear-gradient-19" x1="1252.68" y1="733.51" x2="1257.05" y2="733.51" gradientTransform="translate(57.91 -91.12) rotate(4.26)" xlink:href="#linear-gradient-11"/><linearGradient id="linear-gradient-20" x1="1130.31" y1="638.08" x2="1336" y2="638.08" xlink:href="#linear-gradient-11"/><linearGradient id="linear-gradient-21" x1="1129.79" y1="636.21" x2="1386.68" y2="636.21" xlink:href="#linear-gradient-11"/><linearGradient id="linear-gradient-22" x1="1185.28" y1="658.24" x2="1238.91" y2="658.24" gradientTransform="translate(1816.89 -581.39) rotate(87.5)" xlink:href="#linear-gradient-11"/><linearGradient id="linear-gradient-23" x1="1221.13" y1="593.06" x2="1222.55" y2="593.06" xlink:href="#linear-gradient-11"/><linearGradient id="linear-gradient-24" x1="1144.11" y1="582.59" x2="1187.55" y2="582.59" gradientTransform="translate(1686.76 -612.07) rotate(87.01)" xlink:href="#linear-gradient-11"/><linearGradient id="linear-gradient-25" x1="-4920.76" y1="621.76" x2="-4908.31" y2="1082.25" gradientTransform="matrix(1, 0, 0, -1, 6617.9, 1115.76)" gradientUnits="userSpaceOnUse"><stop offset="0" stop-color="#bad3ff"/><stop offset="1" stop-color="#edfffe"/></linearGradient><filter id="luminosity-noclip-10" x="1126.15" y="261.8" width="100.11" height="16.08" filterUnits="userSpaceOnUse" color-interpolation-filters="sRGB"><feFlood flood-color="#fff" result="bg"/><feBlend in="SourceGraphic" in2="bg"/></filter><mask id="mask-10" x="1126.15" y="261.8" width="100.11" height="16.08" maskUnits="userSpaceOnUse"><g class="cls-1"><rect class="cls-2" x="1126.15" y="261.8" width="100.11" height="16.08"/></g></mask><linearGradient id="linear-gradient-26" x1="1176.2" y1="114.33" x2="1176.2" y2="436.09" xlink:href="#linear-gradient-12"/><filter id="luminosity-noclip-11" x="1126.15" y="291.51" width="142" height="16.08" filterUnits="userSpaceOnUse" color-interpolation-filters="sRGB"><feFlood flood-color="#fff" result="bg"/><feBlend in="SourceGraphic" in2="bg"/></filter><mask id="mask-11" x="1126.15" y="291.51" width="142" height="16.08" maskUnits="userSpaceOnUse"><g class="cls-11"><rect class="cls-12" x="1126.15" y="291.51" width="142" height="16.08"/></g></mask><linearGradient id="linear-gradient-27" x1="1197.15" y1="114.33" x2="1197.15" y2="436.09" xlink:href="#linear-gradient-12"/><filter id="luminosity-noclip-12" x="1123.21" y="325.27" width="5.88" height="770.14" filterUnits="userSpaceOnUse" color-interpolation-filters="sRGB"><feFlood flood-color="#fff" result="bg"/><feBlend in="SourceGraphic" in2="bg"/></filter><mask id="mask-12" x="1123.21" y="325.27" width="5.88" height="770.14" maskUnits="userSpaceOnUse"><g class="cls-13"><rect class="cls-14" x="1123.21" y="325.27" width="5.88" height="770.14"/></g></mask><linearGradient id="linear-gradient-28" x1="1126.15" y1="1419.73" x2="1126.15" y2="358.15" gradientUnits="userSpaceOnUse"><stop offset="0" stop-color="#78c5f1"/><stop offset="1" stop-color="#edfffe"/></linearGradient><filter id="luminosity-noclip-13" x="1541.16" y="325.27" width="5.88" height="770.14" filterUnits="userSpaceOnUse" color-interpolation-filters="sRGB"><feFlood flood-color="#fff" result="bg"/><feBlend in="SourceGraphic" in2="bg"/></filter><mask id="mask-13" x="1541.16" y="325.27" width="5.88" height="770.14" maskUnits="userSpaceOnUse"><g class="cls-15"><rect class="cls-16" x="1541.16" y="325.27" width="5.88" height="770.14"/></g></mask><linearGradient id="linear-gradient-29" x1="1544.1" y1="1049.48" x2="1544.1" y2="225.76" xlink:href="#linear-gradient-28"/><filter id="luminosity-noclip-14" x="1959.11" y="325.27" width="5.88" height="770.14" filterUnits="userSpaceOnUse" color-interpolation-filters="sRGB"><feFlood flood-color="#fff" result="bg"/><feBlend in="SourceGraphic" in2="bg"/></filter><mask id="mask-14" x="1959.11" y="325.27" width="5.88" height="770.14" maskUnits="userSpaceOnUse"><g class="cls-17"><rect class="cls-18" x="1959.11" y="325.27" width="5.88" height="770.14"/></g></mask><linearGradient id="linear-gradient-30" x1="1962.04" y1="1049.48" x2="1962.04" y2="225.76" xlink:href="#linear-gradient-28"/><filter id="luminosity-noclip-15" x="2377.05" y="325.27" width="5.88" height="770.14" filterUnits="userSpaceOnUse" color-interpolation-filters="sRGB"><feFlood flood-color="#fff" result="bg"/><feBlend in="SourceGraphic" in2="bg"/></filter><mask id="mask-15" x="2377.05" y="325.27" width="5.88" height="770.14" maskUnits="userSpaceOnUse"><g class="cls-3"><rect class="cls-4" x="2377.05" y="325.27" width="5.88" height="770.14"/></g></mask><linearGradient id="linear-gradient-31" x1="2379.99" y1="1049.48" x2="2379.99" y2="225.76" xlink:href="#linear-gradient-28"/><filter id="luminosity-noclip-16" x="2382.93" y="261.8" width="106.09" height="16.08" filterUnits="userSpaceOnUse" color-interpolation-filters="sRGB"><feFlood flood-color="#fff" result="bg"/><feBlend in="SourceGraphic" in2="bg"/></filter><mask id="mask-16" x="2382.93" y="261.8" width="106.09" height="16.08" maskUnits="userSpaceOnUse"><g class="cls-5"><rect class="cls-6" x="2382.93" y="261.8" width="106.09" height="16.08"/></g></mask><linearGradient id="linear-gradient-32" x1="2435.97" y1="114.33" x2="2435.97" y2="436.09" xlink:href="#linear-gradient-12"/><filter id="luminosity-noclip-17" x="2382.93" y="291.51" width="84.89" height="16.08" filterUnits="userSpaceOnUse" color-interpolation-filters="sRGB"><feFlood flood-color="#fff" result="bg"/><feBlend in="SourceGraphic" in2="bg"/></filter><mask id="mask-17" x="2382.93" y="291.51" width="84.89" height="16.08" maskUnits="userSpaceOnUse"><g class="cls-7"><rect class="cls-8" x="2382.93" y="291.51" width="84.89" height="16.08"/></g></mask><linearGradient id="linear-gradient-33" x1="2425.38" y1="114.33" x2="2425.38" y2="436.09" xlink:href="#linear-gradient-12"/><filter id="luminosity-noclip-18" x="2795" y="325.27" width="5.88" height="770.14" filterUnits="userSpaceOnUse" color-interpolation-filters="sRGB"><feFlood flood-color="#fff" result="bg"/><feBlend in="SourceGraphic" in2="bg"/></filter><mask id="mask-18" x="2795" y="325.27" width="5.88" height="770.14" maskUnits="userSpaceOnUse"><g class="cls-9"><rect class="cls-10" x="2795" y="325.27" width="5.88" height="770.14"/></g></mask><linearGradient id="linear-gradient-34" x1="2797.94" y1="1362.82" x2="2797.94" y2="578.45" xlink:href="#linear-gradient-28"/><linearGradient id="linear-gradient-35" x1="1126.15" y1="1131.22" x2="1192.64" y2="1131.22" xlink:href="#linear-gradient-12"/><linearGradient id="linear-gradient-36" x1="1544.1" y1="1124.42" x2="1610.59" y2="1124.42" xlink:href="#linear-gradient-12"/><linearGradient id="linear-gradient-37" x1="1964.98" y1="1124.42" x2="2031.48" y2="1124.42" xlink:href="#linear-gradient-12"/><linearGradient id="linear-gradient-38" x1="2382.93" y1="1124.42" x2="2449.43" y2="1124.42" xlink:href="#linear-gradient-12"/><linearGradient id="linear-gradient-39" x1="2800.88" y1="1131.22" x2="2867.37" y2="1131.22" xlink:href="#linear-gradient-12"/><linearGradient id="linear-gradient-40" x1="2684.39" y1="711.9" x2="1124.68" y2="711.9" xlink:href="#linear-gradient-12"/><linearGradient id="linear-gradient-41" x1="3231.03" y1="727.89" x2="460.33" y2="757.41" xlink:href="#linear-gradient-12"/><linearGradient id="linear-gradient-42" x1="2114.07" y1="1085.56" x2="2270.37" y2="1085.56" xlink:href="#linear-gradient-11"/><linearGradient id="linear-gradient-43" x1="2228.73" y1="1172.77" x2="2370.07" y2="1172.77" xlink:href="#linear-gradient-11"/><linearGradient id="linear-gradient-44" x1="2240.81" y1="1193.33" x2="2346.89" y2="1193.33" xlink:href="#linear-gradient-11"/><linearGradient id="linear-gradient-45" x1="2202.5" y1="1107.96" x2="2326.04" y2="1107.96" xlink:href="#linear-gradient-11"/><linearGradient id="linear-gradient-46" x1="2201.6" y1="1362.46" x2="2224.09" y2="1264.76" gradientUnits="userSpaceOnUse"><stop offset="0" stop-color="#b6c4e3"/><stop offset="1" stop-color="#e8efff"/></linearGradient><linearGradient id="linear-gradient-47" x1="2197.72" y1="1380.28" x2="2239.19" y2="1198.94" xlink:href="#linear-gradient-46"/><linearGradient id="linear-gradient-48" x1="1703.39" y1="391.33" x2="1703.39" y2="560.3" gradientUnits="userSpaceOnUse"><stop offset="0" stop-color="#8ec3f9"/><stop offset="1" stop-color="#b8ebff"/></linearGradient><linearGradient id="linear-gradient-49" x1="1755.54" y1="432.1" x2="1755.54" y2="566.06" xlink:href="#linear-gradient-48"/><linearGradient id="linear-gradient-50" x1="1670.47" y1="566.08" x2="1666.28" y2="494.7" xlink:href="#linear-gradient-48"/><linearGradient id="linear-gradient-51" x1="1710.54" y1="527.32" x2="1708.43" y2="620.8" gradientUnits="userSpaceOnUse"><stop offset="0" stop-color="#ff9340"/><stop offset="1" stop-color="#ffce45"/></linearGradient><linearGradient id="linear-gradient-52" x1="1403.97" y1="863.84" x2="1403.97" y2="953.6" xlink:href="#linear-gradient-11"/><linearGradient id="linear-gradient-53" x1="1403.9" y1="863.84" x2="1403.9" y2="953.61" xlink:href="#linear-gradient-11"/><linearGradient id="linear-gradient-54" x1="1403.9" y1="869.64" x2="1403.9" y2="948.25" gradientUnits="userSpaceOnUse"><stop offset="0" stop-color="#d3dae0"/><stop offset="1" stop-color="#fff"/></linearGradient><linearGradient id="linear-gradient-55" x1="1512.76" y1="863.84" x2="1512.76" y2="953.6" xlink:href="#linear-gradient-11"/><linearGradient id="linear-gradient-56" x1="1512.69" y1="863.84" x2="1512.69" y2="953.61" xlink:href="#linear-gradient-11"/><linearGradient id="linear-gradient-57" x1="1512.69" y1="869.64" x2="1512.69" y2="948.25" xlink:href="#linear-gradient-54"/><linearGradient id="linear-gradient-58" x1="1621.54" y1="863.84" x2="1621.54" y2="953.6" xlink:href="#linear-gradient-11"/><linearGradient id="linear-gradient-59" x1="1621.47" y1="863.84" x2="1621.47" y2="953.61" xlink:href="#linear-gradient-11"/><linearGradient id="linear-gradient-60" x1="1621.47" y1="869.64" x2="1621.47" y2="948.25" xlink:href="#linear-gradient-54"/><linearGradient id="linear-gradient-61" x1="1730.33" y1="863.84" x2="1730.33" y2="953.6" xlink:href="#linear-gradient-11"/><linearGradient id="linear-gradient-62" x1="1730.26" y1="863.84" x2="1730.26" y2="953.61" xlink:href="#linear-gradient-11"/><linearGradient id="linear-gradient-63" x1="1730.26" y1="869.64" x2="1730.26" y2="948.25" xlink:href="#linear-gradient-54"/><linearGradient id="linear-gradient-64" x1="2715.3" y1="600.88" x2="2813.37" y2="600.88" xlink:href="#linear-gradient-11"/><linearGradient id="linear-gradient-65" x1="2663.21" y1="599.85" x2="2862.18" y2="599.85" xlink:href="#linear-gradient-11"/><linearGradient id="linear-gradient-66" x1="2524.03" y1="462.68" x2="2605.85" y2="462.68" xlink:href="#linear-gradient-11"/><linearGradient id="linear-gradient-67" x1="-5519.78" y1="703.6" x2="-5515.57" y2="859.49" gradientTransform="matrix(1, 0, 0, -1, 7813.66, 1363.95)" xlink:href="#linear-gradient-25"/><linearGradient id="linear-gradient-68" x1="2598.45" y1="991.06" x2="2598.45" y2="822.48" gradientUnits="userSpaceOnUse"><stop offset="0" stop-color="#3076a1"/><stop offset="1" stop-color="#639c38"/></linearGradient><linearGradient id="linear-gradient-69" x1="-10283.98" y1="833.43" x2="-9918.58" y2="833.43" gradientTransform="matrix(1, 0, 0, -1, 12681.66, 1666.86)" gradientUnits="userSpaceOnUse"><stop offset="0" stop-color="#7f90de"/><stop offset="1" stop-color="#8f55ff"/></linearGradient><linearGradient id="linear-gradient-70" x1="2651.19" y1="797.41" x2="2651.19" y2="698.39" xlink:href="#linear-gradient-68"/><linearGradient id="linear-gradient-71" x1="2420.49" y1="713.25" x2="2717.7" y2="713.25" gradientTransform="matrix(1, 0, 0, 1, 0, 0)" xlink:href="#linear-gradient-69"/><linearGradient id="linear-gradient-72" x1="534.85" y1="1012.63" x2="590.48" y2="1012.63" xlink:href="#linear-gradient-48"/><linearGradient id="linear-gradient-73" x1="277.49" y1="1026.34" x2="383.54" y2="1026.34" xlink:href="#linear-gradient-11"/><linearGradient id="linear-gradient-74" x1="317.32" y1="388.83" x2="406.17" y2="388.83" xlink:href="#linear-gradient-11"/><linearGradient id="linear-gradient-75" x1="822.85" y1="479.71" x2="901.68" y2="479.71" gradientTransform="matrix(1, 0, 0, 1, 0, 0)" xlink:href="#linear-gradient-25"/><linearGradient id="linear-gradient-76" x1="121.23" y1="891.66" x2="139.4" y2="891.66" xlink:href="#linear-gradient-11"/></defs><g class="cls-19"><g id="Layer_2" data-name="Layer 2"><g id="_Layer_" data-name="&lt;Layer&gt;"><rect class="cls-20" x="1307.57" y="434.24" width="791.64" height="575.46" transform="translate(3406.78 1443.94) rotate(180)"/><rect class="cls-21" x="1307.57" y="434.24" width="791.64" height="69.51" transform="translate(3406.78 937.99) rotate(180)"/><path class="cls-22" d="M1440.41,482.13h-86.65A13.13,13.13,0,0,1,1340.63,469h0a13.13,13.13,0,0,1,13.13-13.14h86.65A13.13,13.13,0,0,1,1453.54,469h0A13.13,13.13,0,0,1,1440.41,482.13Z"/><rect class="cls-23" width="2866.27" height="1424.79"/><rect class="cls-23" x="936.87" y="209.68" width="1937.93" height="1212.65"/><path class="cls-24" d="M1399.82,730.64H1101.41a91.17,91.17,0,0,1-91.17-91.17h0a91.16,91.16,0,0,1,91.17-91.16h298.41A91.16,91.16,0,0,1,1491,639.47h0A91.17,91.17,0,0,1,1399.82,730.64Z"/><path class="cls-20" d="M1386.36,703.52a61.4,61.4,0,1,1,61.39-61.4A61.46,61.46,0,0,1,1386.36,703.52Zm0-110.51a49.12,49.12,0,1,0,49.11,49.11A49.16,49.16,0,0,0,1386.36,593Z"/><rect class="cls-25" x="1117.39" y="596.73" width="167.85" height="14.75"/><rect class="cls-26" x="1142.15" y="634.75" width="143.09" height="14.75"/><rect class="cls-27" x="1055.15" y="672.77" width="230.08" height="14.75"/><path class="cls-28" d="M1350.14,782.09a175.82,175.82,0,0,1-30.92-3.27c-16.56-3.13-41-10-63.25-24.78-22.07-14.67-50.68-19.81-70.8-21.53a234.93,234.93,0,0,0-38.77-.23l-.14-1.39a238.22,238.22,0,0,1,39,.23c20.28,1.74,49.14,6.92,71.45,21.76,22.08,14.67,46.28,21.45,62.7,24.56a173.08,173.08,0,0,0,30.68,3.25Z"/><path class="cls-29" d="M1366.13,790.32c-14.71,16.61-77.18,26.87-114.25,7.5-20.49-10.71-36.74-23.22-51.08-34.26-18.69-14.4-34.83-26.83-54.63-31.29l-1.73-.39,1.54-.9c.29-.16,29.3-16.77,70.7-19.54a170.6,170.6,0,0,1,70.7,10.07c28.23,10.38,54.64,28.51,78.52,53.89l-.51.47.51-.47c4.2,4.46,4.57,9.28,1,13.92C1366.69,789.66,1366.42,790,1366.13,790.32Zm-217.87-59c19.29,4.86,35.13,17.06,53.39,31.12,14.29,11,30.49,23.48,50.87,34.13,16.75,8.75,40.81,12.2,66,9.45,21.34-2.33,39.75-8.95,46.56-16.64.27-.3.52-.61.74-.91,3.1-4.08,2.78-8.17-.95-12.13-53.69-57.07-110.14-66-148-63.52C1181.2,715.2,1154.83,727.9,1148.26,731.33Z"/><rect class="cls-30" x="1204.05" y="712.24" width="1.39" height="25.76" transform="translate(-199.27 802.33) rotate(-34.19)"/><rect class="cls-31" x="1198.66" y="751.91" width="35.51" height="1.39" transform="translate(-187.9 1024.63) rotate(-42.71)"/><rect class="cls-32" x="1254.17" y="713.5" width="1.39" height="40.01" transform="translate(-50.99 95.17) rotate(-4.26)"/><path class="cls-33" d="M1335.56,740.26c-.17-.06-16.93-6-38.27-20.69a219.43,219.43,0,0,1-67.82-74.45c-23.64-42.93-49.34-70-66.74-85.17-18.85-16.41-32.29-22.76-32.42-22.82l.56-1.22c.14.07,13.7,6.47,32.69,23,17.49,15.23,43.34,42.44,67.08,85.58a218.37,218.37,0,0,0,67.41,74c21.2,14.55,37.79,20.46,38,20.52Z"/><path class="cls-34" d="M1386.68,736.89l-3.78.69c-.12,0-12.5,2.24-31.56,1.9a228,228,0,0,1-73.62-13.58,206.2,206.2,0,0,1-84.3-58c-29.16-33.1-50.52-77.24-63.48-131.21l-.15-.61.6-.19c.22-.07,22.1-6.75,50.71.12a120.53,120.53,0,0,1,47,23.32c17.94,14.28,33.68,34.23,46.79,59.29,29.55,56.45,57.4,85.46,75.57,99.84,19.6,15.53,32.33,17.79,32.46,17.81ZM1131.39,537c29.3,121.2,95.94,168.93,146.74,187.63a226.38,226.38,0,0,0,73.18,13.52,195.25,195.25,0,0,0,28.13-1.4c-5-1.59-15.57-5.93-29.84-17.24-18.27-14.46-46.27-43.61-75.92-100.27-29.48-56.34-66.79-75.65-92.89-81.92C1155.16,531.15,1135.06,536,1131.39,537Z"/><rect class="cls-35" x="1211.43" y="631.43" width="1.34" height="53.61" transform="translate(501.66 1840.5) rotate(-87.5)"/><rect class="cls-36" x="1221.17" y="555.45" width="1.34" height="75.23"/><rect class="cls-37" x="1165.16" y="560.87" width="1.34" height="43.43" transform="translate(523.17 1716.41) rotate(-87.01)"/><g class="cls-38"><rect class="cls-39" x="1240.14" y="121.31" width="910.54" height="873.14" rx="23.57" transform="translate(3390.82 1115.76) rotate(180)"/><rect class="cls-20" x="1347.54" y="408.07" width="290.06" height="20"/><rect class="cls-20" x="1347.54" y="452.02" width="392.76" height="20"/><rect class="cls-20" x="1347.54" y="622.43" width="319.42" height="20"/><rect class="cls-20" x="1347.54" y="666.38" width="441.93" height="20"/><rect class="cls-20" x="1347.54" y="710.32" width="424.43" height="20"/><g class="cls-40"><g class="cls-41"><rect class="cls-42" x="1811.41" y="182.85" width="1.85" height="339.12"/><rect class="cls-42" x="1867.93" y="182.85" width="1.85" height="339.12"/><rect class="cls-42" x="1924.45" y="182.85" width="1.85" height="339.12"/><rect class="cls-42" x="1980.97" y="182.85" width="1.85" height="339.12"/><rect class="cls-42" x="2037.49" y="182.85" width="1.85" height="339.12"/><rect class="cls-42" x="1755.81" y="238.45" width="339.12" height="1.85"/><rect class="cls-42" x="1755.81" y="294.97" width="339.12" height="1.85"/><rect class="cls-42" x="1755.81" y="351.49" width="339.12" height="1.85"/><rect class="cls-42" x="1755.81" y="408.01" width="339.12" height="1.85"/><rect class="cls-42" x="1755.81" y="464.52" width="339.12" height="1.85"/><path class="cls-42" d="M2098.62,525.66h-346.5V179.16h346.5Zm-339.11-7.39h331.72V186.54H1759.51Z"/></g><rect class="cls-43" x="1922.48" y="343.82" width="42.95" height="5.54" transform="translate(339.49 1497.59) rotate(-45.76)"/><polygon class="cls-43" points="1802.62 459.72 1800.27 458.25 1798.06 456.58 1798.17 456.43 1851.11 383.29 1855.6 386.54 1802.62 459.72"/><rect class="cls-43" x="1870.76" y="369.92" width="39.99" height="5.54" transform="translate(-27.72 190.22) rotate(-5.72)"/><polygon class="cls-43" points="2011.05 360.34 1975.18 332.51 1978.58 328.13 2010.61 352.98 2062.97 301.2 2066.86 305.14 2011.05 360.34"/><path class="cls-43" d="M1794.09,480.41a13.55,13.55,0,1,1,13.55-13.54A13.56,13.56,0,0,1,1794.09,480.41Zm0-21.55a8,8,0,1,0,8,8A8,8,0,0,0,1794.09,458.86Z"/><path class="cls-43" d="M1860.28,390.21a13.55,13.55,0,1,1,13.54-13.54A13.56,13.56,0,0,1,1860.28,390.21Zm0-21.55a8,8,0,1,0,8,8A8,8,0,0,0,1860.28,368.66Z"/><path class="cls-43" d="M1921.35,383.13a13.55,13.55,0,1,1,13.55-13.54A13.55,13.55,0,0,1,1921.35,383.13Zm0-21.55a8,8,0,1,0,8,8A8,8,0,0,0,1921.35,361.58Z"/><path class="cls-43" d="M1967.61,338.35a13.55,13.55,0,1,1,13.54-13.54A13.57,13.57,0,0,1,1967.61,338.35Zm0-21.55a8,8,0,1,0,8,8A8,8,0,0,0,1967.61,316.8Z"/><path class="cls-43" d="M2072.44,309A13.55,13.55,0,1,1,2086,295.5,13.56,13.56,0,0,1,2072.44,309Zm0-21.55a8,8,0,1,0,8,8A8,8,0,0,0,2072.44,287.49Z"/><path class="cls-44" d="M2035.89,405.5A13.55,13.55,0,1,1,2049.43,392,13.56,13.56,0,0,1,2035.89,405.5Zm0-21.55a8,8,0,1,0,8,8A8,8,0,0,0,2035.89,384Z"/><path class="cls-44" d="M1973.17,442.78a13.55,13.55,0,1,1,13.55-13.54A13.55,13.55,0,0,1,1973.17,442.78Zm0-21.55a8,8,0,1,0,8,8A8,8,0,0,0,1973.17,421.23Z"/><path class="cls-44" d="M1863.43,501.51A13.55,13.55,0,1,1,1877,488,13.56,13.56,0,0,1,1863.43,501.51Zm0-21.56a8,8,0,1,0,8,8A8,8,0,0,0,1863.43,480Z"/><path class="cls-44" d="M1916.34,437.91a13.12,13.12,0,0,1-9.23-3.79,13.75,13.75,0,0,1-4.09-9.76,13.54,13.54,0,0,1,27.08,0h0a13.46,13.46,0,0,1-13.48,13.59Zm.22-21.55a8,8,0,0,0-8,8,8.16,8.16,0,0,0,2.43,5.8,8,8,0,0,0,5.51,2.21,7.87,7.87,0,0,0,8.06-8h0A8,8,0,0,0,1916.56,416.36Z"/><rect class="cls-44" x="1859.3" y="453.41" width="61.28" height="5.54" transform="translate(332.51 1619.96) rotate(-50.34)"/><polygon class="cls-44" points="1984.32 427.13 1981.56 422.33 2026.98 396.27 2029.71 401.09 2029.12 401.43 1984.32 427.13"/><rect class="cls-44" x="1942.1" y="409.41" width="5.54" height="35.32" transform="translate(1318.67 2317.26) rotate(-84.06)"/><polygon class="cls-45" points="1790.04 388.16 1785.09 385.67 1844.58 267.47 1901.23 281.81 1962.14 255.48 2013.87 267.65 2062.94 217.66 2066.89 221.54 2015.64 273.75 1962.65 261.3 1901.7 287.64 1847.53 273.93 1790.04 388.16"/><path class="cls-46" d="M1798.34,386.91a10.78,10.78,0,1,1-10.77-10.77A10.77,10.77,0,0,1,1798.34,386.91Z"/><path class="cls-45" d="M1787.57,400.46a13.55,13.55,0,1,1,13.54-13.54A13.57,13.57,0,0,1,1787.57,400.46Zm0-21.55a8,8,0,1,0,8,8A8,8,0,0,0,1787.57,378.91Z"/><path class="cls-46" d="M1856.83,270.7a10.78,10.78,0,1,1-10.77-10.77A10.77,10.77,0,0,1,1856.83,270.7Z"/><path class="cls-45" d="M1846.06,284.25a13.55,13.55,0,1,1,13.54-13.55A13.57,13.57,0,0,1,1846.06,284.25Zm0-21.55a8,8,0,1,0,8,8A8,8,0,0,0,1846.06,262.7Z"/><path class="cls-46" d="M1912.24,284.72A10.78,10.78,0,1,1,1901.47,274,10.78,10.78,0,0,1,1912.24,284.72Z"/><path class="cls-45" d="M1901.47,298.27A13.55,13.55,0,1,1,1915,284.72,13.57,13.57,0,0,1,1901.47,298.27Zm0-21.55a8,8,0,1,0,8,8A8,8,0,0,0,1901.47,276.72Z"/><path class="cls-46" d="M1973.17,258.39a10.78,10.78,0,1,1-10.77-10.78A10.77,10.77,0,0,1,1973.17,258.39Z"/><path class="cls-45" d="M1962.4,271.93a13.55,13.55,0,1,1,13.54-13.54A13.57,13.57,0,0,1,1962.4,271.93Zm0-21.55a8,8,0,1,0,8,8A8,8,0,0,0,1962.4,250.38Z"/><path class="cls-46" d="M2025.53,270.7a10.78,10.78,0,1,1-10.78-10.77A10.78,10.78,0,0,1,2025.53,270.7Z"/><path class="cls-45" d="M2014.75,284.25a13.55,13.55,0,1,1,13.55-13.55A13.57,13.57,0,0,1,2014.75,284.25Zm0-21.55a8,8,0,1,0,8,8A8,8,0,0,0,2014.75,262.7Z"/><path class="cls-46" d="M2075.69,220.68a10.78,10.78,0,1,1-10.78-10.78A10.78,10.78,0,0,1,2075.69,220.68Z"/><path class="cls-45" d="M2064.91,234.22a13.55,13.55,0,1,1,13.55-13.54A13.56,13.56,0,0,1,2064.91,234.22Zm0-21.55a8,8,0,1,0,8,8A8,8,0,0,0,2064.91,212.67Z"/><path class="cls-46" d="M2021.61,356.66a10.78,10.78,0,1,1-10.78-10.78A10.78,10.78,0,0,1,2021.61,356.66Z"/><path class="cls-43" d="M2010.83,370.2a13.55,13.55,0,1,1,13.55-13.54A13.55,13.55,0,0,1,2010.83,370.2Zm0-21.55a8,8,0,1,0,8,8A8,8,0,0,0,2010.83,348.65Z"/></g><g class="cls-47"><path class="cls-44" d="M1394.06,169.79l11.66,29.46a56.42,56.42,0,0,0-39,51.09l-31.67,1.41A88,88,0,0,1,1394.06,169.79Z"/><path class="cls-48" d="M1390,298.59l-23.29,21.92a87.81,87.81,0,0,1-31.64-67.59c0-.39,0-.79,0-1.17l31.67-1.41q-.06,1.28-.06,2.58A56.34,56.34,0,0,0,1390,298.59Z"/><path class="cls-43" d="M1408.75,307.47l-5.85,31.15a87.79,87.79,0,0,1-36.2-18.11L1390,298.59A56.11,56.11,0,0,0,1408.75,307.47Z"/><path class="cls-49" d="M1473.77,277.72l25.58,19.21a88.16,88.16,0,0,1-96.45,41.69l5.85-31.15a56.45,56.45,0,0,0,65-29.75Z"/><path class="cls-45" d="M1500.79,211.51a88.1,88.1,0,0,1-1.44,85.42l-25.58-19.21a56.53,56.53,0,0,0-3.71-56Z"/><path class="cls-50" d="M1500.79,211.51l-30.73,10.17a56.47,56.47,0,0,0-64.34-22.43l-11.66-29.46a88.1,88.1,0,0,1,106.73,41.72Z"/></g></g><g class="cls-51"><rect class="cls-52" x="1126.15" y="261.8" width="100.11" height="16.08"/></g><g class="cls-53"><rect class="cls-54" x="1126.15" y="291.51" width="142" height="16.08"/></g><g class="cls-55"><rect class="cls-56" x="1123.21" y="325.27" width="5.88" height="770.14"/></g><g class="cls-57"><rect class="cls-58" x="1541.16" y="325.27" width="5.88" height="770.14"/></g><g class="cls-59"><rect class="cls-60" x="1959.11" y="325.27" width="5.88" height="770.14"/></g><g class="cls-61"><rect class="cls-62" x="2377.05" y="325.27" width="5.88" height="770.14"/></g><g class="cls-63"><rect class="cls-64" x="2382.93" y="261.8" width="106.09" height="16.08"/></g><g class="cls-65"><rect class="cls-66" x="2382.93" y="291.51" width="84.89" height="16.08"/></g><g class="cls-67"><rect class="cls-68" x="2795" y="325.27" width="5.88" height="770.14"/></g><rect class="cls-69" x="1126.15" y="1120.51" width="66.49" height="21.43"/><rect class="cls-70" x="1544.1" y="1113.7" width="66.5" height="21.43"/><rect class="cls-71" x="1964.98" y="1113.7" width="66.49" height="21.43"/><rect class="cls-72" x="2382.93" y="1113.7" width="66.5" height="21.43"/><rect class="cls-73" x="2800.88" y="1120.51" width="66.49" height="21.43"/><g class="cls-74"><path class="cls-75" d="M1870.62,887c-96.23,0-172.54-64.71-247.26-128.06-56.65-48-115.43-97.14-183.27-121.36-207.06-73.93-313,61.06-313.94,62.25V658.72c1.12-1.41,20-26,74.68-49.37,49.77-21.33,133.28-38.35,248.46,1.72,73,25.38,133.58,76.76,192.19,126.45C1760.37,838.32,1863,925.38,2041.36,789,2176.42,685.74,2303.73,587.33,2429,551.37c122.52-35.17,250.26-9.42,369.82,110.15l-.88,37.29c-254-255.11-470.24-93.48-739.56,112.46C1987,865.82,1925.57,886.94,1870.62,887Z"/></g><g class="cls-76"><path class="cls-77" d="M2653.1,875.06c-130.36,0-243.68-56.36-361.82-115.1-145.84-72.53-296.65-147.52-497.59-127-128.31,13.12-208.84,65.37-279.9,111.47-64.34,41.74-125.16,78.45-207.55,81.59-133.13,5.06-179.32-51.72-180.09-55.18V734.41h0c.17.63,29.23,64.36,179.95,63.6,74.23-.37,129-35.91,192.44-77.07,73.72-47.83,157.27-102,292.3-115.84,209-21.36,363.5,55.47,512.92,129.77,156.34,77.75,305.53,150.66,494.18,87.4v30C2744.17,870.26,2701.16,875.06,2653.1,875.06Z"/></g><rect class="cls-78" x="1653.65" y="959.12" width="99.47" height="302.12" transform="translate(3406.77 2220.36) rotate(180)"/><rect class="cls-79" x="1273.93" y="498.73" width="858.92" height="605.92" rx="58.83" transform="translate(3406.78 1603.39) rotate(180)"/><rect class="cls-80" x="1479.64" y="1249.84" width="447.5" height="22.81"/><path class="cls-81" d="M2127.73,879c13.48-6.44,26.89,36.46,26.89,36.46,22.9,30.27,54.92-10,51.79,35.25-5.48,79.17,91.13,24.9,46.56,107.56s39.35,46.74,11.65,113.39,8.21,146.15-33.47,113.48c0,0-36.7-80.47-74.54-105.37s22.67-54.44,10.83-88.26c-17.2-49.11-58.63-47.18-28.76-100S2081.92,901,2127.73,879Z"/><path class="cls-20" d="M2244.35,1254.88c-18.07-12.7-39.21-101.24-40.47-154-.65-27-8.63-38.27-15.68-48.2-6.73-9.49-12.55-17.68-9.16-36.51,6.48-36-10.54-51.49-10.72-51.64l2-2.25c.76.67,18.49,16.68,11.69,54.42-3.16,17.59,2.06,24.94,8.66,34.25,6.93,9.77,15.56,21.93,16.23,49.86,1.35,56.59,23,140.18,39.2,151.6Z"/><path class="cls-82" d="M2251.11,1261.45a38.67,38.67,0,0,1-7.64-.83c-7-1.41-11.53-5.08-13.57-10.92-4.87-13.93,6.41-36.55,15.57-47.46.15-.18,15.48-18.91,13.85-44.88-.28-4.35-.73-8.38-1.13-11.93-1.15-10.28-2-17.7,2.43-22.66,3.89-4.37,11.4-6.27,25.11-6.33,24-.11,33.55-10.07,41.19-18.07,3.24-3.39,6.3-6.6,10-8.63h0c12-6.54,24.67-7.51,30.17-2.29,2.62,2.48,4.82,7.33.49,16.38-4,8.28-9.09,13.51-13.21,17.72-5.55,5.66-9.22,9.4-7.31,16.86.45,1.75,1,3.52,1.49,5.29,3.7,12.68,7.9,27-13.79,36.8-4.61,2.07-8.8,3.71-12.5,5.16-15.15,5.95-24.29,9.53-34.61,31.32-2,4.22-3.76,8.21-5.47,12.08C2274.08,1247.5,2267.92,1261.44,2251.11,1261.45Zm87.27-169.09c-3.32,1.81-6.09,4.71-9.3,8.08-8,8.4-18,18.87-43.34,19-12.6.06-19.66,1.7-22.89,5.32-3.52,4-2.75,10.84-1.69,20.34.4,3.59.86,7.66,1.14,12.08,1.71,27.19-13.87,46.19-14.54,47-9.06,10.79-19.33,32.28-15,44.55,1.67,4.78,5.48,7.79,11.34,9,20.43,4.13,26.07-8.66,35.42-29.84,1.71-3.88,3.49-7.9,5.5-12.15,10.83-22.85,20.93-26.82,36.22-32.82,3.67-1.44,7.82-3.07,12.36-5.11,19.33-8.68,15.84-20.61,12.15-33.23-.53-1.81-1.06-3.61-1.51-5.39-2.33-9.08,2.26-13.76,8.06-19.69,4.18-4.26,8.91-9.09,12.66-16.91,2-4.11,3.58-9.68.15-12.93-4.52-4.28-16-3.1-26.69,2.74Z"/><path class="cls-83" d="M2243.79,1278.69l-3-.15c.15-2.81,3.91-68.88,30.44-88.22,29.1-21.21,38.28-44,42.65-59.31,5.15-18,31.36-22.85,32.47-23l.52,2.94c-.25,0-25.48,4.7-30.12,20.93-4.49,15.73-13.91,39.15-43.76,60.91C2247.62,1211.25,2243.83,1278,2243.79,1278.69Z"/><path class="cls-84" d="M2304.45,945.71c-18.86-6.46-14.94,29.88-22.91,56.77s-88.63,11.73-54.77,79.06-42.83,22.52-19.92,81.28,2,121.6,26.89,105.62,14-90,39.88-98.77,30.12-19.05,4.48-43,67.18-47.63,44.27-95.9S2326.23,953.18,2304.45,945.71Z"/><path class="cls-20" d="M2245.29,1265.62c-2.37-10.06-22.62-98.58-3.73-109.28,16.66-9.43,16.25-46.11,13.65-80.75-2.3-30.66,37.08-45,38.76-45.59l1,2.82c-.39.13-38.91,14.16-36.78,42.55,2.67,35.57,2.95,73.32-15.15,83.57-14.35,8.12-1.14,79.27,5.16,106Z"/><polygon class="cls-85" points="2288.15 1234.1 2261.23 1336.23 2201.07 1336.23 2174.15 1234.1 2288.15 1234.1"/><path class="cls-86" d="M2288.15,1234.1s-59.26,11.13-59.26,102.14h-27.82l-26.92-102.14Z"/><rect class="cls-20" x="1307.57" y="434.24" width="791.64" height="575.46"/><rect class="cls-87" x="1307.57" y="434.24" width="791.64" height="64.67"/><path class="cls-88" d="M1411.87,462.75h687.34a0,0,0,0,1,0,0v42.57a0,0,0,0,1,0,0H1427.28a15.41,15.41,0,0,1-15.41-15.41V462.75A0,0,0,0,1,1411.87,462.75Z"/><path class="cls-20" d="M1854.53,495.76H1438.84a13,13,0,0,1-13-13h0a13,13,0,0,1,13-13h415.69a13,13,0,0,1,13,13h0A13,13,0,0,1,1854.53,495.76Z"/><path class="cls-20" d="M2072.47,495.76H1903.4a13,13,0,0,1-13-13h0a13,13,0,0,1,13-13h169.07a13,13,0,0,1,13,13h0A13,13,0,0,1,2072.47,495.76Z"/><polygon class="cls-23" points="1355.31 487.88 1353.53 486.1 1361.16 478.47 1353.09 470.4 1354.88 468.62 1364.73 478.47 1355.31 487.88"/><polygon class="cls-23" points="1333.87 487.88 1324.02 478.03 1333.43 468.62 1335.22 470.4 1327.59 478.03 1335.66 486.1 1333.87 487.88"/><path class="cls-23" d="M1402,481.52l-4-6.49-5.43,5.57L1394,482l2.46-2.53a9.61,9.61,0,1,1-9.49-10.87v-2a11.67,11.67,0,1,0,11.51,13.17l1.78,2.85Z"/><path class="cls-23" d="M2039.72,440.3h59.49a0,0,0,0,1,0,0v23.43a0,0,0,0,1,0,0h-59.49A11.71,11.71,0,0,1,2028,452v0A11.71,11.71,0,0,1,2039.72,440.3Z"/><path class="cls-89" d="M2054,452a6.27,6.27,0,1,1-6.27-6.26A6.27,6.27,0,0,1,2054,452Z"/><path class="cls-89" d="M2069.74,452a6.27,6.27,0,1,1-6.26-6.26A6.27,6.27,0,0,1,2069.74,452Z"/><path class="cls-90" d="M2085.5,452a6.27,6.27,0,1,1-6.26-6.26A6.27,6.27,0,0,1,2085.5,452Z"/><path class="cls-91" d="M1307.57,434.24H2018a0,0,0,0,1,0,0v1.35a22.69,22.69,0,0,1-22.69,22.69h-665a22.69,22.69,0,0,1-22.69-22.69v-1.35A0,0,0,0,1,1307.57,434.24Z"/><rect class="cls-92" x="1726.57" y="560.87" width="166.11" height="16.42"/><rect class="cls-92" x="1726.57" y="590.44" width="298.43" height="16.42"/><rect class="cls-93" x="1703.26" y="560.87" width="12" height="45.99"/><rect class="cls-92" x="1726.57" y="661.09" width="212.35" height="16.42"/><rect class="cls-92" x="1726.57" y="690.66" width="259.31" height="16.42"/><rect class="cls-94" x="1703.26" y="661.09" width="12" height="45.99"/><rect class="cls-92" x="1726.57" y="754.82" width="124.08" height="16.42"/><rect class="cls-92" x="1726.57" y="784.39" width="289" height="16.42"/><rect class="cls-94" x="1703.26" y="754.82" width="12" height="45.99"/><rect class="cls-95" x="1387.66" y="947.97" width="32.48" height="4"/><rect class="cls-95" x="1379.78" y="940.84" width="48.24" height="4"/><path class="cls-96" d="M1412.36,885.92a8.39,8.39,0,1,1-8.38-8.39A8.38,8.38,0,0,1,1412.36,885.92Z"/><path class="cls-97" d="M1419.1,913.26v16a37,37,0,0,1-30.4,0v-16a15.2,15.2,0,1,1,30.4,0Z"/><path class="cls-98" d="M1403.9,933.48a37.34,37.34,0,0,1-15.61-3.37,37.78,37.78,0,1,1,31.22,0A37.34,37.34,0,0,1,1403.9,933.48Zm0-73.56a35.79,35.79,0,1,0,35.79,35.78A35.82,35.82,0,0,0,1403.9,859.92Z"/><rect class="cls-95" x="1496.45" y="947.97" width="32.48" height="4"/><rect class="cls-95" x="1488.57" y="940.84" width="48.24" height="4"/><path class="cls-99" d="M1521.15,885.92a8.39,8.39,0,1,1-8.39-8.39A8.39,8.39,0,0,1,1521.15,885.92Z"/><path class="cls-100" d="M1527.89,913.26v16a37,37,0,0,1-30.4,0v-16a15.2,15.2,0,1,1,30.4,0Z"/><path class="cls-101" d="M1512.69,933.48a37.41,37.41,0,0,1-15.62-3.37,37.78,37.78,0,1,1,31.23,0A37.37,37.37,0,0,1,1512.69,933.48Zm0-73.56a35.79,35.79,0,1,0,35.78,35.78A35.83,35.83,0,0,0,1512.69,859.92Z"/><rect class="cls-95" x="1605.23" y="947.97" width="32.48" height="4"/><rect class="cls-95" x="1597.35" y="940.84" width="48.24" height="4"/><path class="cls-102" d="M1629.93,885.92a8.39,8.39,0,1,1-8.39-8.39A8.38,8.38,0,0,1,1629.93,885.92Z"/><path class="cls-103" d="M1636.67,913.26v16a37,37,0,0,1-30.4,0v-16a15.2,15.2,0,0,1,30.4,0Z"/><path class="cls-104" d="M1621.47,933.48a37.34,37.34,0,0,1-15.61-3.37,37.78,37.78,0,1,1,31.22,0A37.34,37.34,0,0,1,1621.47,933.48Zm0-73.56a35.79,35.79,0,1,0,35.79,35.78A35.82,35.82,0,0,0,1621.47,859.92Z"/><rect class="cls-95" x="1714.02" y="947.97" width="32.48" height="4"/><rect class="cls-95" x="1706.14" y="940.84" width="48.24" height="4"/><path class="cls-105" d="M1738.72,885.92a8.39,8.39,0,1,1-8.39-8.39A8.39,8.39,0,0,1,1738.72,885.92Z"/><path class="cls-106" d="M1745.46,913.26v16a37,37,0,0,1-30.4,0v-16a15.2,15.2,0,0,1,30.4,0Z"/><path class="cls-107" d="M1730.26,933.48a37.38,37.38,0,0,1-15.62-3.37,37.78,37.78,0,1,1,31.23,0A37.37,37.37,0,0,1,1730.26,933.48Zm0-73.56A35.79,35.79,0,1,0,1766,895.7,35.82,35.82,0,0,0,1730.26,859.92Z"/><rect class="cls-108" x="1402.41" y="964.92" width="2.99" height="12.56"/><rect class="cls-108" x="1402.41" y="964.92" width="2.99" height="12.56" transform="translate(2375.1 -432.7) rotate(90)"/><rect class="cls-108" x="1511.27" y="964.92" width="2.99" height="12.56"/><rect class="cls-108" x="1511.27" y="964.92" width="2.99" height="12.56" transform="translate(2483.96 -541.56) rotate(90)"/><rect class="cls-108" x="1620.12" y="964.92" width="2.99" height="12.56"/><rect class="cls-108" x="1620.12" y="964.92" width="2.99" height="12.56" transform="translate(2592.82 -650.42) rotate(90)"/><rect class="cls-108" x="1728.98" y="964.92" width="2.99" height="12.56"/><rect class="cls-108" x="1728.98" y="964.92" width="2.99" height="12.56" transform="translate(2701.68 -759.28) rotate(90)"/><g class="cls-109"><path class="cls-110" d="M2744.12,629.52l-27.66-45.29a7.88,7.88,0,1,1,13.45-8.22l19.56,32,52-30.78a7.88,7.88,0,1,1,8,13.56Z"/><path class="cls-111" d="M2762.7,699.34a99.49,99.49,0,1,1,99.48-99.49A99.6,99.6,0,0,1,2762.7,699.34Zm0-184.76A85.27,85.27,0,1,0,2848,599.85,85.37,85.37,0,0,0,2762.7,514.58Z"/></g><g class="cls-109"><path class="cls-112" d="M2538.57,484.89a60.1,60.1,0,0,1,.58-8.54,30.34,30.34,0,0,1,2.23-7.85,24.8,24.8,0,0,1,4.75-7.08,31.92,31.92,0,0,1,8.14-6c1.68-.9,3.91-2.1,6.7-3.58a69.57,69.57,0,0,0,8.14-5.14A33.87,33.87,0,0,0,2576,440a13.51,13.51,0,0,0,2.91-8.44,11.89,11.89,0,0,0-4.65-10,17,17,0,0,0-10.67-3.59,15.6,15.6,0,0,0-6.88,1.45,26,26,0,0,0-5.43,3.49,23,23,0,0,0-4.17,4.56c-1.16,1.68-2.2,3.17-3.1,4.46l-20-14a38.62,38.62,0,0,1,16-18.42,47,47,0,0,1,24.73-6.6,52.81,52.81,0,0,1,14.73,2.14,37.68,37.68,0,0,1,13.19,6.78,35.52,35.52,0,0,1,9.5,12q3.67,7.36,3.68,17.84,0,11-4.55,18.51a40.9,40.9,0,0,1-13.48,13.09,82.06,82.06,0,0,1-8.24,4.85,77.31,77.31,0,0,0-7.66,4.46,21.86,21.86,0,0,0-5.62,5.24,11.4,11.4,0,0,0-2.14,7Zm.58,47.5V503.31h25.4v29.08Z"/></g><rect class="cls-113" x="2176.72" y="532.75" width="233.14" height="298.45" rx="23.57" transform="translate(4586.58 1363.95) rotate(180)"/><rect class="cls-20" x="2322.06" y="557.53" width="59.96" height="6.84" transform="translate(4704.08 1121.9) rotate(180)"/><rect class="cls-20" x="2338" y="572.55" width="44.03" height="6.84" transform="translate(4720.02 1151.94) rotate(180)"/><rect class="cls-20" x="2273.78" y="587.57" width="108.24" height="6.84" transform="translate(4655.8 1181.98) rotate(180)"/><rect class="cls-20" x="2204.22" y="630.77" width="74.27" height="6.84"/><rect class="cls-20" x="2204.22" y="645.79" width="100.57" height="6.84"/><rect class="cls-20" x="2204.22" y="660.81" width="134.07" height="6.84"/><rect class="cls-20" x="2204.22" y="704.04" width="81.79" height="6.84"/><rect class="cls-20" x="2204.22" y="719.06" width="113.16" height="6.84"/><rect class="cls-20" x="2204.22" y="734.08" width="108.68" height="6.84"/><path class="cls-114" d="M1964.48,856.05h-29.32s-4.22,39.94-11.87,44.69c0,0-9.44,47.18,26.53,47.18,43.52,0,26.52-47.18,26.52-47.18C1968.7,896,1964.48,856.05,1964.48,856.05Z"/><path class="cls-115" d="M1987.94,863.87c-4.07-4.67-8.94,2.44-8.94,2.44s6.7-26.41,0-38-28.44-5.48-28.44-5.48-21.74-6.1-28.44,5.48,0,38,0,38-4.88-7.11-8.94-2.44,6.7,16.46,9.14,17.88c0,0,15.64,29.25,28.24,29.25s28.23-29.25,28.23-29.25C1981.23,880.33,1992,868.54,1987.94,863.87Z"/><path class="cls-116" d="M1945.09,833.3s-16.46,2.89-18.28,11.73c-.89,4.29.09,8.94.87,13.18.42,2.24,2,14.26,1.41,14.55a2.5,2.5,0,0,1-2.13-.37c-2.23-1.75-4-4.39-5.56-6.72-3.13-4.57-7.62-3.8-8.92-.91,0,0-3.65-43.35,14.48-44.87S1945.09,833.3,1945.09,833.3Z"/><path class="cls-116" d="M1955.8,833.3s16.45,2.89,18.28,11.73c.89,4.29-.09,8.94-.88,13.18-.42,2.24-2,14.26-1.4,14.55a2.5,2.5,0,0,0,2.13-.37c2.23-1.75,4-4.39,5.56-6.72,3.13-4.57,7.62-3.8,8.91-.91,0,0,3.66-43.35-14.47-44.87S1955.8,833.3,1955.8,833.3Z"/><path class="cls-116" d="M1980,822.46s.39-7.14-7.73-11.56-24.27-6.4-37.06,0-16.69,7.85-20.42,5.72-1.37-4.27-1.37-4.27-8.38-.08-8,12.92,16.39,29.16,37.27,29.16C1974.6,854.43,1984.91,832.13,1980,822.46Z"/><path class="cls-117" d="M1976.34,900.74c-1.53,40.11-26.53,36-26.53,36s-25,4.14-26.52-36c0,0-39.91,11-59.37,24.08a385.52,385.52,0,0,1,8.81,73.91l22.82,88.37,54.26,2.68,54.26-2.68,22.82-88.37a385.52,385.52,0,0,1,8.81-73.91C2016.24,911.77,1976.34,900.74,1976.34,900.74Z"/><path class="cls-118" d="M2023,948c-24.8,13.22-36.86,43.64-61,58.54-24.93,15.42-42.57-15.73-54.69-31.93-10.46-14-23.72-25.22-39.9-31.76a377.1,377.1,0,0,1,5.31,55.89l22.82,88.36,54.26,2.69,54.27-2.69,22.81-88.36a377.69,377.69,0,0,1,5.17-55C2028.91,945.06,2025.83,946.46,2023,948Z"/><path class="cls-119" d="M2050.43,1122.88c0-31-38.46-51.4-38.46-51.4H1882.74s-38.46,20.4-38.46,51.4c0,5,1.17,13.46,3.1,23.94h42.93c-1.74,3.15-3.32,6.09-4.58,8.57-.38.76-.81,1.42-1.21,2.15h31.23c2.35,0,6.81,1,6.15-2.49-.94-4.93-4-7.74-1-12.91,2.35-4.07,8.67-7.38,13.31-7.49,1,0,2,0,3,0q10.13.22,20.25,0c2.87-.07,4.78.78,7.53,1.24,2.19.37,5.06.38,6.29,2.58,1.49,2.64,1.72,6.79,2.26,9.73.16.89-.43,9.33-.72,9.33h43.79a114.28,114.28,0,0,1-7.5-10.72h38.19C2049.26,1136.34,2050.43,1127.92,2050.43,1122.88Z"/><path class="cls-120" d="M2050.43,1122.88c0-31-38.46-51.4-38.46-51.4H1882.74s-38.46,20.4-38.46,51.4c0,5,1.17,13.46,3.1,23.94h42.93c-1.74,3.15-3.32,6.09-4.58,8.57-.38.76-.81,1.42-1.21,2.15h37.35c1,0-1.52-5.39-1.75-5.88a9.69,9.69,0,0,1-.64-6.44c.52-2.11,2.65-4.38,4.27-5.74,6.12-5.16,14.61-5.36,22.21-5.14,7.43.21,15.61-.81,22.08,3.54a13,13,0,0,1,3.32,2.84c4.49,5.55,2.14,10.64,1.48,16.82h43.79a114.28,114.28,0,0,1-7.5-10.72h38.19C2049.26,1136.34,2050.43,1127.92,2050.43,1122.88Z"/><path class="cls-117" d="M1863.92,924.82s-49.35,106.65-45.76,120.84c.9,3.55,60.92,39.8,89.18,34.6l11.5-2.12S1876.9,924.05,1863.92,924.82Z"/><path class="cls-117" d="M2035.6,924.82s49.36,106.65,45.77,120.84c-.9,3.55-60.93,39.8-89.19,34.6l-11.5-2.12S2022.63,924.05,2035.6,924.82Z"/><path class="cls-118" d="M1883.16,962.12a74.64,74.64,0,0,1-1.89,15.57c-4.37,19.28-11.24,39.39-4,59,5.45,14.8,14.2,29.84,22.27,44a35.81,35.81,0,0,0,7.82-.45l11.5-2.12S1899.61,1007.51,1883.16,962.12Z"/><path class="cls-118" d="M2008.62,1079.72a69.44,69.44,0,0,0,5.47-28.42c-.67-19.7-.77-39.39-.46-59.09.14-8.51.36-16.77.86-24.84-16,45.38-33.81,110.77-33.81,110.77l11.5,2.12C1996.91,1081.13,2002.54,1080.82,2008.62,1079.72Z"/><path class="cls-116" d="M1900.56,1307.46s-31.31,37.25-35,45.18,5.29,17.89,17.48,13.83,19.32-12.4,19.52-17.69,6.71-8.11,9.55-8.53,19.11-18.91,17.49-24-9.79-10.65-9.79-10.65Z"/><path class="cls-116" d="M1994.15,1307.46s31.31,37.25,35,45.18-5.29,17.89-17.49,13.83-19.31-12.4-19.51-17.69-6.71-8.11-9.56-8.53-19.11-18.91-17.48-24,9.79-10.65,9.79-10.65Z"/><rect class="cls-117" x="1825.46" y="1152.07" width="10.21" height="215.34"/><rect class="cls-117" x="2061.28" y="1152.07" width="10.21" height="215.34"/><rect class="cls-116" x="1805.43" y="1134.72" width="279.31" height="27.59"/><path class="cls-119" d="M1911.52,1121.25c-3.73-8.87-4.49-27.63-29.6-27.63-48.36,0-37,38.75-36.28,44.55C1853,1195.87,1888,1311,1888,1311h48.43s-17.61-141-20.33-162.8C1915.77,1145.19,1914.08,1127.35,1911.52,1121.25Z"/><path class="cls-119" d="M1983.3,1121.25c3.72-8.87,4.48-27.63,29.59-27.63,48.39,0,37,38.75,36.29,44.55-7.32,57.7-42.41,172.81-42.41,172.81h-48.43s17.61-141,20.33-162.8C1979.05,1145.19,1980.73,1127.35,1983.3,1121.25Z"/><rect class="cls-116" x="1878.71" y="1079.36" width="142.22" height="8.43"/><path class="cls-116" d="M2041.84,980.76h-184s-9.93,0-8.23,11.09,24.9,88.6,29.58,88.6h141.35c4.12,0,27.88-77.52,29.59-88.6S2041.84,980.76,2041.84,980.76Z"/><path class="cls-20" d="M1957.43,1034.43a7.62,7.62,0,1,1-7.61-7.62A7.62,7.62,0,0,1,1957.43,1034.43Z"/><path class="cls-121" d="M1430.65,412.25v22.14h358.73V412.25c0-30.34-19.68-54.93-50-54.93H1388.76C1416,360.55,1430.65,384.12,1430.65,412.25Z"/><path class="cls-122" d="M1430.65,412.25v22.14h274.47V412.25c0-27.57,6.37-46.87,34.25-54.93-1.63-.14-3.26,0-4.92,0h-330a55.72,55.72,0,0,0-10.24,1C1418,363.85,1430.65,386.07,1430.65,412.25Z"/><polygon class="cls-123" points="1308.62 476.13 1326.9 829.18 1706.72 829.18 1721.18 476.13 1308.62 476.13"/><path class="cls-20" d="M1739.39,357.32H1393.7a54.93,54.93,0,0,0-54.93,54.93V829.18H1697.5V412.25C1697.5,384.12,1712.13,360.55,1739.39,357.32Z"/><g class="cls-124"><path d="M1338.77,745v84.2H1492C1442.28,823.35,1351.22,799.6,1338.77,745Z"/><path d="M1542.76,829.18H1697.5V724.64C1680.19,808.61,1592,823.41,1542.76,829.18Z"/></g><circle class="cls-125" cx="1409.01" cy="744.98" r="34.94"/><text/><path class="cls-121" d="M1482.47,492.66h158.88a6.12,6.12,0,1,0,0-12.24H1482.47a6.12,6.12,0,1,0,0,12.24Z"/><path class="cls-121" d="M1641.35,533.35H1482.47a6.13,6.13,0,1,0,0,12.25h158.88a6.13,6.13,0,0,0,0-12.25Z"/><path class="cls-121" d="M1482.47,519.13h122.17a6.13,6.13,0,1,0,0-12.25H1482.47a6.13,6.13,0,1,0,0,12.25Z"/><path class="cls-122" d="M1641.35,622.87H1482.47a6.13,6.13,0,1,0,0,12.25h158.88a6.13,6.13,0,0,0,0-12.25Z"/><path class="cls-122" d="M1482.47,661.59h122.17a6.13,6.13,0,1,0,0-12.25H1482.47a6.13,6.13,0,1,0,0,12.25Z"/><path class="cls-122" d="M1482.47,608.65h122.17a6.13,6.13,0,1,0,0-12.25H1482.47a6.13,6.13,0,1,0,0,12.25Z"/><path class="cls-121" d="M1641.35,738.86H1482.47a6.13,6.13,0,1,0,0,12.25h158.88a6.13,6.13,0,0,0,0-12.25Z"/><path class="cls-121" d="M1482.47,777.58h122.17a6.13,6.13,0,1,0,0-12.25H1482.47a6.13,6.13,0,1,0,0,12.25Z"/><path class="cls-121" d="M1482.47,724.64h122.17a6.13,6.13,0,1,0,0-12.25H1482.47a6.13,6.13,0,1,0,0,12.25Z"/><path class="cls-126" d="M1448.42,389.32h-18.69V386h41.83v3.31h-18.77v43.07h-4.37Z"/><path class="cls-126" d="M1512.51,409.6h-28.39v19.48h31.09l-.63,3.31h-34.75V386h34.11v3.31h-29.82v17h28.39Z"/><path class="cls-126" d="M1527.06,419.94c1.67,6.16,6.6,9.8,15.74,9.8,10.18,0,14.08-4.24,14.08-9.27,0-5.24-2.79-8.49-15-11-11.77-2.46-16.86-5.64-16.86-12.33,0-6.1,5.33-11.8,17.26-11.8,12.24,0,17.41,6.23,18.13,11.87h-4.46c-1.27-5-5.17-8.55-13.91-8.55-8,0-12.41,3.11-12.41,8.28s3.66,7.09,13.92,9.21c15.66,3.25,18,8.48,18,14.05,0,6.83-6,12.72-18.85,12.72-13.91,0-19-6.76-20-13Z"/><path class="cls-126" d="M1584.71,389.32H1566V386h41.83v3.31h-18.77v43.07h-4.37Z"/><path class="cls-127" d="M1437.29,484.73l-34.56,34.56-12.81-12.82-8,8,16.79,16.78a5.79,5.79,0,0,0,8.13,0l38.53-38.53Z"/><path class="cls-125" d="M1428.22,483.83A35.17,35.17,0,1,0,1443,505.06"/><path class="cls-127" d="M1437.29,600.72l-34.56,34.56-12.81-12.82-8,8,16.79,16.78a5.78,5.78,0,0,0,8.13,0l38.53-38.53Z"/><path class="cls-125" d="M1428.22,599.82A35.17,35.17,0,1,0,1443,621.05"/><path class="cls-128" d="M2484.23,872.17h260.44a0,0,0,0,1,0,0V973.31a0,0,0,0,1,0,0H2484.23a32,32,0,0,1-32-32V904.17A32,32,0,0,1,2484.23,872.17Z"/><path class="cls-129" d="M2791.48,882.58V962.9h4.78v10.42H2597.79a19,19,0,0,1-19-19V891.15a19,19,0,0,1,19-19h198.47v10.41Z"/><path class="cls-20" d="M2625,882.58h166.48a0,0,0,0,1,0,0V962.9a0,0,0,0,1,0,0H2625a31.6,31.6,0,0,1-31.6-31.6V914.18a31.6,31.6,0,0,1,31.6-31.6Z"/><rect class="cls-130" x="2682.52" y="922.34" width="77.18" height="1.99"/><rect class="cls-130" x="2646.33" y="928.38" width="82.42" height="1.99"/><path class="cls-131" d="M2480.41,794.39h259.21a0,0,0,0,1,0,0v78.08a0,0,0,0,1,0,0H2480.41a33.23,33.23,0,0,1-33.23-33.23V827.62A33.23,33.23,0,0,1,2480.41,794.39Z" transform="translate(5186.8 1666.86) rotate(180)"/><path class="cls-132" d="M2400.37,802.43v62h-4.78v8h197.74a19.71,19.71,0,0,0,19.7-19.71V814.1a19.71,19.71,0,0,0-19.7-19.71H2395.59v8Z"/><path class="cls-20" d="M2431.38,802.43h170.68a0,0,0,0,1,0,0v62a0,0,0,0,1,0,0H2431.38a31,31,0,0,1-31-31v0A31,31,0,0,1,2431.38,802.43Z" transform="translate(5002.44 1666.86) rotate(180)"/><rect class="cls-133" x="2432.16" y="833.12" width="77.18" height="1.53" transform="translate(4941.5 1667.78) rotate(180)"/><rect class="cls-133" x="2463.1" y="837.79" width="82.42" height="1.53" transform="translate(5008.62 1677.11) rotate(180)"/><path class="cls-134" d="M2508.42,740.3h306.26a0,0,0,0,1,0,0v54.09a0,0,0,0,1,0,0H2508.42a20.73,20.73,0,0,1-20.73-20.73V761A20.73,20.73,0,0,1,2508.42,740.3Z"/><path class="cls-129" d="M2861.49,745.87v43h4.78v5.57H2660.69a11.87,11.87,0,0,1-11.87-11.86V752.16a11.87,11.87,0,0,1,11.87-11.86h205.58v5.57Z"/><path class="cls-20" d="M2678.39,745.87h183.1a0,0,0,0,1,0,0v43a0,0,0,0,1,0,0h-183.1a20,20,0,0,1-20-20v-2.94A20,20,0,0,1,2678.39,745.87Z"/><rect class="cls-130" x="2752.52" y="755.04" width="77.18" height="1.53"/><rect class="cls-130" x="2716.34" y="770.36" width="82.42" height="1.06"/><path class="cls-135" d="M2480.23,686.2h218.39a0,0,0,0,1,0,0V740.3a0,0,0,0,1,0,0H2480.23a19.48,19.48,0,0,1-19.48-19.48V705.69A19.48,19.48,0,0,1,2480.23,686.2Z"/><path class="cls-132" d="M2732.67,691.77v43h3.48v5.57h-146.3A11.88,11.88,0,0,1,2578,728.42V698.09a11.88,11.88,0,0,1,11.88-11.88h146.3v5.56Z"/><path class="cls-20" d="M2601.68,691.77h131a0,0,0,0,1,0,0v43a0,0,0,0,1,0,0h-131A16.76,16.76,0,0,1,2584.92,718v-9.44A16.76,16.76,0,0,1,2601.68,691.77Z"/><rect class="cls-133" x="2653.4" y="700.94" width="56.15" height="1.53"/><rect class="cls-133" x="2627.08" y="716.27" width="59.95" height="1.06"/><path class="cls-136" d="M2728.85,779.8s8,13.51,11.33,15.72c4.57,3,1.71,6-.46,6s-13.25.8-15.69-2-3.65-11.07-5.92-13.24-4.61-10.8,1.11-12.9C2724.27,771.57,2728.85,779.8,2728.85,779.8Z"/><path class="cls-137" d="M2725.4,773.86s9.12,15.82,10.7,18.16-3,2.33-5.77,1.22-9.88-12.45-10.9-14.52a7.61,7.61,0,0,1-.21-5.29Z"/><polygon class="cls-136" points="2716.15 782.37 2718.26 798.59 2719.38 798.64 2719.03 786.97 2716.15 782.37"/><path class="cls-136" d="M2649.83,779.8s8,13.51,11.33,15.72c4.57,3,1.71,6-.46,6s-13.25.8-15.69-2-3.65-11.07-5.92-13.24-4.69-11,1.11-12.9C2645.28,771.79,2649.83,779.8,2649.83,779.8Z"/><path class="cls-137" d="M2646.86,773.89s8.64,15.79,10.22,18.13-3,2.33-5.77,1.22-9.88-12.45-10.9-14.52a7.61,7.61,0,0,1-.21-5.29Z"/><polygon class="cls-136" points="2637.13 782.37 2639.24 798.59 2640.36 798.64 2640.01 786.97 2637.13 782.37"/><path class="cls-137" d="M2719.22,773.43s-20.87-44.25-23.69-72.15a13.82,13.82,0,0,0-9-11.55l-72.1-32.86s15.72-12,46.3-11.22c0,0,40.71,16.62,50.6,24.64,1.34,1.08,2.11,2,2.15,2.72,0,1,.29,4.29.68,9,1.83,22.44,7,78.26,11.19,91.8C2725.4,773.86,2725.91,776.7,2719.22,773.43Z"/><path class="cls-137" d="M2600.88,671c2.24,19.49,30.06,17.26,30.06,17.26h33.72s-8.86,19.71-12.28,36.33c-3.63,17.64-12.18,48.86-12.18,48.86s.56,1.06,6.66.47c0,0,26.47-52.76,36.6-66,2.18-2.86,8.43-18.35,9.5-27.59.37-3.11.14-5.51-1-6.49a87.48,87.48,0,0,0-7.44-5.08c-10.57-6.66-28.91-16.92-39.13-19.21-13.69-3.08-35.33-8.85-35.33-8.85S2598.65,651.49,2600.88,671Z"/><path class="cls-136" d="M2661.14,688.24h-30.2s-27.82,2.23-30.05-17.26,9.14-30.32,9.14-30.32,14.7,3.92,27.53,7a99.61,99.61,0,0,1,23.21-2s49.52,5,52.77,27.48C2713.54,673.13,2690.78,660.93,2661.14,688.24Z"/><path class="cls-138" d="M2639.08,489.88s-13.17-2-18.71,8.29.32,16.65-1.83,20.2-10,8.41-8.91,14,9.78,11.89,7.6,16.86-3.65,8.23-3.47,8.64,53.31,9.54,53.31,9.54-3.89-7.45-7.2-10.48-6.85-4-2.74-14.71,7.61-15.8,5.89-23.84-1.09-15.44-9.09-22.59A23.72,23.72,0,0,0,2639.08,489.88Z"/><path class="cls-139" d="M2610,640.66c4.6,6.48,20.54,7.66,33.41,7.22h0c2.64-.09,5.16-.25,7.42-.44,7.9,7.86,7.34,6.69,8.57,8.12.88,1,8.27-4.63,9.46-5.52.55-.42,1.14,1.69-6.68-7.61l-.33-.39c.33-4.23.29-11,.64-15.8a18.47,18.47,0,0,1,.73-4.66c1.56-3.9,2.9-12.83,2.9-12.83a48.47,48.47,0,0,0,6.38-12.5,43.33,43.33,0,0,1,4.2,6.85c.69,1.37,1.39,2.8,2.09,4.25h0c3.42,7.1,6.72,14.64,7.77,17.28C2692.48,639.53,2701,658,2701,658s8.81-.88,8.25-1-11.08-30.44-15.35-40.37c-.84-2-15.08-46.29-23.06-55.16-8.61-9.57-26.78-15.15-26.78-15.15l-19.68-.74s-15.09,2.1-21.12,11.83c-5.45,8.81.42,27,16.85,53.71-1.95,8.25-5.33,15.57-5.64,17.61C2612.9,638.78,2610,640.66,2610,640.66Zm10.81-51.56-1.65-2.25,0,0v0a6.59,6.59,0,0,1,1.17,1.39A7.75,7.75,0,0,1,2620.84,589.1Z"/><path class="cls-140" d="M2624.39,527.27c3.87,10.7,0,18.28,0,18.28.74,6.55,19.12,25.71,20.8,23.59,1.35-1.71-.2-15.5-.86-20.79-.15-1.28-.26-2.06-.26-2.06a9.85,9.85,0,0,1,.16-2.57h0a13.42,13.42,0,0,1,1-3.1s-15.5-15.11-20-16C2624,524.33,2623.59,525.06,2624.39,527.27Z"/><path class="cls-139" d="M2603,575.85s15.27,30.43,11.56,52.54c-1.88,11.17,15.69-38.91,15.69-38.91Z"/><path class="cls-140" d="M2648.54,498.07s13.44,11.29,5.91,33.73-23.41,7.08-24.94,5.36c-2.34-2.65-5.74-15.82-5.21-22.14C2624.81,509.08,2624.6,485,2648.54,498.07Z"/><path class="cls-138" d="M2647,502.57c-1.47-.63-7.8,8.67-10.86,10.78s-10.1,8.77-11.41,15.44-3.19-16.59-.26-24.31,7-19.07,23.63-7.66,10.05,27.4,10.05,27.4S2654.39,505.77,2647,502.57Z"/><path class="cls-140" d="M2632.26,514.94c-.14-2.78-5.88-5.82-6.28-1.71s2.34,9.23,4.25,9.16S2632.39,517.5,2632.26,514.94Z"/><path class="cls-141" d="M2619.16,586.81v0l0,0,1.79,2.56c4.6,6.58,16.71,23.78,21.18,29.16v0h0l17.76,21.12.79.93.78.93.39.47c.33-4.23.29-11,.64-15.8-4.88-2.62-20.09-12.08-42.19-38-.39-.45-.78-.92-1.17-1.39Z"/><path class="cls-141" d="M2626.23,620.67l17.21,27.21h0c2.64-.09,5.16-.25,7.42-.44,0,0-20.21-20.15-21.57-22.17Z"/><path class="cls-142" d="M2627.65,533.52s.69,11.58,16.68,14.83c-.15-1.28-.26-2.06-.26-2.06a9.85,9.85,0,0,1,.16-2.57h0a15.35,15.35,0,0,1-7.3-1.2h0a17,17,0,0,1-4.18-2.53A20.53,20.53,0,0,1,2627.65,533.52Z"/><path class="cls-141" d="M2672.54,596.25a43.33,43.33,0,0,1,4.2,6.85c.69,1.37,1.39,2.8,2.09,4.25a48.62,48.62,0,0,0-6.71-27.64C2673.81,583.14,2672.54,596.25,2672.54,596.25Z"/><path class="cls-139" d="M2701,658s6.64,1.11,8.25-1l-4.18-10.76-8.63,1.65Z"/><polygon class="cls-143" points="2639.86 662.86 2697.94 656.58 2671.7 676.31 2639.86 662.86"/><polygon class="cls-144" points="2671.7 676.31 2639.86 666.28 2639.86 662.86 2672.77 672.62 2671.7 676.31"/><path class="cls-140" d="M2678.32,653.56s2.6,2.21,3.24,3,3.26,3.76,3.9,4.47-1.42,1.2-6.38-2.77S2678.32,653.56,2678.32,653.56Z"/><path class="cls-140" d="M2662.23,647.54s4.5,1.18,7.65,1.81c2.44.48,8.16,3.39,9.4,5.19s4.28,12.13,5.07,13-.81,1.53-2.26.31c0,0-2.18,3.14-5.47.35s-4.89-7-6.64-8.22-12.28-8.06-12.28-8.06S2659.62,645.53,2662.23,647.54Z"/><polygon class="cls-144" points="2671.7 676.31 2688.63 618.09 2753.03 611.81 2735.38 665.4 2671.7 676.31"/><path class="cls-139" d="M2668.9,649.14s-6,4.4-8.64,7.44c0,0-12.43-12.18-13.7-13.46l13.73-3Z"/><path class="cls-137" d="M2694.11,696.35h0a13.59,13.59,0,0,0-3.87-4.6s3.53-10,2.71-15.91C2693,676.44,2694.69,687.56,2694.11,696.35Z"/><ellipse class="cls-145" cx="277.49" cy="696.89" rx="238.98" ry="204.22"/><ellipse class="cls-145" cx="532.26" cy="791.37" rx="201.74" ry="160.6"/><circle class="cls-145" cx="630.95" cy="596.14" r="28.7"/><circle class="cls-145" cx="562.67" cy="517.74" r="27.82"/><circle class="cls-145" cx="876.15" cy="830.5" r="31.86"/><ellipse class="cls-146" cx="562.67" cy="1012.63" rx="27.82" ry="17.37"/><circle class="cls-147" cx="330.51" cy="1026.34" r="53.02"/><ellipse class="cls-145" cx="582.34" cy="699.58" rx="151.66" ry="102.85"/><ellipse class="cls-145" cx="749.77" cy="699.99" rx="187.1" ry="154.44"/><ellipse class="cls-148" cx="361.74" cy="388.83" rx="44.43" ry="31.5"/><circle class="cls-149" cx="862.27" cy="479.71" r="39.42"/><circle class="cls-150" cx="130.31" cy="891.66" r="9.08"/><circle class="cls-145" cx="313.1" cy="901.11" r="14.16"/><circle class="cls-145" cx="754.84" cy="927.41" r="5.07"/><circle class="cls-145" cx="551.28" cy="584.77" r="62.38"/><ellipse class="cls-145" cx="533.54" cy="558.13" rx="216.22" ry="141.86"/></g></g></g></svg>
