<svg xmlns="http://www.w3.org/2000/svg" viewBox="0 0 155 155"><defs><style>.cls-1{fill:#e9e9f0;}.cls-2{font-size:8.44px;}.cls-2,.cls-3,.cls-4,.cls-5,.cls-6{fill:#adb0b0;font-family:MyriadPro-Regular, Myriad Pro;}.cls-3{font-size:8.94px;}.cls-4{font-size:9.19px;}.cls-5{font-size:8.2px;}.cls-6{font-size:8.24px;}.cls-7{fill:#d1d3d4;}.cls-8{fill:#00acb3;}.cls-9{fill:#d84774;}.cls-10{fill:#feca7a;}.cls-11{fill:#f9fbfc;}</style></defs><g id="Layer_2" data-name="Layer 2"><g id="Layer_1-2" data-name="Layer 1"><circle class="cls-1" cx="77.5" cy="77.5" r="77.5"/><text class="cls-2" transform="translate(77.03 130.05)">70</text><text class="cls-3" transform="translate(92.46 129.46)">80</text><text class="cls-4" transform="translate(107.39 129.67)">90</text><text class="cls-5" transform="translate(61.91 129.85)">60</text><text class="cls-6" transform="translate(45.53 129.89)">50</text><text class="cls-2" transform="translate(20.97 75.39)">70</text><text class="cls-3" transform="translate(20.17 60.6)">80</text><text class="cls-4" transform="translate(20.91 44.58)">90</text><text class="cls-5" transform="translate(21.07 91.42)">60</text><text class="cls-6" transform="translate(20.92 107.69)">50</text><rect class="cls-7" x="34.19" y="41.98" width="93.11" height="0.51"/><rect class="cls-7" x="34.19" y="57.5" width="93.11" height="0.51"/><rect class="cls-7" x="34.19" y="73.01" width="93.11" height="0.51"/><rect class="cls-7" x="34.19" y="88.53" width="93.11" height="0.51"/><rect class="cls-7" x="34.19" y="104.05" width="93.11" height="0.51"/><path class="cls-7" d="M128.32,120.84H33.18V25.7h95.14Zm-93.12-2h91.09V27.73H35.2Z"/><rect class="cls-8" x="79.95" y="70.91" width="11.79" height="1.52" transform="translate(-25.39 83.18) rotate(-45.76)"/><polygon class="cls-8" points="47.04 102.73 46.4 102.33 45.79 101.87 45.82 101.83 60.35 81.75 61.59 82.64 47.04 102.73"/><rect class="cls-8" x="65.75" y="78.08" width="10.98" height="1.52" transform="translate(-7.5 7.49) rotate(-5.72)"/><polygon class="cls-8" points="104.27 75.44 94.42 67.8 95.36 66.6 104.15 73.42 118.53 59.21 119.59 60.29 104.27 75.44"/><path class="cls-8" d="M44.7,108.41a3.72,3.72,0,1,1,3.72-3.72A3.73,3.73,0,0,1,44.7,108.41Zm0-5.91a2.2,2.2,0,1,0,2.2,2.19A2.2,2.2,0,0,0,44.7,102.5Z"/><path class="cls-8" d="M62.87,83.65a3.72,3.72,0,1,1,3.72-3.72A3.73,3.73,0,0,1,62.87,83.65Zm0-5.92a2.2,2.2,0,1,0,2.2,2.2A2.21,2.21,0,0,0,62.87,77.73Z"/><path class="cls-8" d="M79.64,81.7A3.72,3.72,0,1,1,83.36,78,3.72,3.72,0,0,1,79.64,81.7Zm0-5.91A2.2,2.2,0,1,0,81.84,78,2.2,2.2,0,0,0,79.64,75.79Z"/><path class="cls-8" d="M92.34,69.41a3.72,3.72,0,1,1,3.72-3.72A3.73,3.73,0,0,1,92.34,69.41Zm0-5.92a2.2,2.2,0,1,0,2.2,2.2A2.21,2.21,0,0,0,92.34,63.49Z"/><path class="cls-8" d="M121.13,61.36a3.72,3.72,0,1,1,3.72-3.72A3.73,3.73,0,0,1,121.13,61.36Zm0-5.92a2.2,2.2,0,1,0,2.19,2.2A2.2,2.2,0,0,0,121.13,55.44Z"/><path class="cls-9" d="M111.09,87.85a3.72,3.72,0,1,1,3.72-3.72A3.73,3.73,0,0,1,111.09,87.85Zm0-5.92a2.2,2.2,0,1,0,2.2,2.2A2.2,2.2,0,0,0,111.09,81.93Z"/><path class="cls-9" d="M93.87,98.08a3.72,3.72,0,1,1,3.72-3.72A3.73,3.73,0,0,1,93.87,98.08Zm0-5.91a2.2,2.2,0,1,0,2.2,2.19A2.2,2.2,0,0,0,93.87,92.17Z"/><path class="cls-9" d="M63.74,114.21a3.72,3.72,0,1,1,3.72-3.72A3.73,3.73,0,0,1,63.74,114.21Zm0-5.92a2.2,2.2,0,1,0,2.2,2.2A2.2,2.2,0,0,0,63.74,108.29Z"/><path class="cls-9" d="M78.27,96.74a3.59,3.59,0,0,1-2.54-1A3.78,3.78,0,0,1,74.61,93,3.72,3.72,0,0,1,82,93h0a3.69,3.69,0,0,1-3.7,3.73Zm.06-5.91a2.2,2.2,0,0,0-1.53,3.78A2.2,2.2,0,0,0,80.52,93h0A2.19,2.19,0,0,0,78.33,90.83Z"/><rect class="cls-9" x="62.6" y="101" width="16.83" height="1.52" transform="translate(-52.65 91.48) rotate(-50.34)"/><polygon class="cls-9" points="96.93 93.78 96.17 92.47 108.64 85.31 109.39 86.64 109.23 86.73 96.93 93.78"/><rect class="cls-9" x="85.34" y="88.92" width="1.52" height="9.7" transform="translate(-16.08 169.69) rotate(-84.06)"/><polygon class="cls-10" points="43.59 83.08 42.23 82.4 58.56 49.95 74.12 53.88 90.84 46.65 105.04 49.99 118.52 36.27 119.6 37.34 105.53 51.67 90.98 48.25 74.25 55.48 59.37 51.72 43.59 83.08"/><path class="cls-11" d="M45.87,82.74a3,3,0,1,1-3-3A3,3,0,0,1,45.87,82.74Z"/><path class="cls-10" d="M42.91,86.46a3.72,3.72,0,1,1,3.72-3.72A3.73,3.73,0,0,1,42.91,86.46Zm0-5.92a2.2,2.2,0,1,0,2.2,2.2A2.21,2.21,0,0,0,42.91,80.54Z"/><path class="cls-11" d="M61.93,50.83a3,3,0,1,1-3-3A3,3,0,0,1,61.93,50.83Z"/><path class="cls-10" d="M59,54.55a3.72,3.72,0,1,1,3.72-3.72A3.73,3.73,0,0,1,59,54.55Zm0-5.91a2.2,2.2,0,1,0,2.2,2.19A2.2,2.2,0,0,0,59,48.64Z"/><path class="cls-11" d="M77.14,54.68a3,3,0,1,1-3-3A3,3,0,0,1,77.14,54.68Z"/><path class="cls-10" d="M74.18,58.4a3.72,3.72,0,1,1,3.72-3.72A3.73,3.73,0,0,1,74.18,58.4Zm0-5.91a2.2,2.2,0,1,0,2.2,2.19A2.2,2.2,0,0,0,74.18,52.49Z"/><path class="cls-11" d="M93.87,47.45a3,3,0,1,1-3-3A3,3,0,0,1,93.87,47.45Z"/><path class="cls-10" d="M90.91,51.17a3.72,3.72,0,1,1,3.72-3.72A3.73,3.73,0,0,1,90.91,51.17Zm0-5.92a2.2,2.2,0,1,0,2.2,2.2A2.21,2.21,0,0,0,90.91,45.25Z"/><path class="cls-11" d="M108.25,50.83a3,3,0,1,1-3-3A3,3,0,0,1,108.25,50.83Z"/><path class="cls-10" d="M105.29,54.55A3.72,3.72,0,1,1,109,50.83,3.73,3.73,0,0,1,105.29,54.55Zm0-5.91a2.2,2.2,0,1,0,2.19,2.19A2.19,2.19,0,0,0,105.29,48.64Z"/><path class="cls-11" d="M122,37.1a3,3,0,1,1-3-3A3,3,0,0,1,122,37.1Z"/><path class="cls-10" d="M119.06,40.82a3.72,3.72,0,1,1,3.72-3.72A3.73,3.73,0,0,1,119.06,40.82Zm0-5.92a2.2,2.2,0,1,0,2.2,2.2A2.21,2.21,0,0,0,119.06,34.9Z"/><path class="cls-11" d="M107.17,74.43a3,3,0,1,1-3-3A3,3,0,0,1,107.17,74.43Z"/><path class="cls-8" d="M104.21,78.15a3.72,3.72,0,1,1,3.72-3.72A3.72,3.72,0,0,1,104.21,78.15Zm0-5.91a2.2,2.2,0,1,0,2.2,2.19A2.2,2.2,0,0,0,104.21,72.24Z"/></g></g></svg>