<svg xmlns="http://www.w3.org/2000/svg" xmlns:xlink="http://www.w3.org/1999/xlink" viewBox="0 0 153.87 155.57"><defs><style>.cls-1,.cls-2{fill:#a9c7db;}.cls-1,.cls-13{stroke:#765e69;stroke-miterlimit:10;stroke-width:1.34px;}.cls-3{clip-path:url(#clip-path);}.cls-4{fill:#fc6a5a;}.cls-5{fill:#d35450;}.cls-6{fill:#f19c7c;}.cls-7{fill:#c47d66;}.cls-8{fill:#352c38;}.cls-9{fill:#5d8584;}.cls-10{fill:#6f9b99;}.cls-11{fill:#a06653;}.cls-12{fill:#fff;}.cls-13{fill:none;}</style><clipPath id="clip-path"><circle class="cls-1" cx="76.94" cy="76.94" r="76.26"/></clipPath></defs><g id="Layer_2" data-name="Layer 2"><g id="OBJECTS"><circle class="cls-2" cx="76.94" cy="76.94" r="76.26"/><g class="cls-3"><path class="cls-4" d="M107.37,28.24s2.06,14.7,8.25,24.5c8.93,14.13-2.58,16-.26,25.79s20.12,18-1,40.49C100.49,133.7,83.9,105.09,83.9,105.09L79.26,67.7Z"/><path class="cls-5" d="M100.54,52.16C98.31,50.48,96.14,48.75,94,47L79.26,65.27l4.64,33a54.19,54.19,0,0,0,9.94,10.94c1.51-1.68,5.07,6.1,7.08,5.4,6.71-2.32,18.83-15.21,10.06-25C100.51,77.91,113,64.6,100.54,52.16Z"/><path class="cls-6" d="M91,95.33c-6.27-3.42-4.56-19.94-4.56-19.94L77,76v-.6l-1,.3-1-.3V76l-9.38-.6s1.71,16.52-4.56,19.94-43.3,5.13-39.31,43.3H130.27C134.26,100.46,97.22,98.75,91,95.33Z"/><path class="cls-7" d="M64.3,91.07q11.25-1.68,22.48-3.46a49.7,49.7,0,0,1-.38-12.22L77,76v-.6l-1,.3-1-.3V76l-9.38-.6S66.61,85,64.3,91.07Z"/><path class="cls-8" d="M99.72,123.64a58.91,58.91,0,0,1,.76-25.42c-1.59-.46-3.07-.85-4.39-1.21-.59,6.9-1.4,13.91-4,20.12a33.14,33.14,0,0,1-3.6,6.51Z"/><path class="cls-9" d="M111.12,101.81c-6.19,8.48-19.48,14.35-34.87,14.35s-28.67-5.87-34.87-14.35c-11,5.2-21.89,15.18-19.63,36.82l45.63,16.94H88.05l42.71-16.94C133,117,122.15,107,111.12,101.81Z"/><path class="cls-10" d="M73.44,128.57c21.89,0,41.05-6.33,51.59-15.8a35.8,35.8,0,0,0-13.91-11c-6.19,8.48-19.48,14.35-34.87,14.35s-28.67-5.87-34.87-14.35c-6,2.84-12,7.11-15.8,13.92C36.58,123.53,53.92,128.57,73.44,128.57Z"/><path class="cls-7" d="M57.66,51.2c-1.85-5.73-6.22-4.4-6.63-4.26s-5,.72-4.17,6.69,4.27,9.25,7.53,8.3C57.76,61.39,59.51,57,57.66,51.2Z"/><path class="cls-7" d="M94.53,51.2c1.84-5.73,6.22-4.4,6.63-4.26s4.94.72,4.16,6.69-4.27,9.25-7.53,8.3C94.43,61.39,92.67,57,94.53,51.2Z"/><path class="cls-6" d="M53.18,42.52C55.46,17.41,74.56,18.81,76.36,19c1.8-.19,20.89-1.59,23.18,23.52,2.3,25.27-9,41.77-23.18,40.86C62.13,84.29,50.87,67.79,53.18,42.52Z"/><path class="cls-4" d="M62.6,22.3s2.34,19.08,21.31,22.78l-4.68-11.7s1.6,14.16,20.44,13.42c0,0,6.9,3.2,4.43,10.59a15.13,15.13,0,0,0,4.19-15.27c-2.59-9.6,3.45-10.22-6.16-24.38C93.66,5.25,65.93,3.82,62.6,22.3Z"/><path class="cls-4" d="M67.9,18.23s-9.11-7.39-16,1S46.72,40.65,40.31,48.77,34.9,64,42.78,71.68,20.61,86.46,30.22,105.42s33.49,8.87,35.22-6.16S66.18,81,66.18,81s-10.1-7.88-11.83-20.45S55.58,41.88,61,37.44,71.35,29.07,67.9,18.23Z"/><path class="cls-5" d="M34.65,96.55c-2-3.87-2.3-6.89-1.58-9.36-4.06,4.65-6.8,10.45-2.85,18.23,9.6,19,33.49,8.87,35.22-6.16,0-.33.07-.65.11-1C58,104.26,42.06,110.87,34.65,96.55Z"/><path class="cls-11" d="M79.65,55.08a12.88,12.88,0,0,1,1.54,3.55,18.11,18.11,0,0,1,.67,3.74l0,.42-.2.18q-.8.68-1.62,1.32c-.57.42-1.13.84-1.75,1.21a19.39,19.39,0,0,1,1.14-1.79c.41-.57.83-1.13,1.27-1.67l-.17.6a18.07,18.07,0,0,1-.9-3.69A13.2,13.2,0,0,1,79.65,55.08Z"/><path class="cls-12" d="M86.09,70c-4.54,4.42-12.24,4.17-18.08.24"/><path class="cls-8" d="M94.36,46.56c-1.17-.5-2.21-1-3.2-1.32a10.93,10.93,0,0,0-2.83-.7,6.64,6.64,0,0,0-2.76.3,14.32,14.32,0,0,0-1.51.52c-.53.21-1,.5-1.67.7a7.14,7.14,0,0,1,.82-1.72A6.11,6.11,0,0,1,84.6,43a5.64,5.64,0,0,1,4-1.09,6.66,6.66,0,0,1,3.68,1.56A6.4,6.4,0,0,1,94.36,46.56Z"/><path class="cls-8" d="M70.58,46.56c-1.18-.5-2.21-1-3.2-1.32a11.1,11.1,0,0,0-2.84-.7,6.59,6.59,0,0,0-2.75.3,14.32,14.32,0,0,0-1.51.52c-.53.21-1,.5-1.67.7a7.14,7.14,0,0,1,.82-1.72A6.11,6.11,0,0,1,60.82,43a5.63,5.63,0,0,1,4-1.09,6.66,6.66,0,0,1,3.69,1.56A6.53,6.53,0,0,1,70.58,46.56Z"/><path class="cls-8" d="M69.83,55.66a7.92,7.92,0,0,0-1.51-2.78,3.27,3.27,0,0,0-2.49-1.11,2.88,2.88,0,0,0-2.46,1,6.43,6.43,0,0,0-1.13,2.9,4.49,4.49,0,0,1,.36-3.42A3.31,3.31,0,0,1,64,50.93a4.47,4.47,0,0,1,1.85-.35,3.81,3.81,0,0,1,3.2,1.74A5.1,5.1,0,0,1,69.83,55.66Z"/><path class="cls-8" d="M91.2,55.32a8,8,0,0,0-1.5-2.78,3.24,3.24,0,0,0-2.49-1.11,2.86,2.86,0,0,0-2.47,1,6.5,6.5,0,0,0-1.13,2.9A4.56,4.56,0,0,1,84,51.89a3.35,3.35,0,0,1,1.41-1.3,4.32,4.32,0,0,1,1.85-.35A3.78,3.78,0,0,1,90.43,52,5.13,5.13,0,0,1,91.2,55.32Z"/></g><circle class="cls-13" cx="76.94" cy="76.94" r="76.26"/></g></g></svg>