<svg xmlns="http://www.w3.org/2000/svg" xmlns:xlink="http://www.w3.org/1999/xlink" viewBox="0 0 1857.13 1287.7"><defs><style>.cls-1{mask:url(#mask);filter:url(#luminosity-noclip-10);}.cls-10,.cls-12,.cls-14,.cls-16,.cls-18,.cls-2,.cls-4,.cls-6,.cls-8,.cls-94,.cls-97,.cls-98{mix-blend-mode:multiply;}.cls-2{fill:url(#linear-gradient);}.cls-3{mask:url(#mask-2);filter:url(#luminosity-noclip-15);}.cls-4{fill:url(#linear-gradient-2);}.cls-5{mask:url(#mask-3);filter:url(#luminosity-noclip-16);}.cls-6{fill:url(#linear-gradient-3);}.cls-7{mask:url(#mask-4);filter:url(#luminosity-noclip-17);}.cls-8{fill:url(#linear-gradient-4);}.cls-9{mask:url(#mask-5);filter:url(#luminosity-noclip-18);}.cls-10{fill:url(#linear-gradient-5);}.cls-11{mask:url(#mask-6);filter:url(#luminosity-noclip-11);}.cls-12{fill:url(#linear-gradient-6);}.cls-13{mask:url(#mask-7);filter:url(#luminosity-noclip-12);}.cls-14{fill:url(#linear-gradient-7);}.cls-15{mask:url(#mask-8);filter:url(#luminosity-noclip-13);}.cls-16{fill:url(#linear-gradient-8);}.cls-17{mask:url(#mask-9);filter:url(#luminosity-noclip-14);}.cls-18{fill:url(#linear-gradient-9);}.cls-19,.cls-85{isolation:isolate;}.cls-20{opacity:0.29;}.cls-21,.cls-41,.cls-43,.cls-57,.cls-58{fill:#fff;}.cls-22{fill:url(#linear-gradient-10);}.cls-23{fill:#f5f7ff;}.cls-24{opacity:0.35;fill:url(#linear-gradient-11);}.cls-25{fill:url(#linear-gradient-12);}.cls-26{fill:url(#linear-gradient-13);}.cls-27{fill:url(#linear-gradient-14);}.cls-28{opacity:0.64;}.cls-29,.cls-85{opacity:0.7;}.cls-30{opacity:0.51;}.cls-31{fill:#d1d3d4;}.cls-32{fill:#00acb3;}.cls-33{fill:#d84774;}.cls-34{fill:#feca7a;}.cls-35{fill:#f9fbfc;}.cls-36{opacity:0.43;}.cls-37{fill:#f24c88;}.cls-38{fill:#16d8d8;}.cls-39{fill:#f79663;}.cls-40{mask:url(#mask-10);}.cls-41{opacity:0.75;}.cls-42{mask:url(#mask-11);}.cls-43,.cls-86{opacity:0.76;}.cls-44{mask:url(#mask-12);}.cls-45{mask:url(#mask-13);}.cls-46{mask:url(#mask-14);}.cls-47{mask:url(#mask-15);}.cls-48{mask:url(#mask-16);}.cls-49{mask:url(#mask-17);}.cls-50{mask:url(#mask-18);}.cls-119,.cls-51{opacity:0.31;}.cls-52{opacity:0.26;}.cls-53{fill:#8f8f8f;}.cls-54{fill:#f0f0f0;}.cls-54,.cls-56,.cls-57,.cls-58,.cls-59,.cls-60,.cls-61{stroke:#fff;stroke-miterlimit:10;}.cls-55{fill:#ccc;}.cls-56,.cls-57,.cls-60,.cls-61{stroke-width:0;}.cls-56{fill:url(#linear-gradient-15);}.cls-59{fill:url(#linear-gradient-16);}.cls-60{fill:url(#linear-gradient-17);}.cls-61{fill:url(#linear-gradient-18);}.cls-62{fill:url(#linear-gradient-19);}.cls-63{fill:url(#linear-gradient-20);}.cls-64{fill:#fafafa;}.cls-65{fill:#e8e8e8;}.cls-66{fill:#da5e5e;}.cls-67{fill:url(#linear-gradient-21);}.cls-68{fill:#e6e6e6;}.cls-69{fill:url(#linear-gradient-22);}.cls-70{fill:#78c2ff;}.cls-71{fill:#d6d6d6;}.cls-72{fill:url(#linear-gradient-23);}.cls-73{fill:url(#linear-gradient-24);}.cls-74{fill:url(#linear-gradient-25);}.cls-75{fill:url(#linear-gradient-26);}.cls-76{fill:url(#linear-gradient-27);}.cls-77{fill:url(#linear-gradient-28);}.cls-78{fill:url(#linear-gradient-29);}.cls-79{fill:url(#linear-gradient-30);}.cls-80{fill:url(#linear-gradient-31);}.cls-81{fill:url(#linear-gradient-32);}.cls-82{fill:url(#linear-gradient-33);}.cls-83{fill:url(#linear-gradient-34);}.cls-84{fill:#c5ccd1;}.cls-87{fill:url(#linear-gradient-35);}.cls-88{fill:#e45940;}.cls-89{fill:#ffb089;}.cls-90{fill:#292c3d;}.cls-91{fill:#b9d2db;}.cls-92{fill:#94bac8;}.cls-93{fill:#73c4d1;}.cls-94{fill:#006b98;opacity:0.32;}.cls-95{fill:#d9d9d9;}.cls-96{fill:#c7c7c7;}.cls-97{opacity:0.1;}.cls-98{opacity:0.03;}.cls-99{fill:none;stroke:#b8b8b8;stroke-linecap:round;stroke-linejoin:round;stroke-width:2.68px;}.cls-100{fill:#adadad;}.cls-101{fill:#65bb69;}.cls-102{fill:url(#linear-gradient-36);}.cls-103{fill:#3a7d8d;}.cls-104{fill:#deccc5;}.cls-105{fill:url(#linear-gradient-37);}.cls-106{fill:#8187e3;}.cls-107{fill:#c5d2de;}.cls-108{fill:url(#linear-gradient-38);}.cls-109{fill:url(#linear-gradient-39);}.cls-110{fill:#484e7d;}.cls-111{fill:#202338;}.cls-112{fill:#fccca2;}.cls-113{fill:#e55353;}.cls-114{fill:#eea886;}.cls-115{fill:#c24646;}.cls-116{fill:#a77860;}.cls-117{fill:#cfbeb8;}.cls-118{fill:#635b59;}.cls-120{filter:url(#luminosity-noclip-9);}.cls-121{filter:url(#luminosity-noclip-8);}.cls-122{filter:url(#luminosity-noclip-7);}.cls-123{filter:url(#luminosity-noclip-6);}.cls-124{filter:url(#luminosity-noclip-5);}.cls-125{filter:url(#luminosity-noclip-4);}.cls-126{filter:url(#luminosity-noclip-3);}.cls-127{filter:url(#luminosity-noclip-2);}.cls-128{filter:url(#luminosity-noclip);}</style><filter id="luminosity-noclip" x="115.91" y="-8933.04" width="100.11" height="32766" filterUnits="userSpaceOnUse" color-interpolation-filters="sRGB"><feFlood flood-color="#fff" result="bg"/><feBlend in="SourceGraphic" in2="bg"/></filter><mask id="mask" x="115.91" y="-8933.04" width="100.11" height="32766" maskUnits="userSpaceOnUse"><g class="cls-128"/></mask><linearGradient id="linear-gradient" x1="165.96" y1="-6.98" x2="165.96" y2="314.77" gradientUnits="userSpaceOnUse"><stop offset="0" stop-color="#fff"/><stop offset="1"/></linearGradient><filter id="luminosity-noclip-2" x="1366.81" y="-8933.04" width="5.88" height="32766" filterUnits="userSpaceOnUse" color-interpolation-filters="sRGB"><feFlood flood-color="#fff" result="bg"/><feBlend in="SourceGraphic" in2="bg"/></filter><mask id="mask-2" x="1366.81" y="-8933.04" width="5.88" height="32766" maskUnits="userSpaceOnUse"><g class="cls-127"/></mask><linearGradient id="linear-gradient-2" x1="1369.75" y1="928.17" x2="1369.75" y2="104.44" xlink:href="#linear-gradient"/><filter id="luminosity-noclip-3" x="1372.69" y="-8933.04" width="106.09" height="32766" filterUnits="userSpaceOnUse" color-interpolation-filters="sRGB"><feFlood flood-color="#fff" result="bg"/><feBlend in="SourceGraphic" in2="bg"/></filter><mask id="mask-3" x="1372.69" y="-8933.04" width="106.09" height="32766" maskUnits="userSpaceOnUse"><g class="cls-126"/></mask><linearGradient id="linear-gradient-3" x1="1425.73" y1="-6.98" x2="1425.73" y2="314.77" xlink:href="#linear-gradient"/><filter id="luminosity-noclip-4" x="1372.69" y="-8933.04" width="84.89" height="32766" filterUnits="userSpaceOnUse" color-interpolation-filters="sRGB"><feFlood flood-color="#fff" result="bg"/><feBlend in="SourceGraphic" in2="bg"/></filter><mask id="mask-4" x="1372.69" y="-8933.04" width="84.89" height="32766" maskUnits="userSpaceOnUse"><g class="cls-125"/></mask><linearGradient id="linear-gradient-4" x1="1415.13" y1="-6.98" x2="1415.13" y2="314.77" xlink:href="#linear-gradient"/><filter id="luminosity-noclip-5" x="1784.76" y="-8933.04" width="5.88" height="32766" filterUnits="userSpaceOnUse" color-interpolation-filters="sRGB"><feFlood flood-color="#fff" result="bg"/><feBlend in="SourceGraphic" in2="bg"/></filter><mask id="mask-5" x="1784.76" y="-8933.04" width="5.88" height="32766" maskUnits="userSpaceOnUse"><g class="cls-124"/></mask><linearGradient id="linear-gradient-5" x1="1787.7" y1="1241.5" x2="1787.7" y2="457.14" xlink:href="#linear-gradient"/><filter id="luminosity-noclip-6" x="115.91" y="-8933.04" width="142" height="32766" filterUnits="userSpaceOnUse" color-interpolation-filters="sRGB"><feFlood flood-color="#fff" result="bg"/><feBlend in="SourceGraphic" in2="bg"/></filter><mask id="mask-6" x="115.91" y="-8933.04" width="142" height="32766" maskUnits="userSpaceOnUse"><g class="cls-123"/></mask><linearGradient id="linear-gradient-6" x1="186.91" y1="-6.98" x2="186.91" y2="314.77" xlink:href="#linear-gradient"/><filter id="luminosity-noclip-7" x="112.97" y="-8933.04" width="5.88" height="32766" filterUnits="userSpaceOnUse" color-interpolation-filters="sRGB"><feFlood flood-color="#fff" result="bg"/><feBlend in="SourceGraphic" in2="bg"/></filter><mask id="mask-7" x="112.97" y="-8933.04" width="5.88" height="32766" maskUnits="userSpaceOnUse"><g class="cls-122"/></mask><linearGradient id="linear-gradient-7" x1="115.91" y1="1298.41" x2="115.91" y2="236.84" xlink:href="#linear-gradient"/><filter id="luminosity-noclip-8" x="530.92" y="-8933.04" width="5.88" height="32766" filterUnits="userSpaceOnUse" color-interpolation-filters="sRGB"><feFlood flood-color="#fff" result="bg"/><feBlend in="SourceGraphic" in2="bg"/></filter><mask id="mask-8" x="530.92" y="-8933.04" width="5.88" height="32766" maskUnits="userSpaceOnUse"><g class="cls-121"/></mask><linearGradient id="linear-gradient-8" x1="533.86" y1="928.17" x2="533.86" y2="104.44" xlink:href="#linear-gradient"/><filter id="luminosity-noclip-9" x="948.87" y="-8933.04" width="5.88" height="32766" filterUnits="userSpaceOnUse" color-interpolation-filters="sRGB"><feFlood flood-color="#fff" result="bg"/><feBlend in="SourceGraphic" in2="bg"/></filter><mask id="mask-9" x="948.87" y="-8933.04" width="5.88" height="32766" maskUnits="userSpaceOnUse"><g class="cls-120"/></mask><linearGradient id="linear-gradient-9" x1="951.8" y1="928.17" x2="951.8" y2="104.44" xlink:href="#linear-gradient"/><linearGradient id="linear-gradient-10" x1="297.33" y1="347.68" x2="1088.97" y2="347.68" gradientTransform="translate(1386.29 695.36) rotate(-180)" gradientUnits="userSpaceOnUse"><stop offset="0" stop-color="#ff9f55"/><stop offset="1" stop-color="#ffd255"/></linearGradient><linearGradient id="linear-gradient-11" x1="278.22" y1="310.9" x2="189.66" y2="795.87" gradientUnits="userSpaceOnUse"><stop offset="0" stop-color="#40d5e6"/><stop offset="1" stop-color="#57f"/></linearGradient><linearGradient id="linear-gradient-12" x1="107.15" y1="482.79" x2="274.99" y2="482.79" gradientUnits="userSpaceOnUse"><stop offset="0" stop-color="#d5e4ff"/><stop offset="1" stop-color="#edfffe"/></linearGradient><linearGradient id="linear-gradient-13" x1="131.91" y1="520.81" x2="274.99" y2="520.81" xlink:href="#linear-gradient-12"/><linearGradient id="linear-gradient-14" x1="44.91" y1="558.83" x2="274.99" y2="558.83" xlink:href="#linear-gradient-12"/><filter id="luminosity-noclip-10" x="115.91" y="140.48" width="100.11" height="16.08" filterUnits="userSpaceOnUse" color-interpolation-filters="sRGB"><feFlood flood-color="#fff" result="bg"/><feBlend in="SourceGraphic" in2="bg"/></filter><mask id="mask-10" x="115.91" y="140.48" width="100.11" height="16.08" maskUnits="userSpaceOnUse"><g class="cls-1"><rect class="cls-2" x="115.91" y="140.48" width="100.11" height="16.08"/></g></mask><filter id="luminosity-noclip-11" x="115.91" y="170.2" width="142" height="16.08" filterUnits="userSpaceOnUse" color-interpolation-filters="sRGB"><feFlood flood-color="#fff" result="bg"/><feBlend in="SourceGraphic" in2="bg"/></filter><mask id="mask-11" x="115.91" y="170.2" width="142" height="16.08" maskUnits="userSpaceOnUse"><g class="cls-11"><rect class="cls-12" x="115.91" y="170.2" width="142" height="16.08"/></g></mask><filter id="luminosity-noclip-12" x="112.97" y="203.96" width="5.88" height="770.14" filterUnits="userSpaceOnUse" color-interpolation-filters="sRGB"><feFlood flood-color="#fff" result="bg"/><feBlend in="SourceGraphic" in2="bg"/></filter><mask id="mask-12" x="112.97" y="203.96" width="5.88" height="770.14" maskUnits="userSpaceOnUse"><g class="cls-13"><rect class="cls-14" x="112.97" y="203.96" width="5.88" height="770.14"/></g></mask><filter id="luminosity-noclip-13" x="530.92" y="203.96" width="5.88" height="770.14" filterUnits="userSpaceOnUse" color-interpolation-filters="sRGB"><feFlood flood-color="#fff" result="bg"/><feBlend in="SourceGraphic" in2="bg"/></filter><mask id="mask-13" x="530.92" y="203.96" width="5.88" height="770.14" maskUnits="userSpaceOnUse"><g class="cls-15"><rect class="cls-16" x="530.92" y="203.96" width="5.88" height="770.14"/></g></mask><filter id="luminosity-noclip-14" x="948.87" y="203.96" width="5.88" height="770.14" filterUnits="userSpaceOnUse" color-interpolation-filters="sRGB"><feFlood flood-color="#fff" result="bg"/><feBlend in="SourceGraphic" in2="bg"/></filter><mask id="mask-14" x="948.87" y="203.96" width="5.88" height="770.14" maskUnits="userSpaceOnUse"><g class="cls-17"><rect class="cls-18" x="948.87" y="203.96" width="5.88" height="770.14"/></g></mask><filter id="luminosity-noclip-15" x="1366.81" y="203.96" width="5.88" height="770.14" filterUnits="userSpaceOnUse" color-interpolation-filters="sRGB"><feFlood flood-color="#fff" result="bg"/><feBlend in="SourceGraphic" in2="bg"/></filter><mask id="mask-15" x="1366.81" y="203.96" width="5.88" height="770.14" maskUnits="userSpaceOnUse"><g class="cls-3"><rect class="cls-4" x="1366.81" y="203.96" width="5.88" height="770.14"/></g></mask><filter id="luminosity-noclip-16" x="1372.69" y="140.48" width="106.09" height="16.08" filterUnits="userSpaceOnUse" color-interpolation-filters="sRGB"><feFlood flood-color="#fff" result="bg"/><feBlend in="SourceGraphic" in2="bg"/></filter><mask id="mask-16" x="1372.69" y="140.48" width="106.09" height="16.08" maskUnits="userSpaceOnUse"><g class="cls-5"><rect class="cls-6" x="1372.69" y="140.48" width="106.09" height="16.08"/></g></mask><filter id="luminosity-noclip-17" x="1372.69" y="170.2" width="84.89" height="16.08" filterUnits="userSpaceOnUse" color-interpolation-filters="sRGB"><feFlood flood-color="#fff" result="bg"/><feBlend in="SourceGraphic" in2="bg"/></filter><mask id="mask-17" x="1372.69" y="170.2" width="84.89" height="16.08" maskUnits="userSpaceOnUse"><g class="cls-7"><rect class="cls-8" x="1372.69" y="170.2" width="84.89" height="16.08"/></g></mask><filter id="luminosity-noclip-18" x="1784.76" y="203.96" width="5.88" height="770.14" filterUnits="userSpaceOnUse" color-interpolation-filters="sRGB"><feFlood flood-color="#fff" result="bg"/><feBlend in="SourceGraphic" in2="bg"/></filter><mask id="mask-18" x="1784.76" y="203.96" width="5.88" height="770.14" maskUnits="userSpaceOnUse"><g class="cls-9"><rect class="cls-10" x="1784.76" y="203.96" width="5.88" height="770.14"/></g></mask><linearGradient id="linear-gradient-15" x1="1103.83" y1="964.25" x2="1260.13" y2="964.25" xlink:href="#linear-gradient-11"/><linearGradient id="linear-gradient-16" x1="1192.26" y1="986.65" x2="1315.8" y2="986.65" xlink:href="#linear-gradient-11"/><linearGradient id="linear-gradient-17" x1="1191.36" y1="1241.14" x2="1213.85" y2="1143.44" gradientUnits="userSpaceOnUse"><stop offset="0" stop-color="#b6c4e3"/><stop offset="1" stop-color="#e8efff"/></linearGradient><linearGradient id="linear-gradient-18" x1="1187.48" y1="1258.97" x2="1228.95" y2="1077.63" xlink:href="#linear-gradient-17"/><linearGradient id="linear-gradient-19" x1="693.15" y1="270.02" x2="693.15" y2="438.99" gradientUnits="userSpaceOnUse"><stop offset="0" stop-color="#8ec3f9"/><stop offset="1" stop-color="#b8ebff"/></linearGradient><linearGradient id="linear-gradient-20" x1="745.3" y1="310.78" x2="745.3" y2="444.74" xlink:href="#linear-gradient-19"/><linearGradient id="linear-gradient-21" x1="660.23" y1="444.76" x2="656.04" y2="373.39" xlink:href="#linear-gradient-19"/><linearGradient id="linear-gradient-22" x1="700.3" y1="406" x2="698.19" y2="499.48" gradientUnits="userSpaceOnUse"><stop offset="0" stop-color="#ff9340"/><stop offset="1" stop-color="#ffce45"/></linearGradient><linearGradient id="linear-gradient-23" x1="393.73" y1="742.53" x2="393.73" y2="832.29" xlink:href="#linear-gradient-11"/><linearGradient id="linear-gradient-24" x1="393.66" y1="742.52" x2="393.66" y2="832.29" xlink:href="#linear-gradient-11"/><linearGradient id="linear-gradient-25" x1="393.66" y1="748.33" x2="393.66" y2="826.94" gradientUnits="userSpaceOnUse"><stop offset="0" stop-color="#d3dae0"/><stop offset="1" stop-color="#fff"/></linearGradient><linearGradient id="linear-gradient-26" x1="502.52" y1="742.53" x2="502.52" y2="832.29" xlink:href="#linear-gradient-11"/><linearGradient id="linear-gradient-27" x1="502.45" y1="742.52" x2="502.45" y2="832.29" xlink:href="#linear-gradient-11"/><linearGradient id="linear-gradient-28" x1="502.45" y1="748.33" x2="502.45" y2="826.94" xlink:href="#linear-gradient-25"/><linearGradient id="linear-gradient-29" x1="611.3" y1="742.53" x2="611.3" y2="832.29" xlink:href="#linear-gradient-11"/><linearGradient id="linear-gradient-30" x1="611.23" y1="742.52" x2="611.23" y2="832.29" xlink:href="#linear-gradient-11"/><linearGradient id="linear-gradient-31" x1="611.23" y1="748.33" x2="611.23" y2="826.94" xlink:href="#linear-gradient-25"/><linearGradient id="linear-gradient-32" x1="720.09" y1="742.53" x2="720.09" y2="832.29" xlink:href="#linear-gradient-11"/><linearGradient id="linear-gradient-33" x1="720.02" y1="742.52" x2="720.02" y2="832.29" xlink:href="#linear-gradient-11"/><linearGradient id="linear-gradient-34" x1="720.02" y1="748.33" x2="720.02" y2="826.94" xlink:href="#linear-gradient-25"/><linearGradient id="linear-gradient-35" x1="-6285.31" y1="582.29" x2="-6281.09" y2="738.18" gradientTransform="matrix(1, 0, 0, -1, 7568.94, 1121.32)" gradientUnits="userSpaceOnUse"><stop offset="0" stop-color="#bad3ff"/><stop offset="1" stop-color="#edfffe"/></linearGradient><linearGradient id="linear-gradient-36" x1="1588.21" y1="869.74" x2="1588.21" y2="701.16" gradientUnits="userSpaceOnUse"><stop offset="0" stop-color="#3076a1"/><stop offset="1" stop-color="#639c38"/></linearGradient><linearGradient id="linear-gradient-37" x1="-11049.51" y1="712.12" x2="-10684.11" y2="712.12" gradientTransform="matrix(1, 0, 0, -1, 12436.95, 1424.24)" gradientUnits="userSpaceOnUse"><stop offset="0" stop-color="#7f90de"/><stop offset="1" stop-color="#8f55ff"/></linearGradient><linearGradient id="linear-gradient-38" x1="1640.95" y1="676.1" x2="1640.95" y2="577.07" xlink:href="#linear-gradient-36"/><linearGradient id="linear-gradient-39" x1="1410.25" y1="591.94" x2="1707.46" y2="591.94" gradientTransform="matrix(1, 0, 0, 1, 0, 0)" xlink:href="#linear-gradient-37"/></defs><g class="cls-19"><g id="Layer_2" data-name="Layer 2"><g id="_Layer_" data-name="&lt;Layer&gt;"><ellipse class="cls-20" cx="1220.11" cy="1215.6" rx="40.22" ry="4.83"/><rect class="cls-21" x="297.33" y="312.93" width="791.64" height="575.46" transform="translate(1386.29 1201.32) rotate(180)"/><rect class="cls-22" x="297.33" y="312.93" width="791.64" height="69.51" transform="translate(1386.29 695.36) rotate(180)"/><path class="cls-23" d="M430.17,360.81H343.52a13.13,13.13,0,0,1-13.13-13.13h0a13.13,13.13,0,0,1,13.13-13.13h86.65a13.13,13.13,0,0,1,13.13,13.13h0A13.13,13.13,0,0,1,430.17,360.81Z"/><path class="cls-24" d="M389.58,609.33H91.17A91.17,91.17,0,0,1,0,518.16H0A91.17,91.17,0,0,1,91.17,427H389.58a91.17,91.17,0,0,1,91.17,91.17h0A91.17,91.17,0,0,1,389.58,609.33Z"/><path class="cls-21" d="M376.12,582.2a61.39,61.39,0,1,1,61.39-61.39A61.46,61.46,0,0,1,376.12,582.2Zm0-110.5a49.11,49.11,0,1,0,49.11,49.11A49.16,49.16,0,0,0,376.12,471.7Z"/><rect class="cls-25" x="107.15" y="475.41" width="167.85" height="14.75"/><rect class="cls-26" x="131.91" y="513.43" width="143.09" height="14.75"/><rect class="cls-27" x="44.91" y="551.45" width="230.08" height="14.75"/><path class="cls-21" d="M339.9,660.77A174.66,174.66,0,0,1,309,657.5c-16.56-3.13-41-10-63.25-24.78-22.07-14.67-50.68-19.8-70.8-21.53a234.2,234.2,0,0,0-38.77-.22l-.14-1.39a235.56,235.56,0,0,1,39,.23c20.28,1.73,49.14,6.92,71.45,21.75,22.08,14.68,46.28,21.46,62.7,24.56a173.76,173.76,0,0,0,30.68,3.26Z"/><path class="cls-21" d="M355.89,669c-14.71,16.61-77.18,26.87-114.25,7.5-20.49-10.71-36.74-23.23-51.08-34.27-18.69-14.39-34.83-26.82-54.63-31.29l-1.73-.39,1.54-.89c.29-.17,29.3-16.77,70.7-19.54a170.44,170.44,0,0,1,70.7,10.07c28.23,10.37,54.64,28.5,78.52,53.88l-.51.48.51-.48c4.2,4.47,4.56,9.29,1,13.93C356.45,668.34,356.18,668.68,355.89,669ZM138,610c19.28,4.85,35.13,17.05,53.39,31.12,14.29,11,30.49,23.48,50.87,34.13,16.75,8.75,40.81,12.19,66,9.44,21.34-2.33,39.75-9,46.56-16.64.27-.3.52-.6.74-.9,3.1-4.09,2.78-8.17-.95-12.13C301,598,244.5,589,206.6,591.52,171,593.89,144.58,606.58,138,610Z"/><rect class="cls-21" x="193.81" y="590.93" width="1.39" height="25.76" transform="translate(-305.69 213.66) rotate(-34.19)"/><rect class="cls-21" x="188.42" y="630.6" width="35.51" height="1.39" transform="translate(-373.51 307.25) rotate(-42.71)"/><rect class="cls-21" x="243.93" y="592.19" width="1.39" height="40.01" transform="translate(-44.77 19.85) rotate(-4.26)"/><path class="cls-21" d="M325.32,618.94c-.17-.06-16.93-6-38.27-20.68a219.63,219.63,0,0,1-67.82-74.45c-23.64-42.94-49.34-70-66.74-85.17-18.85-16.42-32.29-22.76-32.43-22.83l.57-1.21c.13.06,13.7,6.46,32.69,23,17.49,15.22,43.33,42.43,67.08,85.58a218.22,218.22,0,0,0,67.41,74c21.2,14.56,37.79,20.47,37.95,20.53Z"/><path class="cls-21" d="M376.44,615.57l-3.78.69c-.12,0-12.5,2.24-31.56,1.91a227.82,227.82,0,0,1-73.62-13.59,206.08,206.08,0,0,1-84.3-58c-29.16-33.1-50.52-77.25-63.48-131.22l-.15-.61.6-.18c.22-.07,22.1-6.75,50.71.12a120.46,120.46,0,0,1,47,23.32c17.94,14.28,33.68,34.22,46.79,59.28,29.55,56.46,57.4,85.46,75.57,99.85,19.6,15.53,32.33,17.78,32.46,17.8ZM121.15,415.67c29.3,121.2,95.94,168.94,146.74,187.64a226.92,226.92,0,0,0,73.17,13.52,193.39,193.39,0,0,0,28.14-1.41c-5-1.58-15.57-5.93-29.84-17.23-18.27-14.47-46.27-43.61-75.92-100.28C234,441.57,196.65,422.27,170.55,416,144.92,409.83,124.82,414.67,121.15,415.67Z"/><rect class="cls-21" x="201.19" y="510.12" width="1.34" height="53.61" transform="translate(-343.36 715.19) rotate(-87.5)"/><rect class="cls-21" x="210.93" y="434.13" width="1.34" height="75.23"/><rect class="cls-21" x="154.92" y="439.56" width="1.34" height="43.43" transform="translate(-313.18 592.57) rotate(-87.01)"/><g class="cls-28"><rect class="cls-21" x="229.9" width="910.54" height="873.14" rx="23.57" transform="translate(1370.34 873.14) rotate(180)"/><rect class="cls-21" x="337.3" y="286.76" width="290.06" height="20"/><rect class="cls-21" x="337.3" y="330.7" width="392.76" height="20"/><rect class="cls-21" x="337.3" y="501.12" width="319.42" height="20"/><rect class="cls-21" x="337.3" y="545.06" width="441.93" height="20"/><rect class="cls-21" x="337.3" y="589.01" width="424.43" height="20"/><g class="cls-29"><g class="cls-30"><rect class="cls-31" x="801.17" y="61.54" width="1.85" height="339.12"/><rect class="cls-31" x="857.69" y="61.54" width="1.85" height="339.12"/><rect class="cls-31" x="914.21" y="61.54" width="1.85" height="339.12"/><rect class="cls-31" x="970.73" y="61.54" width="1.85" height="339.12"/><rect class="cls-31" x="1027.25" y="61.54" width="1.85" height="339.12"/><rect class="cls-31" x="745.57" y="117.13" width="339.12" height="1.85"/><rect class="cls-31" x="745.57" y="173.65" width="339.12" height="1.85"/><rect class="cls-31" x="745.57" y="230.17" width="339.12" height="1.85"/><rect class="cls-31" x="745.57" y="286.69" width="339.12" height="1.85"/><rect class="cls-31" x="745.57" y="343.21" width="339.12" height="1.85"/><path class="cls-31" d="M1088.38,404.35H741.88V57.84h346.5ZM749.27,397H1081V65.23H749.27Z"/></g><rect class="cls-32" x="912.24" y="222.51" width="42.95" height="5.54" transform="translate(120.93 737.1) rotate(-45.76)"/><polygon class="cls-32" points="792.38 338.41 790.03 336.93 787.82 335.26 787.93 335.12 840.87 261.98 845.36 265.23 792.38 338.41"/><rect class="cls-32" x="860.52" y="248.61" width="39.99" height="5.54" transform="translate(-20.66 88.97) rotate(-5.72)"/><polygon class="cls-32" points="1000.81 239.02 964.94 211.19 968.34 206.82 1000.37 231.67 1052.73 179.88 1056.62 183.82 1000.81 239.02"/><path class="cls-32" d="M783.85,359.09a13.54,13.54,0,1,1,13.55-13.54A13.55,13.55,0,0,1,783.85,359.09Zm0-21.54a8,8,0,1,0,8,8A8,8,0,0,0,783.85,337.55Z"/><path class="cls-32" d="M850,268.9a13.55,13.55,0,1,1,13.54-13.55A13.57,13.57,0,0,1,850,268.9Zm0-21.55a8,8,0,1,0,8,8A8,8,0,0,0,850,247.35Z"/><path class="cls-32" d="M911.11,261.82a13.55,13.55,0,1,1,13.55-13.55A13.57,13.57,0,0,1,911.11,261.82Zm0-21.55a8,8,0,1,0,8,8A8,8,0,0,0,911.11,240.27Z"/><path class="cls-32" d="M957.37,217a13.55,13.55,0,1,1,13.54-13.55A13.57,13.57,0,0,1,957.37,217Zm0-21.55a8,8,0,1,0,8,8A8,8,0,0,0,957.37,195.49Z"/><path class="cls-32" d="M1062.2,187.73a13.55,13.55,0,1,1,13.55-13.55A13.57,13.57,0,0,1,1062.2,187.73Zm0-21.55a8,8,0,1,0,8,8A8,8,0,0,0,1062.2,166.18Z"/><path class="cls-33" d="M1025.65,284.19a13.55,13.55,0,1,1,13.54-13.55A13.57,13.57,0,0,1,1025.65,284.19Zm0-21.55a8,8,0,1,0,8,8A8,8,0,0,0,1025.65,262.64Z"/><path class="cls-33" d="M962.93,321.47a13.55,13.55,0,1,1,13.55-13.54A13.56,13.56,0,0,1,962.93,321.47Zm0-21.55a8,8,0,1,0,8,8A8,8,0,0,0,962.93,299.92Z"/><path class="cls-33" d="M853.19,380.19a13.55,13.55,0,1,1,13.55-13.54A13.55,13.55,0,0,1,853.19,380.19Zm0-21.55a8,8,0,1,0,8,8A8,8,0,0,0,853.19,358.64Z"/><path class="cls-33" d="M906.1,316.6a13.09,13.09,0,0,1-9.23-3.8,13.73,13.73,0,0,1-4.09-9.75,13.54,13.54,0,0,1,27.08,0h0a13.45,13.45,0,0,1-13.48,13.58Zm.22-21.56a8,8,0,0,0-8,8,8.12,8.12,0,0,0,2.43,5.79,8,8,0,0,0,13.57-5.75h0A8,8,0,0,0,906.32,295Z"/><rect class="cls-33" x="849.06" y="332.1" width="61.28" height="5.54" transform="translate(60.44 798.36) rotate(-50.34)"/><polygon class="cls-33" points="974.08 305.82 971.32 301.01 1016.74 274.96 1019.47 279.78 1018.88 280.12 974.08 305.82"/><rect class="cls-33" x="931.86" y="288.1" width="5.54" height="35.32" transform="translate(533.72 1203.7) rotate(-84.06)"/><polygon class="cls-34" points="779.8 266.85 774.85 264.36 834.34 146.16 890.99 160.49 951.9 134.17 1003.63 146.33 1052.7 96.34 1056.65 100.23 1005.4 152.44 952.41 139.98 891.46 166.33 837.29 152.62 779.8 266.85"/><path class="cls-35" d="M788.1,265.6a10.78,10.78,0,1,1-10.77-10.77A10.77,10.77,0,0,1,788.1,265.6Z"/><path class="cls-34" d="M777.33,279.14a13.54,13.54,0,1,1,13.54-13.54A13.56,13.56,0,0,1,777.33,279.14Zm0-21.54a8,8,0,1,0,8,8A8,8,0,0,0,777.33,257.6Z"/><path class="cls-35" d="M846.59,149.39a10.78,10.78,0,1,1-10.77-10.78A10.77,10.77,0,0,1,846.59,149.39Z"/><path class="cls-34" d="M835.81,162.93a13.55,13.55,0,1,1,13.55-13.54A13.56,13.56,0,0,1,835.81,162.93Zm0-21.55a8,8,0,1,0,8,8A8,8,0,0,0,835.81,141.38Z"/><path class="cls-35" d="M902,163.41a10.78,10.78,0,1,1-10.77-10.77A10.77,10.77,0,0,1,902,163.41Z"/><path class="cls-34" d="M891.23,177a13.55,13.55,0,1,1,13.54-13.54A13.56,13.56,0,0,1,891.23,177Zm0-21.55a8,8,0,1,0,8,8A8,8,0,0,0,891.23,155.4Z"/><path class="cls-35" d="M962.93,137.07a10.78,10.78,0,1,1-10.77-10.77A10.78,10.78,0,0,1,962.93,137.07Z"/><path class="cls-34" d="M952.16,150.62a13.55,13.55,0,1,1,13.54-13.55A13.57,13.57,0,0,1,952.16,150.62Zm0-21.55a8,8,0,1,0,8,8A8,8,0,0,0,952.16,129.07Z"/><path class="cls-35" d="M1015.29,149.39a10.78,10.78,0,1,1-10.78-10.78A10.78,10.78,0,0,1,1015.29,149.39Z"/><path class="cls-34" d="M1004.51,162.93a13.55,13.55,0,1,1,13.55-13.54A13.56,13.56,0,0,1,1004.51,162.93Zm0-21.55a8,8,0,1,0,8,8A8,8,0,0,0,1004.51,141.38Z"/><path class="cls-35" d="M1065.45,99.36a10.78,10.78,0,1,1-10.78-10.77A10.78,10.78,0,0,1,1065.45,99.36Z"/><path class="cls-34" d="M1054.67,112.91a13.55,13.55,0,1,1,13.55-13.55A13.57,13.57,0,0,1,1054.67,112.91Zm0-21.55a8,8,0,1,0,8,8A8,8,0,0,0,1054.67,91.36Z"/><path class="cls-35" d="M1011.37,235.34a10.78,10.78,0,1,1-10.78-10.77A10.78,10.78,0,0,1,1011.37,235.34Z"/><path class="cls-32" d="M1000.59,248.89a13.55,13.55,0,1,1,13.55-13.55A13.56,13.56,0,0,1,1000.59,248.89Zm0-21.55a8,8,0,1,0,8,8A8,8,0,0,0,1000.59,227.34Z"/></g><g class="cls-36"><path class="cls-33" d="M383.82,48.47l11.66,29.46a56.43,56.43,0,0,0-39,51.09l-31.67,1.41A88,88,0,0,1,383.82,48.47Z"/><path class="cls-37" d="M379.75,177.27,356.46,199.2a87.83,87.83,0,0,1-31.64-67.6c0-.39,0-.78,0-1.17L356.51,129c0,.86-.06,1.71-.06,2.58A56.32,56.32,0,0,0,379.75,177.27Z"/><path class="cls-32" d="M398.51,186.16l-5.85,31.15a87.85,87.85,0,0,1-36.2-18.11l23.29-21.93A55.94,55.94,0,0,0,398.51,186.16Z"/><path class="cls-38" d="M463.53,156.4l25.58,19.22a88.23,88.23,0,0,1-96.45,41.69l5.85-31.15a56.5,56.5,0,0,0,65-29.76Z"/><path class="cls-34" d="M490.55,90.2a88.17,88.17,0,0,1-1.44,85.42L463.53,156.4a56.53,56.53,0,0,0-3.71-56Z"/><path class="cls-39" d="M490.55,90.2l-30.73,10.16a56.47,56.47,0,0,0-64.34-22.43L383.82,48.47A88.14,88.14,0,0,1,490.55,90.2Z"/></g></g><g class="cls-40"><rect class="cls-41" x="115.91" y="140.48" width="100.11" height="16.08"/></g><g class="cls-42"><rect class="cls-43" x="115.91" y="170.2" width="142" height="16.08"/></g><g class="cls-44"><rect class="cls-21" x="112.97" y="203.96" width="5.88" height="770.14"/></g><g class="cls-45"><rect class="cls-21" x="530.92" y="203.96" width="5.88" height="770.14"/></g><g class="cls-46"><rect class="cls-21" x="948.87" y="203.96" width="5.88" height="770.14"/></g><g class="cls-47"><rect class="cls-21" x="1366.81" y="203.96" width="5.88" height="770.14"/></g><g class="cls-48"><rect class="cls-21" x="1372.69" y="140.48" width="106.09" height="16.08"/></g><g class="cls-49"><rect class="cls-21" x="1372.69" y="170.2" width="84.89" height="16.08"/></g><g class="cls-50"><rect class="cls-21" x="1784.76" y="203.96" width="5.88" height="770.14"/></g><rect class="cls-21" x="115.91" y="999.19" width="66.49" height="21.43"/><rect class="cls-21" x="533.86" y="992.39" width="66.5" height="21.43"/><rect class="cls-21" x="954.74" y="992.39" width="66.49" height="21.43"/><rect class="cls-21" x="1372.69" y="992.39" width="66.5" height="21.43"/><rect class="cls-21" x="1790.64" y="999.19" width="66.49" height="21.43"/><g class="cls-51"><path class="cls-21" d="M860.38,765.63c-96.23,0-172.54-64.71-247.26-128-56.65-48-115.43-97.14-183.28-121.37-207-73.92-313,61.07-313.93,62.25V537.4c1.12-1.4,20-25.94,74.68-49.37,49.77-21.32,133.28-38.34,248.46,1.72,73,25.39,133.58,76.77,192.19,126.46C750.13,717,852.8,804.06,1031.12,667.7,1166.18,564.43,1293.49,466,1418.76,430.06c122.52-35.17,250.26-9.43,369.82,110.14l-.88,37.29c-254-255.1-470.24-93.48-739.56,112.47C976.8,744.51,915.33,765.63,860.38,765.63Z"/></g><g class="cls-52"><path class="cls-21" d="M1642.86,753.75c-130.36,0-243.68-56.36-361.82-115.11-145.84-72.52-296.65-147.51-497.59-127C655.14,524.77,574.6,577,503.55,623.13,439.21,664.87,378.39,701.58,296,704.71,162.87,709.78,116.68,653,115.91,649.53V613.09h0c.16.63,29.23,64.36,180,63.61,74.23-.37,129-35.92,192.44-77.07,73.72-47.83,157.27-102,292.3-115.84,209-21.36,363.5,55.47,512.92,129.77,156.34,77.75,305.53,150.65,494.18,87.4v30C1733.93,749,1690.92,753.74,1642.86,753.75Z"/></g><rect class="cls-53" x="643.41" y="837.81" width="99.47" height="302.12" transform="translate(1386.29 1977.73) rotate(180)"/><rect class="cls-54" x="263.69" y="377.42" width="858.92" height="605.92" rx="58.83" transform="translate(1386.29 1360.76) rotate(180)"/><rect class="cls-55" x="469.4" y="1128.52" width="447.5" height="22.81"/><path class="cls-56" d="M1117.49,757.72c13.48-6.44,26.89,36.46,26.89,36.46,22.9,30.27,54.92-10,51.79,35.25-5.48,79.17,91.13,24.89,46.56,107.55s39.35,46.74,11.65,113.39,8.21,146.15-33.47,113.48c0,0-36.7-80.47-74.54-105.37s22.67-54.43,10.83-88.25c-17.2-49.12-58.63-47.19-28.76-100S1071.68,779.63,1117.49,757.72Z"/><path class="cls-57" d="M1234.11,1133.57c-18.07-12.71-39.21-101.24-40.47-154-.65-27-8.63-38.26-15.68-48.19-6.73-9.49-12.55-17.69-9.16-36.51,6.48-36-10.55-51.49-10.72-51.64l2-2.25c.76.66,18.49,16.68,11.69,54.42-3.16,17.59,2.06,24.94,8.66,34.25,6.93,9.77,15.56,21.93,16.23,49.85,1.35,56.6,23,140.19,39.2,151.6Z"/><path class="cls-58" d="M1240.87,1140.13a38.67,38.67,0,0,1-7.64-.83c-7-1.4-11.53-5.08-13.57-10.92-4.87-13.92,6.41-36.55,15.57-47.45.15-.19,15.48-18.92,13.85-44.88-.28-4.36-.73-8.38-1.13-11.94-1.15-10.27-2-17.7,2.43-22.66,3.89-4.37,11.4-6.26,25.11-6.32,24-.12,33.55-10.07,41.19-18.07,3.24-3.4,6.3-6.6,10-8.64h0c12-6.54,24.67-7.5,30.17-2.28,2.62,2.47,4.82,7.33.49,16.38-3.95,8.27-9.09,13.51-13.21,17.72-5.55,5.66-9.22,9.4-7.31,16.86.45,1.75,1,3.51,1.49,5.29,3.7,12.67,7.9,27-13.79,36.79-4.61,2.07-8.8,3.72-12.5,5.17-15.15,5.94-24.29,9.53-34.61,31.32-2,4.21-3.76,8.21-5.47,12.07C1263.84,1126.18,1257.68,1140.13,1240.87,1140.13Zm87.27-169.08c-3.32,1.8-6.09,4.71-9.3,8.07-8,8.41-18,18.87-43.34,19-12.6.06-19.66,1.7-22.89,5.33-3.52,4-2.75,10.83-1.69,20.34.4,3.59.86,7.65,1.14,12.08,1.71,27.19-13.87,46.19-14.54,47-9.06,10.79-19.33,32.27-15,44.55,1.67,4.77,5.48,7.79,11.34,9,20.43,4.13,26.07-8.65,35.42-29.83,1.71-3.88,3.48-7.9,5.5-12.15,10.83-22.86,20.93-26.82,36.22-32.82,3.66-1.44,7.82-3.07,12.36-5.11,19.32-8.69,15.84-20.61,12.15-33.23-.53-1.81-1.06-3.61-1.51-5.39-2.33-9.09,2.26-13.77,8.06-19.69,4.18-4.26,8.91-9.09,12.66-16.92,2-4.1,3.58-9.67.15-12.92-4.52-4.28-16-3.11-26.69,2.74Z"/><path class="cls-21" d="M1233.55,1157.38l-3-.16c.15-2.8,3.91-68.87,30.44-88.21,29.1-21.21,38.28-44,42.65-59.32,5.15-18,31.36-22.85,32.47-23l.52,2.94c-.25,0-25.48,4.69-30.12,20.92-4.49,15.73-13.91,39.16-43.76,60.91C1237.38,1089.93,1233.59,1156.71,1233.55,1157.38Z"/><path class="cls-59" d="M1294.21,824.4c-18.86-6.47-14.94,29.88-22.91,56.76s-88.63,11.74-54.77,79.07-42.83,22.52-19.92,81.28,2,121.6,26.89,105.61,14-90,39.88-98.77,30.12-19,4.48-42.95,67.18-47.63,44.27-95.89S1316,831.87,1294.21,824.4Z"/><path class="cls-57" d="M1235.05,1144.31c-2.37-10.06-22.62-98.58-3.73-109.28,16.66-9.43,16.25-46.12,13.65-80.76-2.3-30.66,37.08-45,38.76-45.58l1,2.81c-.39.14-38.91,14.17-36.78,42.55,2.67,35.57,3,73.32-15.15,83.58-14.35,8.12-1.14,79.26,5.16,106Z"/><polygon class="cls-60" points="1277.91 1112.79 1250.99 1214.92 1190.83 1214.92 1163.91 1112.79 1277.91 1112.79"/><path class="cls-61" d="M1277.91,1112.78s-59.26,11.13-59.26,102.14h-27.82l-26.92-102.14Z"/><rect class="cls-21" x="297.33" y="312.93" width="791.64" height="575.46"/><rect class="cls-62" x="297.33" y="312.93" width="791.64" height="64.67"/><path class="cls-63" d="M401.63,341.44H1089a0,0,0,0,1,0,0V384a0,0,0,0,1,0,0H417a15.41,15.41,0,0,1-15.41-15.41V341.44A0,0,0,0,1,401.63,341.44Z"/><path class="cls-21" d="M844.29,374.44H428.6a13,13,0,0,1-13-13h0a13,13,0,0,1,13-13H844.29a13,13,0,0,1,13,13h0A13,13,0,0,1,844.29,374.44Z"/><path class="cls-21" d="M1062.23,374.44H893.16a13,13,0,0,1-13-13h0a13,13,0,0,1,13-13h169.07a13,13,0,0,1,13,13h0A13,13,0,0,1,1062.23,374.44Z"/><polygon class="cls-64" points="345.07 366.57 343.29 364.79 350.92 357.15 342.85 349.09 344.64 347.3 354.49 357.15 345.07 366.57"/><polygon class="cls-64" points="323.63 366.57 313.78 356.72 323.19 347.3 324.98 349.09 317.35 356.72 325.42 364.79 323.63 366.57"/><path class="cls-64" d="M391.73,360.21l-4-6.49-5.43,5.57,1.47,1.42,2.46-2.53a9.61,9.61,0,1,1-9.49-10.88v-2a11.68,11.68,0,1,0,11.51,13.17l1.78,2.85Z"/><path class="cls-64" d="M1029.48,319H1089a0,0,0,0,1,0,0v23.43a0,0,0,0,1,0,0h-59.49a11.71,11.71,0,0,1-11.71-11.71v0A11.71,11.71,0,0,1,1029.48,319Z"/><path class="cls-65" d="M1043.74,330.7a6.27,6.27,0,1,1-6.27-6.27A6.27,6.27,0,0,1,1043.74,330.7Z"/><path class="cls-65" d="M1059.5,330.7a6.27,6.27,0,1,1-6.27-6.27A6.26,6.26,0,0,1,1059.5,330.7Z"/><path class="cls-66" d="M1075.26,330.7a6.27,6.27,0,1,1-6.26-6.27A6.26,6.26,0,0,1,1075.26,330.7Z"/><path class="cls-67" d="M297.33,312.93h710.42a0,0,0,0,1,0,0v1.35A22.69,22.69,0,0,1,985.06,337H320a22.69,22.69,0,0,1-22.69-22.69v-1.35a0,0,0,0,1,0,0Z"/><rect class="cls-68" x="716.33" y="439.55" width="166.11" height="16.42"/><rect class="cls-68" x="716.33" y="469.12" width="298.43" height="16.42"/><rect class="cls-69" x="693.02" y="439.55" width="12" height="45.99"/><rect class="cls-68" x="716.33" y="539.78" width="212.35" height="16.42"/><rect class="cls-68" x="716.33" y="569.35" width="259.31" height="16.42"/><rect class="cls-70" x="693.02" y="539.78" width="12" height="45.99"/><rect class="cls-68" x="716.33" y="633.5" width="124.08" height="16.42"/><rect class="cls-68" x="716.33" y="663.07" width="289" height="16.42"/><rect class="cls-70" x="693.02" y="633.5" width="12" height="45.99"/><rect class="cls-71" x="377.42" y="826.66" width="32.48" height="4"/><rect class="cls-71" x="369.54" y="819.53" width="48.24" height="4"/><path class="cls-72" d="M402.12,764.6a8.39,8.39,0,1,1-8.39-8.38A8.38,8.38,0,0,1,402.12,764.6Z"/><path class="cls-73" d="M408.86,791.94v15.95a36.86,36.86,0,0,1-30.4,0V791.94a15.2,15.2,0,1,1,30.4,0Z"/><path class="cls-74" d="M393.66,812.17a37.49,37.49,0,0,1-15.61-3.37,37.78,37.78,0,1,1,31.22,0A37.49,37.49,0,0,1,393.66,812.17Zm0-73.56A35.79,35.79,0,0,0,378.87,807a35.88,35.88,0,0,0,29.58,0,35.78,35.78,0,0,0-14.79-68.37Z"/><rect class="cls-71" x="486.21" y="826.66" width="32.48" height="4"/><rect class="cls-71" x="478.33" y="819.53" width="48.24" height="4"/><path class="cls-75" d="M510.91,764.6a8.39,8.39,0,1,1-8.39-8.38A8.39,8.39,0,0,1,510.91,764.6Z"/><path class="cls-76" d="M517.65,791.94v15.95a36.86,36.86,0,0,1-30.4,0V791.94a15.2,15.2,0,1,1,30.4,0Z"/><path class="cls-77" d="M502.45,812.17a37.75,37.75,0,1,1,15.61-3.37A37.54,37.54,0,0,1,502.45,812.17Zm0-73.56A35.78,35.78,0,0,0,487.66,807a35.86,35.86,0,0,0,29.57,0,35.78,35.78,0,0,0-14.78-68.37Z"/><rect class="cls-71" x="594.99" y="826.66" width="32.48" height="4"/><rect class="cls-71" x="587.11" y="819.53" width="48.24" height="4"/><path class="cls-78" d="M619.69,764.6a8.39,8.39,0,1,1-8.39-8.38A8.38,8.38,0,0,1,619.69,764.6Z"/><path class="cls-79" d="M626.43,791.94v15.95a36.86,36.86,0,0,1-30.4,0V791.94a15.2,15.2,0,1,1,30.4,0Z"/><path class="cls-80" d="M611.23,812.17a37.49,37.49,0,0,1-15.61-3.37,37.78,37.78,0,1,1,31.22,0A37.49,37.49,0,0,1,611.23,812.17Zm0-73.56A35.79,35.79,0,0,0,596.44,807,35.88,35.88,0,0,0,626,807a35.79,35.79,0,0,0-14.79-68.37Z"/><rect class="cls-71" x="703.78" y="826.66" width="32.48" height="4"/><rect class="cls-71" x="695.9" y="819.53" width="48.24" height="4"/><path class="cls-81" d="M728.48,764.6a8.39,8.39,0,1,1-8.39-8.38A8.39,8.39,0,0,1,728.48,764.6Z"/><path class="cls-82" d="M735.22,791.94v15.95a36.88,36.88,0,0,1-30.41,0V791.94a15.21,15.21,0,0,1,30.41,0Z"/><path class="cls-83" d="M720,812.17a37.75,37.75,0,1,1,15.61-3.37A37.54,37.54,0,0,1,720,812.17Zm0-73.56A35.78,35.78,0,0,0,705.23,807a35.86,35.86,0,0,0,29.57,0A35.78,35.78,0,0,0,720,738.61Z"/><rect class="cls-84" x="392.17" y="843.6" width="2.99" height="12.56"/><rect class="cls-84" x="392.17" y="843.6" width="2.99" height="12.56" transform="translate(1243.55 456.23) rotate(90)"/><rect class="cls-84" x="501.03" y="843.6" width="2.99" height="12.56"/><rect class="cls-84" x="501.03" y="843.6" width="2.99" height="12.56" transform="translate(1352.41 347.37) rotate(90)"/><rect class="cls-84" x="609.88" y="843.6" width="2.99" height="12.56"/><rect class="cls-84" x="609.88" y="843.6" width="2.99" height="12.56" transform="translate(1461.26 238.51) rotate(90)"/><rect class="cls-84" x="718.74" y="843.6" width="2.99" height="12.56"/><rect class="cls-84" x="718.74" y="843.6" width="2.99" height="12.56" transform="translate(1570.12 129.65) rotate(90)"/><g class="cls-29"><path class="cls-21" d="M1733.88,508.2l-27.66-45.29a7.88,7.88,0,0,1,13.45-8.21l19.56,32,52-30.78a7.88,7.88,0,1,1,8,13.56Z"/><path class="cls-21" d="M1752.46,578a99.48,99.48,0,1,1,99.48-99.48A99.6,99.6,0,0,1,1752.46,578Zm0-184.75a85.27,85.27,0,1,0,85.27,85.27A85.37,85.37,0,0,0,1752.46,393.27Z"/></g><g class="cls-85"><path class="cls-21" d="M1528.33,363.57a60,60,0,0,1,.58-8.53,30.34,30.34,0,0,1,2.23-7.85,24.8,24.8,0,0,1,4.75-7.08,31.69,31.69,0,0,1,8.14-6l6.7-3.59a68.27,68.27,0,0,0,8.14-5.14,33.87,33.87,0,0,0,6.88-6.69,13.48,13.48,0,0,0,2.91-8.43,11.91,11.91,0,0,0-4.65-10,17,17,0,0,0-10.67-3.59,15.57,15.57,0,0,0-6.88,1.46,25.61,25.61,0,0,0-5.43,3.49,23,23,0,0,0-4.17,4.56c-1.16,1.68-2.2,3.17-3.1,4.46l-20-14a38.71,38.71,0,0,1,16-18.42,47.07,47.07,0,0,1,24.73-6.59,52.8,52.8,0,0,1,14.73,2.13,37.87,37.87,0,0,1,13.19,6.79,35.38,35.38,0,0,1,9.5,12q3.67,7.38,3.68,17.84,0,11.06-4.55,18.52a41,41,0,0,1-13.48,13.09,82.06,82.06,0,0,1-8.24,4.85,75.39,75.39,0,0,0-7.66,4.46,21.83,21.83,0,0,0-5.62,5.23,11.44,11.44,0,0,0-2.14,7Zm.58,47.51V382h25.4v29.09Z"/></g><g class="cls-86"><rect class="cls-87" x="1166.48" y="411.44" width="233.14" height="298.45" rx="23.57" transform="translate(2566.1 1121.32) rotate(180)"/><rect class="cls-21" x="1311.82" y="436.22" width="59.96" height="6.84" transform="translate(2683.6 879.27) rotate(180)"/><rect class="cls-21" x="1327.76" y="451.24" width="44.03" height="6.84" transform="translate(2699.54 909.31) rotate(180)"/><rect class="cls-21" x="1263.54" y="466.26" width="108.24" height="6.84" transform="translate(2635.32 939.35) rotate(180)"/><rect class="cls-21" x="1193.98" y="509.46" width="74.27" height="6.84"/><rect class="cls-21" x="1193.98" y="524.48" width="100.57" height="6.84"/><rect class="cls-21" x="1193.98" y="539.5" width="134.07" height="6.84"/><rect class="cls-21" x="1193.98" y="582.73" width="81.79" height="6.84"/><rect class="cls-21" x="1193.98" y="597.75" width="113.16" height="6.84"/><rect class="cls-21" x="1193.98" y="612.77" width="108.68" height="6.84"/></g><path class="cls-88" d="M954.23,734.74H924.92s-4.22,39.94-11.87,44.69c0,0-9.44,47.17,26.53,47.17,43.52,0,26.52-47.17,26.52-47.17C958.46,774.68,954.23,734.74,954.23,734.74Z"/><path class="cls-89" d="M977.69,742.56c-4.06-4.67-8.93,2.43-8.93,2.43s6.7-26.4,0-38-28.44-5.49-28.44-5.49-21.74-6.09-28.44,5.49,0,38,0,38-4.88-7.1-8.94-2.43,6.7,16.45,9.14,17.87c0,0,15.64,29.26,28.24,29.26s28.23-29.26,28.23-29.26C971,759,981.76,747.23,977.69,742.56Z"/><path class="cls-90" d="M934.85,712s-16.46,2.9-18.28,11.74c-.89,4.29.09,8.94.87,13.17.42,2.24,2,14.27,1.41,14.56a2.54,2.54,0,0,1-2.13-.37c-2.23-1.76-4-4.4-5.56-6.72-3.13-4.57-7.62-3.81-8.92-.91,0,0-3.65-43.35,14.48-44.87S934.85,712,934.85,712Z"/><path class="cls-90" d="M945.56,712s16.45,2.9,18.28,11.74c.89,4.29-.09,8.94-.88,13.17-.42,2.24-2,14.27-1.4,14.56a2.54,2.54,0,0,0,2.13-.37c2.23-1.76,4-4.4,5.56-6.72,3.13-4.57,7.62-3.81,8.91-.91,0,0,3.66-43.35-14.47-44.87S945.56,712,945.56,712Z"/><path class="cls-90" d="M969.74,701.14s.39-7.13-7.73-11.55-24.27-6.4-37.06,0-16.69,7.84-20.42,5.71-1.37-4.26-1.37-4.26-8.38-.08-8,12.92,16.4,29.15,37.28,29.15C964.35,733.11,974.67,710.82,969.74,701.14Z"/><path class="cls-91" d="M966.1,779.43c-1.54,40.11-26.53,36-26.53,36s-25,4.14-26.52-36c0,0-39.91,11-59.37,24.07a385.55,385.55,0,0,1,8.81,73.92l22.82,88.36,54.26,2.69,54.26-2.69,22.82-88.36a385.55,385.55,0,0,1,8.81-73.92C1006,790.46,966.1,779.43,966.1,779.43Z"/><path class="cls-92" d="M1012.72,826.68c-24.81,13.22-36.86,43.63-61,58.54-24.92,15.42-42.56-15.74-54.68-31.94-10.46-14-23.72-25.21-39.9-31.75a377.1,377.1,0,0,1,5.31,55.89l22.82,88.36,54.26,2.69,54.27-2.69,22.81-88.36a377.55,377.55,0,0,1,5.17-55C1018.67,823.75,1015.59,825.14,1012.72,826.68Z"/><path class="cls-93" d="M1040.19,1001.57c0-31-38.46-51.41-38.46-51.41H872.5S834,970.56,834,1001.57c0,5,1.17,13.45,3.1,23.94h42.93c-1.74,3.15-3.32,6.09-4.58,8.57-.38.76-.81,1.42-1.21,2.14h31.23c2.35,0,6.81,1,6.15-2.49-.94-4.93-4-7.73-1-12.91,2.35-4.06,8.67-7.38,13.31-7.48,1,0,2,0,3,0q10.13.24,20.25,0c2.87-.06,4.78.79,7.53,1.25,2.19.36,5.06.38,6.29,2.58,1.49,2.64,1.72,6.78,2.26,9.72.16.89-.43,9.33-.72,9.33h43.79a112.93,112.93,0,0,1-7.5-10.71h38.19C1039,1015,1040.19,1006.61,1040.19,1001.57Z"/><path class="cls-94" d="M1040.19,1001.57c0-31-38.46-51.41-38.46-51.41H872.5S834,970.56,834,1001.57c0,5,1.17,13.45,3.1,23.94h42.93c-1.74,3.15-3.32,6.09-4.58,8.57-.38.76-.81,1.42-1.21,2.14h37.35c1,0-1.52-5.38-1.75-5.87a9.69,9.69,0,0,1-.64-6.44c.52-2.12,2.65-4.38,4.27-5.75,6.12-5.15,14.61-5.35,22.21-5.13,7.43.21,15.61-.82,22.08,3.53a13.42,13.42,0,0,1,3.32,2.84c4.48,5.56,2.13,10.65,1.48,16.82h43.79a112.93,112.93,0,0,1-7.5-10.71h38.19C1039,1015,1040.19,1006.61,1040.19,1001.57Z"/><path class="cls-91" d="M853.68,803.5s-49.35,106.65-45.76,120.85c.89,3.55,60.92,39.8,89.18,34.6l11.5-2.12S866.66,802.74,853.68,803.5Z"/><path class="cls-91" d="M1025.36,803.5s49.36,106.65,45.77,120.85c-.9,3.55-60.93,39.8-89.19,34.6l-11.5-2.12S1012.39,802.74,1025.36,803.5Z"/><path class="cls-92" d="M872.92,840.81A74.72,74.72,0,0,1,871,856.38c-4.37,19.27-11.24,39.39-4,59,5.45,14.81,14.2,29.85,22.27,44.06a35.81,35.81,0,0,0,7.82-.45l11.5-2.12S889.37,886.19,872.92,840.81Z"/><path class="cls-92" d="M998.38,958.4a69.39,69.39,0,0,0,5.47-28.41c-.67-19.7-.78-39.39-.46-59.1.14-8.51.36-16.76.86-24.83-16,45.37-33.81,110.77-33.81,110.77l11.5,2.12C986.67,959.82,992.3,959.51,998.38,958.4Z"/><path class="cls-90" d="M890.32,1186.15s-31.31,37.25-35,45.18,5.29,17.89,17.48,13.82,19.32-12.4,19.52-17.68,6.71-8.11,9.55-8.53,19.11-18.92,17.49-24-9.79-10.65-9.79-10.65Z"/><path class="cls-90" d="M983.91,1186.15s31.31,37.25,35,45.18-5.29,17.89-17.49,13.82-19.31-12.4-19.51-17.68-6.71-8.11-9.56-8.53-19.11-18.92-17.48-24,9.79-10.65,9.79-10.65Z"/><rect class="cls-91" x="815.22" y="1030.75" width="10.21" height="215.34"/><rect class="cls-91" x="1051.04" y="1030.75" width="10.21" height="215.34"/><rect class="cls-90" x="795.19" y="1013.4" width="279.31" height="27.59"/><path class="cls-93" d="M901.28,999.94c-3.73-8.87-4.49-27.63-29.6-27.63-48.36,0-37,38.75-36.29,44.54,7.32,57.7,42.41,172.81,42.41,172.81h48.43s-17.61-141-20.33-162.8C905.53,1023.87,903.84,1006,901.28,999.94Z"/><path class="cls-93" d="M973.06,999.94c3.72-8.87,4.48-27.63,29.59-27.63,48.39,0,37,38.75,36.29,44.54-7.32,57.7-42.41,172.81-42.41,172.81H948.1s17.61-141,20.33-162.8C968.8,1023.87,970.49,1006,973.06,999.94Z"/><rect class="cls-90" x="868.47" y="958.05" width="142.22" height="8.43"/><path class="cls-90" d="M1031.6,859.45h-184s-9.93,0-8.23,11.08,24.9,88.61,29.58,88.61h141.35c4.12,0,27.88-77.52,29.58-88.61S1031.6,859.45,1031.6,859.45Z"/><path class="cls-21" d="M947.19,913.12a7.62,7.62,0,1,1-7.61-7.62A7.61,7.61,0,0,1,947.19,913.12Z"/><path class="cls-95" d="M420.41,290.94v22.13H779.14V290.94c0-30.34-19.68-54.93-50-54.93H378.52C405.78,239.23,420.41,262.81,420.41,290.94Z"/><path class="cls-96" d="M420.41,290.94v22.13H694.88V290.94c0-27.57,6.37-46.87,34.25-54.93-1.63-.14-3.26,0-4.92,0h-330A54.86,54.86,0,0,0,384,237C407.73,242.53,420.41,264.76,420.41,290.94Z"/><polygon class="cls-97" points="298.38 354.82 316.66 707.86 696.48 707.86 710.94 354.82 298.38 354.82"/><path class="cls-21" d="M729.15,236H383.46a54.93,54.93,0,0,0-54.93,54.93V707.86H687.26V290.94C687.26,262.81,701.89,239.23,729.15,236Z"/><g class="cls-98"><path d="M328.53,623.67v84.19H481.74C432,702,341,678.28,328.53,623.67Z"/><path d="M532.52,707.86H687.26V603.33C670,687.3,581.72,702.1,532.52,707.86Z"/></g><circle class="cls-99" cx="398.77" cy="623.67" r="34.94"/><text/><path class="cls-95" d="M472.23,371.35H631.11a6.13,6.13,0,0,0,0-12.25H472.23a6.13,6.13,0,1,0,0,12.25Z"/><path class="cls-95" d="M631.11,412H472.23a6.12,6.12,0,1,0,0,12.24H631.11a6.12,6.12,0,1,0,0-12.24Z"/><path class="cls-95" d="M472.23,397.82H594.4a6.13,6.13,0,1,0,0-12.25H472.23a6.13,6.13,0,1,0,0,12.25Z"/><path class="cls-96" d="M631.11,501.56H472.23a6.13,6.13,0,1,0,0,12.25H631.11a6.13,6.13,0,0,0,0-12.25Z"/><path class="cls-96" d="M472.23,540.27H594.4a6.12,6.12,0,1,0,0-12.24H472.23a6.12,6.12,0,1,0,0,12.24Z"/><path class="cls-96" d="M472.23,487.34H594.4a6.13,6.13,0,1,0,0-12.25H472.23a6.13,6.13,0,1,0,0,12.25Z"/><path class="cls-95" d="M631.11,617.55H472.23a6.12,6.12,0,1,0,0,12.24H631.11a6.12,6.12,0,0,0,0-12.24Z"/><path class="cls-95" d="M472.23,656.26H594.4a6.13,6.13,0,1,0,0-12.25H472.23a6.13,6.13,0,1,0,0,12.25Z"/><path class="cls-95" d="M472.23,603.33H594.4a6.13,6.13,0,1,0,0-12.25H472.23a6.13,6.13,0,1,0,0,12.25Z"/><path class="cls-100" d="M438.18,268H419.49v-3.32h41.83V268H442.55v43.07h-4.37Z"/><path class="cls-100" d="M502.27,288.28H473.88v19.49H505l-.64,3.31H469.59V264.69H503.7V268H473.88v17h28.39Z"/><path class="cls-100" d="M516.82,298.62c1.67,6.16,6.6,9.81,15.74,9.81,10.18,0,14.08-4.24,14.08-9.28,0-5.23-2.79-8.48-15-11-11.77-2.45-16.86-5.63-16.86-12.32,0-6.1,5.33-11.8,17.26-11.8,12.24,0,17.41,6.23,18.12,11.86h-4.45c-1.27-5-5.17-8.55-13.91-8.55-8,0-12.41,3.12-12.41,8.29s3.66,7.09,13.92,9.21c15.66,3.25,18,8.48,18,14.05,0,6.82-6,12.72-18.85,12.72-13.91,0-19-6.76-20-13Z"/><path class="cls-100" d="M574.47,268H555.78v-3.32h41.83V268H578.84v43.07h-4.37Z"/><path class="cls-101" d="M427.05,363.42,392.49,398l-12.81-12.82-8,8L388.43,410a5.81,5.81,0,0,0,8.13,0l38.53-38.53Z"/><path class="cls-99" d="M418,362.52a35.17,35.17,0,1,0,14.79,21.23"/><path class="cls-101" d="M427.05,479.41,392.49,514l-12.81-12.81-8,8L388.43,526a5.81,5.81,0,0,0,8.13,0l38.53-38.53Z"/><path class="cls-99" d="M418,478.51a35.17,35.17,0,1,0,14.79,21.23"/><path class="cls-102" d="M1474,750.86h260.44a0,0,0,0,1,0,0V852a0,0,0,0,1,0,0H1474a32,32,0,0,1-32-32V782.86A32,32,0,0,1,1474,750.86Z"/><path class="cls-103" d="M1781.24,761.27v80.32H1786V852H1587.55a19,19,0,0,1-19-19v-63.2a19,19,0,0,1,19-19H1786v10.41Z"/><path class="cls-21" d="M1614.76,761.27h166.48a0,0,0,0,1,0,0v80.32a0,0,0,0,1,0,0H1614.76a31.6,31.6,0,0,1-31.6-31.6V792.87A31.6,31.6,0,0,1,1614.76,761.27Z"/><rect class="cls-104" x="1672.27" y="801.02" width="77.18" height="1.99"/><rect class="cls-104" x="1636.09" y="807.07" width="82.42" height="1.99"/><path class="cls-105" d="M1470.17,673.08h259.21a0,0,0,0,1,0,0v78.08a0,0,0,0,1,0,0H1470.17a33.23,33.23,0,0,1-33.23-33.23V706.31A33.23,33.23,0,0,1,1470.17,673.08Z" transform="translate(3166.32 1424.24) rotate(180)"/><path class="cls-106" d="M1390.13,681.12v62h-4.78v8h197.74a19.7,19.7,0,0,0,19.7-19.7V692.78a19.7,19.7,0,0,0-19.7-19.7H1385.35v8Z"/><path class="cls-21" d="M1421.14,681.11h170.68a0,0,0,0,1,0,0v62a0,0,0,0,1,0,0H1421.14a31,31,0,0,1-31-31v0A31,31,0,0,1,1421.14,681.11Z" transform="translate(2981.96 1424.24) rotate(-180)"/><rect class="cls-107" x="1421.92" y="711.81" width="77.18" height="1.53" transform="translate(2921.02 1425.15) rotate(180)"/><rect class="cls-107" x="1452.86" y="716.47" width="82.42" height="1.53" transform="translate(2988.14 1434.48) rotate(180)"/><path class="cls-108" d="M1498.18,619h306.26a0,0,0,0,1,0,0v54.09a0,0,0,0,1,0,0H1498.18a20.73,20.73,0,0,1-20.73-20.73V639.71A20.73,20.73,0,0,1,1498.18,619Z"/><path class="cls-103" d="M1851.25,624.55v43H1856v5.57H1650.45a11.87,11.87,0,0,1-11.87-11.86V630.85A11.87,11.87,0,0,1,1650.45,619H1856v5.56Z"/><path class="cls-21" d="M1668.14,624.55h183.1a0,0,0,0,1,0,0v43a0,0,0,0,1,0,0h-183.1a20,20,0,0,1-20-20v-2.94A20,20,0,0,1,1668.14,624.55Z"/><rect class="cls-104" x="1742.28" y="633.72" width="77.18" height="1.53"/><rect class="cls-104" x="1706.1" y="649.05" width="82.42" height="1.06"/><path class="cls-109" d="M1470,564.89h218.39a0,0,0,0,1,0,0V619a0,0,0,0,1,0,0H1470a19.48,19.48,0,0,1-19.48-19.48V584.37A19.48,19.48,0,0,1,1470,564.89Z"/><path class="cls-106" d="M1722.43,570.46v43h3.48V619h-146.3a11.88,11.88,0,0,1-11.88-11.88V576.77a11.88,11.88,0,0,1,11.88-11.88h146.3v5.57Z"/><path class="cls-21" d="M1591.44,570.46h131a0,0,0,0,1,0,0v43a0,0,0,0,1,0,0h-131a16.76,16.76,0,0,1-16.76-16.76v-9.44A16.76,16.76,0,0,1,1591.44,570.46Z"/><rect class="cls-107" x="1643.16" y="579.63" width="56.15" height="1.53"/><rect class="cls-107" x="1616.84" y="594.95" width="59.95" height="1.06"/><path class="cls-110" d="M1718.61,658.49s8,13.51,11.33,15.71c4.57,3,1.71,6-.46,6s-13.25.79-15.69-2-3.65-11.07-5.92-13.24-4.61-10.8,1.11-12.89C1714,650.26,1718.61,658.49,1718.61,658.49Z"/><path class="cls-111" d="M1715.16,652.55s9.12,15.82,10.7,18.15-3,2.34-5.77,1.23-9.88-12.46-10.9-14.52a7.61,7.61,0,0,1-.21-5.29Z"/><polygon class="cls-110" points="1705.91 661.06 1708.02 677.28 1709.13 677.33 1708.79 665.66 1705.91 661.06"/><path class="cls-110" d="M1639.59,658.49s8,13.51,11.33,15.71c4.57,3,1.71,6-.46,6s-13.25.79-15.69-2-3.65-11.07-5.92-13.24-4.69-11,1.11-12.89C1635,650.47,1639.59,658.49,1639.59,658.49Z"/><path class="cls-111" d="M1636.62,652.58s8.64,15.79,10.22,18.12-3,2.34-5.77,1.23-9.88-12.46-10.9-14.52a7.61,7.61,0,0,1-.21-5.29Z"/><polygon class="cls-110" points="1626.89 661.06 1629 677.28 1630.12 677.33 1629.77 665.66 1626.89 661.06"/><path class="cls-111" d="M1709,652.11s-20.87-44.25-23.69-72.15a13.48,13.48,0,0,0-1.42-4.92,14.17,14.17,0,0,0-7.53-6.63l-72.1-32.85s15.72-12,46.3-11.22c0,0,40.71,16.61,50.6,24.64,1.34,1.08,2.11,2,2.15,2.71,0,1,.29,4.3.68,9,1.83,22.44,7,78.26,11.19,91.81C1715.16,652.55,1715.67,655.39,1709,652.11Z"/><path class="cls-111" d="M1590.64,549.66c2.24,19.5,30.06,17.26,30.06,17.26h33.72s-8.86,19.71-12.28,36.34c-3.63,17.64-12.18,48.86-12.18,48.86s.56,1.06,6.66.46c0,0,26.47-52.75,36.6-66,2.18-2.85,8.43-18.34,9.5-27.58.36-3.11.14-5.52-1-6.49a84.53,84.53,0,0,0-7.44-5.09c-10.57-6.66-28.91-16.91-39.13-19.21-13.69-3.07-35.34-8.84-35.34-8.84S1588.41,530.17,1590.64,549.66Z"/><path class="cls-110" d="M1650.9,566.92h-30.2s-27.82,2.24-30.06-17.26,9.15-30.31,9.15-30.31,14.7,3.91,27.53,7a99.66,99.66,0,0,1,23.21-2s49.52,5,52.77,27.48C1703.3,551.82,1680.54,539.61,1650.9,566.92Z"/><path class="cls-112" d="M1628.84,368.57s-13.17-2.05-18.71,8.28.32,16.65-1.83,20.21-10,8.41-8.91,14,9.78,11.9,7.6,16.87-3.65,8.23-3.47,8.63,53.31,9.55,53.31,9.55-3.89-7.45-7.2-10.48-6.85-4-2.75-14.71,7.62-15.8,5.9-23.84-1.09-15.44-9.09-22.59A23.61,23.61,0,0,0,1628.84,368.57Z"/><path class="cls-113" d="M1599.79,519.35c4.6,6.47,20.54,7.65,33.41,7.22h0c2.65-.09,5.17-.25,7.43-.45,7.9,7.87,7.34,6.69,8.57,8.13.87,1,8.27-4.63,9.46-5.52.55-.42,1.14,1.69-6.68-7.61l-.33-.4c.32-4.22.29-11.05.64-15.8a18.38,18.38,0,0,1,.73-4.65c1.56-3.91,2.9-12.83,2.9-12.83a48.63,48.63,0,0,0,6.38-12.5,42.62,42.62,0,0,1,4.19,6.85c.69,1.37,1.4,2.8,2.1,4.25h0c3.42,7.1,6.72,14.63,7.77,17.28,5.88,14.9,14.41,33.32,14.41,33.32s8.81-.87,8.25-1-11.08-30.44-15.35-40.37c-.84-2-15.08-46.29-23.06-55.17-8.61-9.56-26.78-15.14-26.78-15.14l-19.68-.74s-15.09,2.1-21.12,11.82c-5.45,8.82.42,27,16.85,53.71-2,8.26-5.33,15.57-5.64,17.61C1602.66,517.46,1599.79,519.35,1599.79,519.35Zm10.81-51.57c-.92-1.25-1.51-2.06-1.65-2.24l0,0h0a6.34,6.34,0,0,1,1.17,1.39A8.51,8.51,0,0,1,1610.6,467.78Z"/><path class="cls-114" d="M1614.15,406c3.87,10.69,0,18.28,0,18.28.74,6.55,19.12,25.7,20.8,23.58,1.35-1.71-.2-15.5-.86-20.79-.15-1.27-.26-2-.26-2a9.85,9.85,0,0,1,.16-2.57h0a13.62,13.62,0,0,1,1-3.11s-15.51-15.1-20-16C1613.77,403,1613.35,403.74,1614.15,406Z"/><path class="cls-113" d="M1592.74,454.54S1608,485,1604.3,507.07c-1.88,11.18,15.69-38.9,15.69-38.9Z"/><path class="cls-114" d="M1638.3,376.76s13.44,11.29,5.91,33.73-23.41,7.07-24.94,5.35c-2.35-2.65-5.74-15.82-5.21-22.13C1614.57,387.77,1614.36,363.67,1638.3,376.76Z"/><path class="cls-112" d="M1636.74,381.26c-1.47-.64-7.8,8.66-10.86,10.78s-10.1,8.76-11.41,15.44-3.19-16.59-.26-24.31,7-19.08,23.62-7.67,10.06,27.41,10.06,27.41S1644.15,384.46,1636.74,381.26Z"/><path class="cls-114" d="M1622,393.62c-.15-2.78-5.88-5.81-6.28-1.71s2.33,9.23,4.25,9.16S1622.15,396.19,1622,393.62Z"/><path class="cls-115" d="M1608.92,465.5h0l0,0,1.79,2.55c4.6,6.59,16.71,23.78,21.18,29.17h0l17.76,21.11.79.93.78.93.39.47c.32-4.22.29-11.05.64-15.8-4.88-2.61-20.09-12.07-42.19-38l-1.17-1.39Z"/><path class="cls-115" d="M1616,499.36l17.21,27.21h0c2.65-.09,5.17-.25,7.43-.45,0,0-20.21-20.14-21.57-22.17Z"/><path class="cls-116" d="M1617.41,412.21s.69,11.57,16.68,14.82c-.15-1.27-.26-2-.26-2a9.85,9.85,0,0,1,.16-2.57h0a15.49,15.49,0,0,1-7.3-1.2h0a16.37,16.37,0,0,1-4.18-2.53A20.36,20.36,0,0,1,1617.41,412.21Z"/><path class="cls-115" d="M1662.3,474.94a42.62,42.62,0,0,1,4.19,6.85c.69,1.37,1.4,2.8,2.1,4.25a48.62,48.62,0,0,0-6.71-27.64C1663.57,461.83,1662.3,474.94,1662.3,474.94Z"/><path class="cls-113" d="M1690.77,536.64s6.64,1.11,8.25-1l-4.18-10.77-8.64,1.65Z"/><polygon class="cls-117" points="1629.62 541.55 1687.7 535.26 1661.46 555 1629.62 541.55"/><polygon class="cls-118" points="1661.46 555 1629.62 544.97 1629.62 541.55 1662.53 551.31 1661.46 555"/><path class="cls-114" d="M1668.08,532.25s2.6,2.21,3.24,3,3.26,3.76,3.9,4.46-1.42,1.2-6.38-2.76S1668.08,532.25,1668.08,532.25Z"/><path class="cls-114" d="M1652,526.22s4.5,1.18,7.65,1.81c2.44.49,8.16,3.4,9.4,5.2s4.27,12.13,5.07,13-.81,1.53-2.26.31c0,0-2.18,3.13-5.47.34s-4.89-6.94-6.64-8.21-12.28-8.06-12.28-8.06S1649.38,524.22,1652,526.22Z"/><polygon class="cls-118" points="1661.46 555 1678.39 496.78 1742.79 490.49 1725.14 544.08 1661.46 555"/><path class="cls-113" d="M1658.66,527.83s-6,4.4-8.64,7.43c0,0-12.43-12.17-13.7-13.45l13.73-3Z"/><path class="cls-111" d="M1683.87,575h0a13.64,13.64,0,0,0-3.87-4.59s3.53-10,2.71-15.92C1682.8,555.12,1684.45,566.25,1683.87,575Z"/><ellipse class="cls-119" cx="936.71" cy="1273.78" rx="93.96" ry="13.91"/></g></g></g></svg>