<svg xmlns="http://www.w3.org/2000/svg" viewBox="0 0 953.75 714.15"><defs><style>.cls-1{fill:#fff;}.cls-2{fill:#5189fa;}.cls-3{fill:#008eaa;}</style></defs><g id="Layer_2" data-name="Layer 2"><g id="_Layer_" data-name="&lt;Layer&gt;"><ellipse class="cls-1" cx="253.71" cy="360.5" rx="253.71" ry="216.82"/><ellipse class="cls-1" cx="524.19" cy="460.81" rx="214.18" ry="170.5"/><circle class="cls-2" cx="628.97" cy="253.54" r="30.47"/><circle class="cls-2" cx="556.47" cy="170.31" r="29.53"/><circle class="cls-1" cx="889.29" cy="502.35" r="33.82"/><ellipse class="cls-1" cx="556.47" cy="695.71" rx="29.53" ry="18.44"/><ellipse class="cls-1" cx="577.36" cy="363.36" rx="161.01" ry="109.19"/><ellipse class="cls-1" cx="755.11" cy="363.79" rx="198.64" ry="163.96"/><ellipse class="cls-1" cx="343.16" cy="33.45" rx="47.16" ry="33.45"/><circle class="cls-1" cx="874.55" cy="129.94" r="41.85"/><circle class="cls-1" cx="97.46" cy="567.28" r="9.64"/><circle class="cls-1" cx="291.52" cy="577.31" r="15.03"/><circle class="cls-2" cx="760.5" cy="605.24" r="5.39"/><circle class="cls-2" cx="544.38" cy="241.47" r="66.23"/><ellipse class="cls-1" cx="525.56" cy="213.19" rx="229.56" ry="150.6"/><path class="cls-3" d="M146.29,239.92l-28.07,48v34.94H103.89V288L75.82,239.92h16L111,275.45l19.31-35.53Z"/><path class="cls-3" d="M142.55,280.78a27.14,27.14,0,0,1,10.54-10,33,33,0,0,1,30,0,27.26,27.26,0,0,1,10.48,10,30.28,30.28,0,0,1,0,29.55,27,27,0,0,1-10.48,10.06,32.95,32.95,0,0,1-30,0,26.91,26.91,0,0,1-10.54-10.06,30.34,30.34,0,0,1,0-29.55ZM154,304.52a16.08,16.08,0,0,0,28.19,0,19.83,19.83,0,0,0,0-17.88,16.08,16.08,0,0,0-28.19,0,19.83,19.83,0,0,0,0,17.88Z"/><path class="cls-3" d="M223.74,308.08a8.31,8.31,0,0,0,3.31,4.2,10.46,10.46,0,0,0,5.69,1.42,12.7,12.7,0,0,0,6.39-1.54,11,11,0,0,0,4.27-4.26,12.87,12.87,0,0,0,1.54-6.4V268.34h12.79v54.48H244.94v-8.41a18.45,18.45,0,0,1-6.69,7.17,18.79,18.79,0,0,1-9.77,2.43,19.73,19.73,0,0,1-10.31-2.55,16.13,16.13,0,0,1-6.45-7.28,26.63,26.63,0,0,1-2.19-11.25V268.34h13.14V301.5A18.41,18.41,0,0,0,223.74,308.08Z"/><path class="cls-3" d="M286.74,322.82H274.07V268.34h12.67Zm12.91-42.93a8.75,8.75,0,0,0-3.91-.77,7.87,7.87,0,0,0-5.15,1.6,9.45,9.45,0,0,0-2.9,4.56,22.58,22.58,0,0,0-.95,6.87l-4.26-2.49a26.28,26.28,0,0,1,2.43-11.55,21.88,21.88,0,0,1,6.27-8,13,13,0,0,1,8-3,16.25,16.25,0,0,1,5.57.95,11,11,0,0,1,4.5,3.08L303,282.08A19.42,19.42,0,0,0,299.65,279.89Z"/><path class="cls-3" d="M368.22,239.92v82.9H354.48v-82.9Zm-5.09,0h41.81v12.32H363.13Zm0,32.45h39.44v12.08H363.13Zm0,38.14h41.81v12.31H363.13Z"/><path class="cls-3" d="M466.76,268.34l-19.54,26.41,20.72,28.07H453.61l-13-18.71-13,18.71H412.87l20.84-28.07-19.66-26.41h14.69l11.84,17.06,11.85-17.06Z"/><path class="cls-3" d="M485.35,310.51a8.29,8.29,0,0,0,3.61,2.9,13.1,13.1,0,0,0,5.27,1,15.84,15.84,0,0,0,7-1.54,12.12,12.12,0,0,0,5.09-4.5,12.91,12.91,0,0,0,1.9-7.1l1.89,7.1a12.81,12.81,0,0,1-3,8.71,18.32,18.32,0,0,1-7.58,5.21,26.29,26.29,0,0,1-9.29,1.72,22.46,22.46,0,0,1-9.48-2,16.47,16.47,0,0,1-7-5.92,16.72,16.72,0,0,1-2.6-9.47,16.31,16.31,0,0,1,2.54-9.18,16.65,16.65,0,0,1,7.29-6,27.9,27.9,0,0,1,11.49-2.13,33.11,33.11,0,0,1,9.41,1.18,27.89,27.89,0,0,1,6.57,2.78,15.18,15.18,0,0,1,3.68,2.91v6.51a25.61,25.61,0,0,0-7.82-3.79,31.81,31.81,0,0,0-8.77-1.19,18.14,18.14,0,0,0-6.57,1,7,7,0,0,0-4.91,7.17A8,8,0,0,0,485.35,310.51Zm-10.54-37a59.41,59.41,0,0,1,9.59-4.38A38.75,38.75,0,0,1,497.79,267a32.61,32.61,0,0,1,11.9,2,18.87,18.87,0,0,1,8.11,5.75,14.34,14.34,0,0,1,3,9.18v38.84H508.21V286.46a9.64,9.64,0,0,0-.83-4.2,6.94,6.94,0,0,0-2.43-2.78,10.87,10.87,0,0,0-3.73-1.54,21,21,0,0,0-4.62-.48,26.27,26.27,0,0,0-7.22,1,35.24,35.24,0,0,0-5.75,2.13,27.28,27.28,0,0,0-3.61,2Z"/><path class="cls-3" d="M613.61,322.82H600.82V289.66a20.71,20.71,0,0,0-1-6.81,7.9,7.9,0,0,0-3-4,9,9,0,0,0-5.09-1.36,11.21,11.21,0,0,0-5.74,1.42,9.62,9.62,0,0,0-3.79,4.15,14.7,14.7,0,0,0-1.37,6.63v33.16H568V289.66a20.73,20.73,0,0,0-.94-6.81,8,8,0,0,0-3-4,9,9,0,0,0-5.1-1.36,11.23,11.23,0,0,0-5.74,1.42,9.32,9.32,0,0,0-3.73,4.15,15.28,15.28,0,0,0-1.3,6.63v33.16H535.68V268.34h12.56v7.94a18.87,18.87,0,0,1,3.85-5.09,14.23,14.23,0,0,1,5.09-3,19.18,19.18,0,0,1,6.33-1,20.89,20.89,0,0,1,7.11,1.12,14.84,14.84,0,0,1,5.27,3.26,14.2,14.2,0,0,1,3.38,5.33,19.17,19.17,0,0,1,17.05-9.71,17.37,17.37,0,0,1,9.71,2.49,15,15,0,0,1,5.69,7.16,30.58,30.58,0,0,1,1.89,11.43Z"/><path class="cls-3" d="M622.37,289h24.28v11.49H622.37Z"/><path class="cls-3" d="M648.07,239.92h57.8v12.91H684v70h-14.1v-70H648.07Z"/><path class="cls-3" d="M716.76,241.1a8.38,8.38,0,0,1,11.43,0,7.87,7.87,0,0,1,0,11.14,8.38,8.38,0,0,1-11.43,0,7.73,7.73,0,0,1,0-11.14Zm12,27.24v54.48H716.17V268.34Z"/><path class="cls-3" d="M824.3,322.82H811.51V289.66a20.71,20.71,0,0,0-1-6.81,7.9,7.9,0,0,0-3-4,9,9,0,0,0-5.1-1.36,11.23,11.23,0,0,0-5.74,1.42A9.68,9.68,0,0,0,793,283a14.7,14.7,0,0,0-1.36,6.63v33.16H778.7V289.66a20.71,20.71,0,0,0-1-6.81,7.9,7.9,0,0,0-3-4,9,9,0,0,0-5.09-1.36,11.21,11.21,0,0,0-5.74,1.42,9.34,9.34,0,0,0-3.74,4.15,15.43,15.43,0,0,0-1.3,6.63v33.16H746.37V268.34h12.55v7.94a19.29,19.29,0,0,1,3.85-5.09,14.31,14.31,0,0,1,5.09-3,19.29,19.29,0,0,1,6.34-1,21,21,0,0,1,7.11,1.12,14.93,14.93,0,0,1,5.27,3.26,14.18,14.18,0,0,1,3.37,5.33,19.2,19.2,0,0,1,17-9.71,17.4,17.4,0,0,1,9.72,2.49,15,15,0,0,1,5.68,7.16,30.57,30.57,0,0,1,1.9,11.43Z"/><path class="cls-3" d="M849.64,320.45a24.52,24.52,0,0,1-9.71-9.94,31.1,31.1,0,0,1-3.44-14.93,32.25,32.25,0,0,1,2-11.66,25.21,25.21,0,0,1,5.74-9,25.57,25.57,0,0,1,8.94-5.75,32.39,32.39,0,0,1,11.73-2,30.11,30.11,0,0,1,14.68,3.32,22.51,22.51,0,0,1,9.3,9.53,31.93,31.93,0,0,1,3.26,15q0,1.06-.06,2.07c0,.68-.06,1.17-.06,1.48h-48v-8.88H881l-4,5.45a8.51,8.51,0,0,0,.88-1.9,6.17,6.17,0,0,0,.42-2,15.74,15.74,0,0,0-1.72-7.58,12.41,12.41,0,0,0-4.74-5,13.57,13.57,0,0,0-7-1.78,16.4,16.4,0,0,0-6.46,1.19,12.56,12.56,0,0,0-4.73,3.49,16.12,16.12,0,0,0-3,5.68,26.26,26.26,0,0,0-1.07,7.88A24.66,24.66,0,0,0,851.3,305a13.73,13.73,0,0,0,5.21,6.28,15.32,15.32,0,0,0,8.41,2.19,18.68,18.68,0,0,0,9.12-2.14,17.22,17.22,0,0,0,6.51-6.51l11.13,4.38a28.67,28.67,0,0,1-11.07,11.08A33.51,33.51,0,0,1,864.32,324,29.28,29.28,0,0,1,849.64,320.45Z"/><path class="cls-3" d="M316.46,435.92l-.23,3.08-11.49,25.94H289l40.5-87.52L370,464.94H354.24L343,439.71l-.35-3.43-13.15-30.79Zm-5.92-4.14h38.37l2.73,11.84H307.82Z"/><path class="cls-3" d="M456.45,464.94H443.66V431.78a20.71,20.71,0,0,0-1-6.81,7.86,7.86,0,0,0-3-4,9,9,0,0,0-5.09-1.36,11.15,11.15,0,0,0-5.75,1.42,9.68,9.68,0,0,0-3.79,4.15,14.65,14.65,0,0,0-1.36,6.63v33.16H410.85V431.78a20.71,20.71,0,0,0-1-6.81,7.86,7.86,0,0,0-3-4,9,9,0,0,0-5.09-1.36,11.11,11.11,0,0,0-5.74,1.42,9.26,9.26,0,0,0-3.73,4.15,15.22,15.22,0,0,0-1.31,6.63v33.16H378.52V410.46h12.55v7.94a19.35,19.35,0,0,1,3.85-5.1,14.61,14.61,0,0,1,5.09-3,19.29,19.29,0,0,1,6.34-1,20.73,20.73,0,0,1,7.11,1.12,14.79,14.79,0,0,1,5.27,3.26A14.18,14.18,0,0,1,422.1,419a19.15,19.15,0,0,1,17.06-9.71,17.47,17.47,0,0,1,9.71,2.48,15.07,15.07,0,0,1,5.68,7.17,30.57,30.57,0,0,1,1.9,11.43Z"/><path class="cls-3" d="M474.68,383.22a8,8,0,0,1,5.69-2.25,7.9,7.9,0,0,1,5.74,2.25,7.86,7.86,0,0,1,0,11.13,7.86,7.86,0,0,1-5.74,2.25,7.94,7.94,0,0,1-5.69-2.25,7.74,7.74,0,0,1,0-11.13Zm12,27.24v54.48H474.09V410.46Z"/><path class="cls-3" d="M503.82,422.19a25.07,25.07,0,0,1,9.71-9.6,26.88,26.88,0,0,1,13.14-3.31,22.82,22.82,0,0,1,9.36,1.89,20.23,20.23,0,0,1,7.34,5.57,26.63,26.63,0,0,1,4.8,8.88,41.65,41.65,0,0,1,0,23.69,26,26,0,0,1-4.8,8.82,20.52,20.52,0,0,1-7.34,5.51,22.82,22.82,0,0,1-9.36,1.89,26.88,26.88,0,0,1-13.14-3.31,25.07,25.07,0,0,1-9.71-9.6,29.48,29.48,0,0,1-3.67-15.16Q500.15,428.46,503.82,422.19ZM514,468.61a12.44,12.44,0,0,0,2,6.57,13.28,13.28,0,0,0,5.27,4.62,17.34,17.34,0,0,0,8,1.72,16.63,16.63,0,0,0,7.7-1.89,14.88,14.88,0,0,0,6-5.81,19.56,19.56,0,0,0,2.31-10.06v-53.3h12.55v53.3q0,9.83-4,16.28a24.45,24.45,0,0,1-10.36,9.53,31.4,31.4,0,0,1-13.85,3.08,34,34,0,0,1-15.16-3.08,23,23,0,0,1-9.66-8.46,24.69,24.69,0,0,1-3.61-12.5Zm1.66-21.91a14.94,14.94,0,0,0,6,5.75,17.25,17.25,0,0,0,8.11,1.95,15.36,15.36,0,0,0,5.51-1.07,15.17,15.17,0,0,0,5-3.19,15.85,15.85,0,0,0,3.62-5.33,20.51,20.51,0,0,0,0-14.69,15.75,15.75,0,0,0-3.62-5.33,16.23,16.23,0,0,0-5-3.26,14.82,14.82,0,0,0-5.51-1.12,16.84,16.84,0,0,0-8.11,2,15.37,15.37,0,0,0-6,5.81,20.08,20.08,0,0,0,0,18.47Z"/><path class="cls-3" d="M573.4,422.9a26.94,26.94,0,0,1,10.54-10,33,33,0,0,1,30,0,27.18,27.18,0,0,1,10.48,10,30.28,30.28,0,0,1,0,29.55A27.1,27.1,0,0,1,614,462.51a33,33,0,0,1-30,0,26.85,26.85,0,0,1-10.54-10.06,30.28,30.28,0,0,1,0-29.55Zm11.42,23.74a16.08,16.08,0,0,0,28.19,0,19.83,19.83,0,0,0,0-17.88,16.08,16.08,0,0,0-28.19,0,19.83,19.83,0,0,0,0,17.88Z"/><path class="cls-3" d="M638.59,453a7.94,7.94,0,0,1,5.92-2.43,8.11,8.11,0,0,1,6,2.43,8.32,8.32,0,0,1-6,14.15,7.85,7.85,0,0,1-5.92-2.49,8.36,8.36,0,0,1,0-11.66Z"/></g></g></svg>