<svg xmlns="http://www.w3.org/2000/svg" xmlns:xlink="http://www.w3.org/1999/xlink" viewBox="0 0 898.36 722.04"><defs><style>.cls-1{fill:#5189fa;}.cls-2{fill:url(#linear-gradient);}.cls-3{opacity:0.35;fill:url(#linear-gradient-2);}.cls-4{fill:url(#linear-gradient-3);}.cls-5{fill:url(#linear-gradient-4);}.cls-6{fill:url(#linear-gradient-5);}</style><linearGradient id="linear-gradient" x1="496.34" y1="655.31" x2="551.97" y2="655.31" gradientUnits="userSpaceOnUse"><stop offset="0" stop-color="#8ec3f9"/><stop offset="1" stop-color="#b8ebff"/></linearGradient><linearGradient id="linear-gradient-2" x1="238.98" y1="669.02" x2="345.03" y2="669.02" gradientUnits="userSpaceOnUse"><stop offset="0" stop-color="#40d5e6"/><stop offset="1" stop-color="#57f"/></linearGradient><linearGradient id="linear-gradient-3" x1="278.81" y1="31.5" x2="367.66" y2="31.5" xlink:href="#linear-gradient-2"/><linearGradient id="linear-gradient-4" x1="784.34" y1="122.39" x2="863.17" y2="122.39" gradientUnits="userSpaceOnUse"><stop offset="0" stop-color="#bad3ff"/><stop offset="1" stop-color="#edfffe"/></linearGradient><linearGradient id="linear-gradient-5" x1="82.72" y1="534.34" x2="100.88" y2="534.34" xlink:href="#linear-gradient-2"/></defs><g id="Layer_2" data-name="Layer 2"><g id="_Layer_" data-name="&lt;Layer&gt;"><ellipse class="cls-1" cx="238.98" cy="339.56" rx="238.98" ry="204.22"/><ellipse class="cls-1" cx="493.75" cy="434.05" rx="201.74" ry="160.6"/><circle class="cls-1" cx="592.44" cy="238.82" r="28.7"/><circle class="cls-1" cx="524.16" cy="160.42" r="27.82"/><circle class="cls-1" cx="837.64" cy="473.17" r="31.86"/><ellipse class="cls-2" cx="524.16" cy="655.31" rx="27.82" ry="17.37"/><circle class="cls-3" cx="292" cy="669.02" r="53.02"/><ellipse class="cls-1" cx="543.83" cy="342.25" rx="151.66" ry="102.85"/><ellipse class="cls-1" cx="711.26" cy="342.67" rx="187.1" ry="154.44"/><ellipse class="cls-4" cx="323.23" cy="31.5" rx="44.43" ry="31.5"/><circle class="cls-5" cx="823.76" cy="122.39" r="39.42"/><circle class="cls-6" cx="91.8" cy="534.34" r="9.08"/><circle class="cls-1" cx="274.59" cy="543.79" r="14.16"/><circle class="cls-1" cx="716.33" cy="570.09" r="5.07"/><circle class="cls-1" cx="512.76" cy="227.44" r="62.38"/><ellipse class="cls-1" cx="495.03" cy="200.81" rx="216.22" ry="141.86"/></g></g></svg>