<svg xmlns="http://www.w3.org/2000/svg" xmlns:xlink="http://www.w3.org/1999/xlink" viewBox="0 0 898.36 722.04"><defs><style>.cls-1{fill:#5189fa;}.cls-2{fill:url(#linear-gradient);}.cls-3{opacity:0.35;fill:url(#linear-gradient-2);}.cls-4{fill:url(#linear-gradient-3);}.cls-5{fill:url(#linear-gradient-4);}.cls-6{fill:url(#linear-gradient-5);}.cls-7{fill:#fff;}</style><linearGradient id="linear-gradient" x1="496.34" y1="655.31" x2="551.97" y2="655.31" gradientUnits="userSpaceOnUse"><stop offset="0" stop-color="#8ec3f9"/><stop offset="1" stop-color="#b8ebff"/></linearGradient><linearGradient id="linear-gradient-2" x1="238.98" y1="669.02" x2="345.03" y2="669.02" gradientUnits="userSpaceOnUse"><stop offset="0" stop-color="#40d5e6"/><stop offset="1" stop-color="#57f"/></linearGradient><linearGradient id="linear-gradient-3" x1="278.81" y1="31.5" x2="367.66" y2="31.5" xlink:href="#linear-gradient-2"/><linearGradient id="linear-gradient-4" x1="784.34" y1="122.39" x2="863.17" y2="122.39" gradientUnits="userSpaceOnUse"><stop offset="0" stop-color="#bad3ff"/><stop offset="1" stop-color="#edfffe"/></linearGradient><linearGradient id="linear-gradient-5" x1="82.72" y1="534.34" x2="100.88" y2="534.34" xlink:href="#linear-gradient-2"/></defs><g id="Layer_2" data-name="Layer 2"><g id="_Layer_" data-name="&lt;Layer&gt;"><ellipse class="cls-1" cx="238.98" cy="339.56" rx="238.98" ry="204.22"/><ellipse class="cls-1" cx="493.75" cy="434.05" rx="201.74" ry="160.6"/><circle class="cls-1" cx="592.44" cy="238.82" r="28.7"/><circle class="cls-1" cx="524.16" cy="160.42" r="27.82"/><circle class="cls-1" cx="837.64" cy="473.17" r="31.86"/><ellipse class="cls-2" cx="524.16" cy="655.31" rx="27.82" ry="17.37"/><circle class="cls-3" cx="292" cy="669.02" r="53.02"/><ellipse class="cls-1" cx="543.83" cy="342.25" rx="151.66" ry="102.85"/><ellipse class="cls-1" cx="711.26" cy="342.67" rx="187.1" ry="154.44"/><ellipse class="cls-4" cx="323.23" cy="31.5" rx="44.43" ry="31.5"/><circle class="cls-5" cx="823.76" cy="122.39" r="39.42"/><circle class="cls-6" cx="91.8" cy="534.34" r="9.08"/><circle class="cls-1" cx="274.59" cy="543.79" r="14.16"/><circle class="cls-1" cx="716.33" cy="570.09" r="5.07"/><circle class="cls-1" cx="512.76" cy="227.44" r="62.38"/><ellipse class="cls-1" cx="495.03" cy="200.81" rx="216.22" ry="141.86"/><path class="cls-7" d="M164.58,239.18l-23.51,40.18v29.27h-12V279.46l-23.52-40.28H119L135,268.94l16.17-29.76Z"/><path class="cls-7" d="M161.46,273.41a22.7,22.7,0,0,1,8.83-8.39,27.69,27.69,0,0,1,25.15,0,22.84,22.84,0,0,1,8.78,8.39,25.39,25.39,0,0,1,0,24.75,22.59,22.59,0,0,1-8.78,8.43,27.61,27.61,0,0,1-25.15,0,22.45,22.45,0,0,1-8.83-8.43,25.32,25.32,0,0,1,0-24.75ZM171,293.3a13.48,13.48,0,0,0,23.62,0,16.65,16.65,0,0,0,0-15,13.47,13.47,0,0,0-23.62,0,16.65,16.65,0,0,0,0,15Z"/><path class="cls-7" d="M229.47,296.28a7,7,0,0,0,2.78,3.52A8.77,8.77,0,0,0,237,301a10.74,10.74,0,0,0,5.36-1.29,9.28,9.28,0,0,0,3.57-3.57,10.71,10.71,0,0,0,1.29-5.36V263h10.71v45.64H247.23v-7.05a15.49,15.49,0,0,1-5.61,6,15.78,15.78,0,0,1-8.18,2,16.53,16.53,0,0,1-8.63-2.13,13.49,13.49,0,0,1-5.41-6.11,22.14,22.14,0,0,1-1.84-9.42V263h11v27.78A15.31,15.31,0,0,0,229.47,296.28Z"/><path class="cls-7" d="M282.25,308.63H271.63V263h10.62Zm10.81-36a7.3,7.3,0,0,0-3.27-.64,6.56,6.56,0,0,0-4.32,1.34,7.85,7.85,0,0,0-2.43,3.82,18.85,18.85,0,0,0-.79,5.75l-3.57-2.08a22.14,22.14,0,0,1,2-9.68,18.27,18.27,0,0,1,5.26-6.69,10.87,10.87,0,0,1,6.7-2.48,13.53,13.53,0,0,1,4.66.79,9.24,9.24,0,0,1,3.77,2.58l-5.26,9.13A15.61,15.61,0,0,0,293.06,272.66Z"/><path class="cls-7" d="M350.51,239.18v69.45H339V239.18Zm-4.27,0h35V249.5h-35Zm0,27.18h33v10.12h-33Zm0,31.95h35v10.32h-35Z"/><path class="cls-7" d="M433.05,263l-16.37,22.12L434,308.63H422L411.12,293l-10.91,15.68h-12.3l17.46-23.52L388.9,263h12.3l9.92,14.29L421.05,263Z"/><path class="cls-7" d="M448.63,298.31a6.84,6.84,0,0,0,3,2.43,11,11,0,0,0,4.42.84,13.33,13.33,0,0,0,5.85-1.29,10.19,10.19,0,0,0,4.27-3.77,10.85,10.85,0,0,0,1.58-5.95l1.59,5.95a10.76,10.76,0,0,1-2.53,7.3,15.42,15.42,0,0,1-6.35,4.36,21.92,21.92,0,0,1-7.79,1.44,18.66,18.66,0,0,1-7.93-1.69,13.83,13.83,0,0,1-5.86-5,14,14,0,0,1-2.18-7.93,13.63,13.63,0,0,1,2.13-7.69,13.94,13.94,0,0,1,6.11-5,23.34,23.34,0,0,1,9.62-1.79,27.86,27.86,0,0,1,7.89,1,23.36,23.36,0,0,1,5.5,2.33,12.89,12.89,0,0,1,3.08,2.43v5.46a21.56,21.56,0,0,0-6.55-3.17,26.67,26.67,0,0,0-7.34-1,15.22,15.22,0,0,0-5.51.85,5.91,5.91,0,0,0-4.12,6A6.66,6.66,0,0,0,448.63,298.31Zm-8.83-31a49.3,49.3,0,0,1,8-3.67A32.44,32.44,0,0,1,459,261.9a27.34,27.34,0,0,1,10,1.68,15.75,15.75,0,0,1,6.8,4.82,12,12,0,0,1,2.48,7.69v32.54H467.77V278.17a8.09,8.09,0,0,0-.69-3.52,5.72,5.72,0,0,0-2-2.33,9.06,9.06,0,0,0-3.13-1.29,17.49,17.49,0,0,0-3.87-.4,21.92,21.92,0,0,0-6.05.79,29.58,29.58,0,0,0-4.81,1.79,23.78,23.78,0,0,0-3,1.68Z"/><path class="cls-7" d="M556.07,308.63H545.36V280.85a17.27,17.27,0,0,0-.8-5.71,6.53,6.53,0,0,0-2.48-3.37,7.43,7.43,0,0,0-4.26-1.14,9.38,9.38,0,0,0-4.81,1.19,8.07,8.07,0,0,0-3.18,3.47,12.36,12.36,0,0,0-1.14,5.56v27.78H517.88V280.85a17.27,17.27,0,0,0-.8-5.71,6.53,6.53,0,0,0-2.48-3.37,7.43,7.43,0,0,0-4.26-1.14,9.41,9.41,0,0,0-4.82,1.19,7.82,7.82,0,0,0-3.12,3.47,12.79,12.79,0,0,0-1.09,5.56v27.78H490.79V263h10.52v6.65a16.11,16.11,0,0,1,3.22-4.27,12.1,12.1,0,0,1,4.27-2.53,16.16,16.16,0,0,1,5.31-.84,17.28,17.28,0,0,1,5.95.94,12.26,12.26,0,0,1,4.41,2.73,11.8,11.8,0,0,1,2.83,4.46,16.7,16.7,0,0,1,6.05-6.05,16.38,16.38,0,0,1,8.24-2.08,14.54,14.54,0,0,1,8.13,2.08,12.61,12.61,0,0,1,4.77,6,25.78,25.78,0,0,1,1.58,9.58Z"/><path class="cls-7" d="M563.41,280.25h20.34v9.63H563.41Z"/><path class="cls-7" d="M584.94,239.18h48.42V250H615v58.64H603.2V250H584.94Z"/><path class="cls-7" d="M642.48,240.17a7,7,0,0,1,9.58,0,6.6,6.6,0,0,1,0,9.33,7,7,0,0,1-9.58,0,6.49,6.49,0,0,1,0-9.33Zm10,22.82v45.64H642V263Z"/><path class="cls-7" d="M732.57,308.63H721.85V280.85a17.3,17.3,0,0,0-.79-5.71,6.59,6.59,0,0,0-2.48-3.37,7.48,7.48,0,0,0-4.27-1.14,9.4,9.4,0,0,0-4.81,1.19,8,8,0,0,0-3.17,3.47,12.22,12.22,0,0,0-1.14,5.56v27.78H694.37V280.85a17.3,17.3,0,0,0-.79-5.71,6.59,6.59,0,0,0-2.48-3.37,7.48,7.48,0,0,0-4.27-1.14,9.38,9.38,0,0,0-4.81,1.19,7.78,7.78,0,0,0-3.13,3.47,12.94,12.94,0,0,0-1.09,5.56v27.78H667.29V263H677.8v6.65a16.14,16.14,0,0,1,3.23-4.27,12.06,12.06,0,0,1,4.26-2.53,16.16,16.16,0,0,1,5.31-.84,17.24,17.24,0,0,1,5.95.94,12.39,12.39,0,0,1,4.42,2.73,12.05,12.05,0,0,1,2.83,4.46,16.55,16.55,0,0,1,6.05-6.05,16.34,16.34,0,0,1,8.23-2.08,14.57,14.57,0,0,1,8.14,2.08,12.65,12.65,0,0,1,4.76,6,25.57,25.57,0,0,1,1.59,9.58Z"/><path class="cls-7" d="M753.8,306.64a20.53,20.53,0,0,1-8.14-8.33,26,26,0,0,1-2.87-12.5,27.26,27.26,0,0,1,1.68-9.77,20.86,20.86,0,0,1,12.3-12.36A27.21,27.21,0,0,1,766.6,262a25.15,25.15,0,0,1,12.3,2.78,18.92,18.92,0,0,1,7.79,8,26.73,26.73,0,0,1,2.73,12.55c0,.6,0,1.18,0,1.74s0,1,0,1.24H749.14v-7.44h31l-3.37,4.56a7.22,7.22,0,0,0,.74-1.59,5.3,5.3,0,0,0,.35-1.68,13.2,13.2,0,0,0-1.44-6.35,10.43,10.43,0,0,0-4-4.17,11.44,11.44,0,0,0-5.9-1.49,13.56,13.56,0,0,0-5.41,1,10.52,10.52,0,0,0-4,2.92,13.76,13.76,0,0,0-2.53,4.76,22.19,22.19,0,0,0-.89,6.6,20.82,20.82,0,0,0,1.49,8.29,11.4,11.4,0,0,0,4.36,5.25,12.8,12.8,0,0,0,7.05,1.84,15.74,15.74,0,0,0,7.64-1.79,14.39,14.39,0,0,0,5.45-5.45l9.33,3.67a24,24,0,0,1-9.28,9.27,27.91,27.91,0,0,1-13.64,3.13A24.46,24.46,0,0,1,753.8,306.64Z"/><path class="cls-7" d="M307.15,403.38,307,406l-9.63,21.73H284.13l33.93-73.32L352,427.68h-13.2l-9.42-21.13-.3-2.88-11-25.79Zm-5-3.48h32.14l2.28,9.92H299.9Z"/><path class="cls-7" d="M424.41,427.68H413.7V399.9a17.54,17.54,0,0,0-.79-5.7,6.66,6.66,0,0,0-2.48-3.38,7.48,7.48,0,0,0-4.27-1.14,9.38,9.38,0,0,0-4.81,1.19,8.15,8.15,0,0,0-3.18,3.48A12.31,12.31,0,0,0,397,399.9v27.78H386.22V399.9a17.25,17.25,0,0,0-.8-5.7,6.6,6.6,0,0,0-2.48-3.38,7.43,7.43,0,0,0-4.26-1.14,9.35,9.35,0,0,0-4.81,1.19,7.86,7.86,0,0,0-3.13,3.48,12.74,12.74,0,0,0-1.09,5.55v27.78H359.13V382h10.52v6.65a15.9,15.9,0,0,1,3.22-4.26,12,12,0,0,1,4.27-2.53,15.9,15.9,0,0,1,5.31-.85,17.52,17.52,0,0,1,5.95.94,12.26,12.26,0,0,1,4.41,2.73,11.77,11.77,0,0,1,2.83,4.47,16,16,0,0,1,14.29-8.14,14.6,14.6,0,0,1,8.13,2.08,12.64,12.64,0,0,1,4.77,6,25.69,25.69,0,0,1,1.58,9.57Z"/><path class="cls-7" d="M439.69,359.22a7,7,0,0,1,9.58,0,6.6,6.6,0,0,1,0,9.33,7,7,0,0,1-9.58,0,6.49,6.49,0,0,1,0-9.33Zm10,22.82v45.64H439.2V382Z"/><path class="cls-7" d="M464.1,391.87a21.06,21.06,0,0,1,8.13-8,22.58,22.58,0,0,1,11-2.78,19,19,0,0,1,7.83,1.59,16.93,16.93,0,0,1,6.15,4.66,22.3,22.3,0,0,1,4,7.44,34.92,34.92,0,0,1,0,19.85,21.76,21.76,0,0,1-4,7.39,17.13,17.13,0,0,1-6.15,4.61,19,19,0,0,1-7.83,1.59,22.58,22.58,0,0,1-11-2.78,21.06,21.06,0,0,1-8.13-8,27.91,27.91,0,0,1,0-25.49Zm8.53,38.89a10.4,10.4,0,0,0,1.69,5.5,11.19,11.19,0,0,0,4.41,3.87,14.61,14.61,0,0,0,6.7,1.44,13.86,13.86,0,0,0,6.45-1.59,12.3,12.3,0,0,0,5-4.86,16.39,16.39,0,0,0,1.93-8.43V382h10.52v44.65q0,8.24-3.33,13.64a20.44,20.44,0,0,1-8.68,8,26.38,26.38,0,0,1-11.6,2.58,28.59,28.59,0,0,1-12.7-2.58,19.32,19.32,0,0,1-8.09-7.1,20.74,20.74,0,0,1-3-10.46ZM474,412.4a12.54,12.54,0,0,0,5,4.82,14.42,14.42,0,0,0,6.79,1.63,13,13,0,0,0,4.62-.89,12.72,12.72,0,0,0,4.21-2.68,13.13,13.13,0,0,0,3-4.46,17.19,17.19,0,0,0,0-12.31,13.13,13.13,0,0,0-3-4.46,13.37,13.37,0,0,0-4.21-2.73,12.23,12.23,0,0,0-4.62-.94,14.11,14.11,0,0,0-6.79,1.68,12.87,12.87,0,0,0-5,4.87,16.77,16.77,0,0,0,0,15.47Z"/><path class="cls-7" d="M522.38,392.46a22.75,22.75,0,0,1,8.83-8.38,27.63,27.63,0,0,1,25.16,0,22.82,22.82,0,0,1,8.78,8.38,25.41,25.41,0,0,1,0,24.76,22.73,22.73,0,0,1-8.78,8.43,27.71,27.71,0,0,1-25.16,0,22.66,22.66,0,0,1-8.83-8.43,25.41,25.41,0,0,1,0-24.76ZM532,412.35a13.46,13.46,0,0,0,23.61,0,16.57,16.57,0,0,0,0-15,13.46,13.46,0,0,0-23.61,0,16.57,16.57,0,0,0,0,15Z"/><path class="cls-7" d="M577,417.71a6.67,6.67,0,0,1,5-2,6.81,6.81,0,0,1,5,2,7,7,0,0,1-5,11.86,6.57,6.57,0,0,1-5-2.09,7,7,0,0,1,0-9.77Z"/></g></g></svg>