<svg xmlns="http://www.w3.org/2000/svg" viewBox="0 0 155 155"><defs><style>.cls-1{fill:#a099cf;}.cls-2{fill:#ca684b;}.cls-12,.cls-3{opacity:0.1;}.cls-4{fill:#ff8b5a;}.cls-5{fill:#d35930;}.cls-6{fill:#a14828;}.cls-7{fill:#5e3e2f;}.cls-8{font-size:25.17px;}.cls-8,.cls-9{fill:#fffffa;font-family:BerlinSansFBDemi-Bold, Berlin Sans FB Demi;font-weight:700;}.cls-9{font-size:17.98px;}.cls-10{fill:#bf7406;}.cls-11{fill:#f3a000;}.cls-12,.cls-15{fill:#fff;}.cls-13{fill:#c97b07;}.cls-14{fill:#e48b07;}.cls-15{opacity:0.2;}.cls-16{fill:#5f686f;}.cls-17{fill:#727b84;}.cls-18{fill:#d2d3d5;}.cls-19{fill:#808893;}.cls-20{fill:#bd6c1a;}.cls-21{fill:#a65f17;}.cls-22{fill:#da9246;}.cls-23{opacity:0.37;}</style></defs><g id="Layer_2" data-name="Layer 2"><g id="Layer_1-2" data-name="Layer 1"><path class="cls-1" d="M155,78.15C155,121.31,120.62,155,77.82,155S0,121.31,0,78.15,34.7,0,77.5,0,155,35,155,78.15Z"/><polygon class="cls-2" points="17.2 80.94 57.86 80.94 57.86 68.11 102.09 68.11 102.09 87.35 142.93 87.35 142.93 106.59 17.2 106.59 17.2 80.94"/><rect class="cls-3" x="102.09" y="87.35" width="40.84" height="2.53"/><rect class="cls-4" x="57.86" y="68.11" width="44.23" height="38.48"/><rect class="cls-5" x="56.08" y="66.07" width="47.8" height="2.04"/><rect class="cls-6" x="102.09" y="85.31" width="42.62" height="2.04"/><rect class="cls-6" x="15.42" y="78.9" width="42.44" height="2.04"/><polygon class="cls-7" points="15.42 78.9 22.55 74.05 57.86 74.05 57.86 78.9 15.42 78.9"/><polygon class="cls-7" points="56.08 66.07 63.21 61.22 96.73 61.22 103.87 66.07 56.08 66.07"/><polygon class="cls-7" points="102.09 85.31 102.09 80.46 137.57 80.46 144.71 85.31 102.09 85.31"/><text class="cls-8" transform="translate(74.72 96.94) scale(0.99 1)">1</text><text class="cls-9" transform="translate(33.65 101.14) scale(0.99 1)">2</text><text class="cls-9" transform="translate(117.28 103.29) scale(0.99 1)">3</text><rect class="cls-3" x="17.2" y="80.94" width="40.66" height="2.53"/><rect class="cls-3" x="53.86" y="74.04" width="4" height="32.55"/><rect class="cls-3" x="102.09" y="80.46" width="4" height="26.13"/><rect class="cls-3" x="57.86" y="68.11" width="44.23" height="4.47"/><path class="cls-10" d="M64.84,45.73h-.07a1.08,1.08,0,0,1-1.07-1.08h0a1.07,1.07,0,0,1,1.07-1.08h0a1.28,1.28,0,0,0,1.29-1.12,1.29,1.29,0,0,0-.84-1.33c-5.16-2.18-6-12.82-6.06-14L59.11,26H69.76v2.16H61.42c.38,3.43,1.68,9.76,4.65,11a3.46,3.46,0,0,1,2.15,3.17A3.4,3.4,0,0,1,64.84,45.73Z"/><path class="cls-10" d="M95.1,45.73h.08a1.08,1.08,0,0,0,1.07-1.08h0a1.07,1.07,0,0,0-1.07-1.08h0a1.26,1.26,0,0,1-.44-2.45c5.16-2.18,6-12.82,6.05-14l.08-1.15H90.19v2.16h8.34c-.39,3.43-1.68,9.76-4.65,11a3.47,3.47,0,0,0-2.16,3.17A3.41,3.41,0,0,0,95.1,45.73Z"/><polygon class="cls-10" points="83.02 57.73 76.97 57.73 78.03 45.41 81.94 45.41 83.02 57.73"/><path class="cls-11" d="M90.17,62H69.81a12,12,0,0,1,10-5.36h.42a12,12,0,0,1,10,5.36Z"/><rect class="cls-10" x="76.53" y="58.34" width="6.89" height="2.16"/><polygon class="cls-12" points="76.53 58.34 80.64 58.34 79.97 60.5 76.53 60.5 76.53 58.34"/><polygon class="cls-12" points="81.67 58.34 81.4 60.5 83.42 60.5 83.42 58.34 81.67 58.34"/><rect class="cls-13" x="69.81" y="62" width="20.37" height="1.64"/><path class="cls-11" d="M67.53,23.36H92.45a0,0,0,0,1,0,0V37.67A12.46,12.46,0,0,1,80,50.13h0A12.46,12.46,0,0,1,67.53,37.67V23.36A0,0,0,0,1,67.53,23.36Z"/><rect class="cls-14" x="65.75" y="21.18" width="28.49" height="2.18" rx="1.08"/><path class="cls-15" d="M89,26.88V39.2a.7.7,0,0,0,1.4,0V26.88A.7.7,0,0,0,89,26.88Z"/><path class="cls-15" d="M89.89,42.11c.09-.9-1.31-.9-1.39,0a2.55,2.55,0,0,1-1,1.75.72.72,0,0,0-.25,1,.7.7,0,0,0,.95.26l.11-.08a.52.52,0,0,0,.11-.1A4,4,0,0,0,89.89,42.11Z"/><path class="cls-15" d="M70.46,23.36H86.16a0,0,0,0,1,0,0V39.92a7.85,7.85,0,0,1-7.85,7.85h0a7.85,7.85,0,0,1-7.85-7.85V23.36A0,0,0,0,1,70.46,23.36Z"/><path class="cls-16" d="M27.07,60.77H27a.93.93,0,0,1-.93-.93h0a.93.93,0,0,1,.93-.93h0a1.09,1.09,0,0,0,.38-2.12c-4.45-1.88-5.16-11.06-5.22-12.1l-.07-1h9.19v1.87H24.12c.33,3,1.44,8.42,4,9.5A3,3,0,0,1,30,57.81,2.94,2.94,0,0,1,27.07,60.77Z"/><path class="cls-16" d="M53.17,60.77h.07a.93.93,0,0,0,.92-.93h0a.92.92,0,0,0-.92-.93h0a1.1,1.1,0,0,1-1.11-1,1.11,1.11,0,0,1,.72-1.15c4.45-1.88,5.16-11.06,5.23-12.1l.06-1H48.93v1.87h7.19c-.33,3-1.44,8.42-4,9.5a3,3,0,0,0-1.86,2.74A2.93,2.93,0,0,0,53.17,60.77Z"/><polygon class="cls-17" points="42.74 71.12 37.53 71.12 38.45 60.49 41.82 60.49 42.74 71.12"/><path class="cls-18" d="M48.92,74.81H31.35A10.34,10.34,0,0,1,40,70.18h.37a10.34,10.34,0,0,1,8.6,4.63Z"/><rect class="cls-16" x="37.15" y="71.65" width="5.94" height="1.86"/><polygon class="cls-12" points="37.15 71.65 40.7 71.65 40.12 73.51 37.15 73.51 37.15 71.65"/><polygon class="cls-12" points="41.58 71.65 41.35 73.51 43.09 73.51 43.09 71.65 41.58 71.65"/><rect class="cls-19" x="31.35" y="74.81" width="17.57" height="1.42"/><path class="cls-18" d="M29.39,41.47H50.88a0,0,0,0,1,0,0V53.82A10.75,10.75,0,0,1,40.14,64.57h0A10.75,10.75,0,0,1,29.39,53.82V41.47A0,0,0,0,1,29.39,41.47Z"/><rect class="cls-19" x="27.85" y="39.59" width="24.57" height="1.88" rx="0.93"/><path class="cls-15" d="M47.92,44.51V55.14a.6.6,0,0,0,1.2,0V44.51A.6.6,0,0,0,47.92,44.51Z"/><path class="cls-15" d="M48.68,57.64c.07-.77-1.13-.77-1.21,0a2.13,2.13,0,0,1-.85,1.52.63.63,0,0,0-.22.83.62.62,0,0,0,.83.22l.09-.07.1-.09A3.48,3.48,0,0,0,48.68,57.64Z"/><path class="cls-15" d="M38.69,62.52h0a6.79,6.79,0,0,1-6.77-6.82V41.47H45.46V55.7A6.8,6.8,0,0,1,38.69,62.52Z"/><path class="cls-20" d="M110.35,67.06h-.07a.92.92,0,0,1-.92-.93h0a.93.93,0,0,1,.92-.93h0a1.1,1.1,0,0,0,1.11-1,1.12,1.12,0,0,0-.72-1.16c-4.45-1.88-5.16-11-5.23-12.09l-.06-1h9.19v1.86H107.4c.33,3,1.44,8.43,4,9.51a3,3,0,0,1,1.86,2.74A2.93,2.93,0,0,1,110.35,67.06Z"/><path class="cls-20" d="M136.45,67.06h.07a.93.93,0,0,0,.92-.93h0a.93.93,0,0,0-.92-.93h0a1.1,1.1,0,0,1-1.1-1,1.11,1.11,0,0,1,.72-1.16c4.45-1.88,5.16-11,5.22-12.09l.07-1h-9.19v1.86h7.19c-.33,3-1.44,8.43-4,9.51a3,3,0,0,0-1.86,2.74A2.94,2.94,0,0,0,136.45,67.06Z"/><polygon class="cls-21" points="126.02 77.42 120.8 77.42 121.73 66.79 125.1 66.79 126.02 77.42"/><path class="cls-22" d="M132.2,81.1H114.63a10.33,10.33,0,0,1,8.6-4.62h.37a10.34,10.34,0,0,1,8.6,4.62Z"/><rect class="cls-20" x="120.43" y="77.94" width="5.94" height="1.86"/><polygon class="cls-12" points="120.43 77.94 123.97 77.94 123.4 79.8 120.43 79.8 120.43 77.94"/><polygon class="cls-12" points="124.86 77.94 124.63 79.8 126.37 79.8 126.37 77.94 124.86 77.94"/><rect class="cls-20" x="114.63" y="81.1" width="17.57" height="1.42"/><path class="cls-22" d="M123.41,70.86h0A10.79,10.79,0,0,1,112.67,60V47.77h21.49V60A10.79,10.79,0,0,1,123.41,70.86Z"/><path class="cls-20" d="M134.77,45.89H112.06a.93.93,0,0,0-.93.94h0a.93.93,0,0,0,.93.94h22.71a.94.94,0,0,0,.93-.94h0A.94.94,0,0,0,134.77,45.89Z"/><path class="cls-15" d="M131.19,50.81V61.43a.61.61,0,0,0,1.21,0V50.81A.61.61,0,0,0,131.19,50.81Z"/><path class="cls-15" d="M132,63.94c.08-.78-1.13-.77-1.2,0a2.2,2.2,0,0,1-.85,1.51.63.63,0,0,0-.22.83.61.61,0,0,0,.83.22l.08-.06.1-.09A3.48,3.48,0,0,0,132,63.94Z"/><path class="cls-15" d="M122,68.82h0A6.8,6.8,0,0,1,115.2,62V47.77h13.53V62A6.8,6.8,0,0,1,122,68.82Z"/><path class="cls-23" d="M154.36,87.55c3.09-3.52-10.4,80.93-95.83,64.86l-41.16-46H142.78l.15-19,1.78.2V85.61l-7.08-5.19"/></g></g></svg>