<svg xmlns="http://www.w3.org/2000/svg" viewBox="0 0 1114.59 496.8"><defs><style>.cls-1{isolation:isolate;}.cls-2,.cls-25{fill:#0071bc;}.cls-2{stroke:#000;stroke-miterlimit:10;}.cls-3{fill:#e4c7c0;}.cls-4{fill:#4d4a84;}.cls-5{fill:#f7b68d;}.cls-6{fill:#232570;}.cls-7{fill:#2e358b;}.cls-8{fill:#a2765c;}.cls-9{fill:#c18b6e;}.cls-10{fill:#e6aa85;}.cls-11{fill:#006bb5;}.cls-12{fill:#5fc9e4;}.cls-13{fill:#9fcfe2;}.cls-13,.cls-14{mix-blend-mode:multiply;}.cls-14{fill:#c7e9f4;}.cls-15{fill:#fff;}.cls-16{fill:#001346;}.cls-17{fill:#75aed5;}.cls-18{fill:#004f8b;}.cls-19{fill:#006ab5;}.cls-20{fill:#8fc1e8;}.cls-21{fill:#955125;}.cls-22{fill:#072860;}.cls-23{fill:#fab78d;}.cls-24{fill:#c1ddf3;}.cls-25{font-size:45.35px;font-family:GTEestiProDisplay-Regular, GT Eesti Pro Display;}.cls-26{letter-spacing:-0.01em;}.cls-27{letter-spacing:-0.05em;}.cls-28{letter-spacing:-0.03em;}.cls-29{letter-spacing:-0.02em;}.cls-30{letter-spacing:-0.02em;}.cls-31{letter-spacing:-0.02em;}.cls-32{letter-spacing:-0.02em;}.cls-33{letter-spacing:-0.04em;}</style></defs><g class="cls-1"><g id="Layer_2" data-name="Layer 2"><g id="Layer_1-2" data-name="Layer 1"><rect class="cls-2" x="2.09" y="6.3" width="1112" height="490"/><path class="cls-3" d="M760.15,441.06c0,5.43,23.73,9.82,53,9.82s53-4.39,53-9.82-23.73-9.82-53-9.82S760.15,435.64,760.15,441.06Z"/><path class="cls-3" d="M929.69,445.48c0,5.42,23.73,9.82,53,9.82s53-4.4,53-9.82-23.74-9.82-53-9.82S929.69,440.05,929.69,445.48Z"/><path class="cls-4" d="M808,444.83c1-5.08-16.2-13.85-13.73-12.39a4.61,4.61,0,0,0-4.33-1.83,2.94,2.94,0,0,0-1.4,2.54,14.36,14.36,0,0,1-.69,3.59s.22.57,1.32.81l1.8-1.43,4,4.19S801.07,445.94,808,444.83Z"/><path class="cls-5" d="M789.75,431.64s7.75,8.5,12.13,8c0,0,2,0,.38-1.45a51.26,51.26,0,0,0-8.1-5.35Z"/><polygon class="cls-6" points="812.41 265.79 816.04 351.54 827.93 435.46 836.16 435.51 836.66 347.76 838.55 265.79 812.41 265.79"/><polygon class="cls-7" points="833.46 270.6 820.09 293.52 819.03 363.51 796.64 433.97 788.49 431.04 802.92 362.17 793.07 269.5 833.46 270.6"/><rect class="cls-8" x="797.93" y="157.81" width="21.69" height="40.43"/><path class="cls-9" d="M809.2,119.73l1.18,121.41,32.45-4.91-5.36-102.58S834.88,115.94,809.2,119.73Z"/><path class="cls-4" d="M850.1,443.39c-.34-5.16-19.22-9.22-16.45-8.45a4.63,4.63,0,0,0-4.66-.65,3,3,0,0,0-.7,2.81,14.54,14.54,0,0,1,.26,3.65s.36.49,1.48.44l1.38-1.84,5,3S843.67,446.25,850.1,443.39Z"/><path class="cls-5" d="M829.06,435.33s9.68,6.23,13.77,4.6c0,0,1.9-.55,0-1.5a51.36,51.36,0,0,0-9.21-3.1Z"/><path class="cls-5" d="M865.42,239.62s1.33-5.21-3.38-13.44L850.61,203.4s-7.56-16.6-14.39-13.58c0,0-14,4.23,3.22,24.37l8.84,16.35s9.27,20.22,17.14,9.08"/><rect class="cls-5" x="810.47" y="170.12" width="12.11" height="16.21"/><path class="cls-5" d="M789.13,193.33a16.37,16.37,0,0,1,8.66-6.62l12.68-4.7h12.11l12.68,4.7a16.37,16.37,0,0,1,8.66,6.62Z"/><path class="cls-5" d="M802.91,163.93a22.75,22.75,0,0,0,9.25,8.31,24.12,24.12,0,0,0,4.67,1.69c1.15.27,3.72,1.08,4.84.59,16.28-7.11,11-38.44,11-38.44-2.44-15-15.27-15-15.27-15-9.69-.42-18.53,4.15-20,14.36-.58,3.91.18,8.11.37,12a31.63,31.63,0,0,0,1.42,8.47A34.94,34.94,0,0,0,802.91,163.93Z"/><path class="cls-10" d="M819.66,173.29c-7.24-.51-13-6.12-17.89-11.27.36.66.74,1.29,1.14,1.91a22.75,22.75,0,0,0,9.25,8.31,24.12,24.12,0,0,0,4.67,1.69c1.15.27,3.72,1.08,4.84.59a15.57,15.57,0,0,0,6.19-4.94C825.67,171.12,822.46,173.49,819.66,173.29Z"/><path class="cls-9" d="M804.32,165.89c-1.5-11-1.76-19.36,6.59-23,5.64-2.48,20-3.38,20-12.71,0-7.38-7.3-8.9-13.3-10.48-9.05-2.38-22.44,4.5-24.63,13.92C792.94,133.59,789.05,157.24,804.32,165.89Z"/><path class="cls-5" d="M900.79,197.76c-2.6-2.13-3.42-.44-5.18,1.39-1.34,1.41-1,1.33-2.43,2.72a3.73,3.73,0,0,0,.91-2.85c-.26-1.59-1.9-1.09-1.9-1.09l-1.67,4.49c-.34.94-.74,1.85-1,2.81a6.55,6.55,0,0,0,.15,3.72,3.3,3.3,0,0,0,4.6,1.76c1.59-.75,2.79-2.23,4.11-3.34C898.36,207.37,903.16,202.19,900.79,197.76Z"/><path class="cls-5" d="M862,228.78l27.38-21.17,4.9,2.86-27.8,29.1s-5.8,6.74-9.84,1.11C856.6,240.68,853,235.67,862,228.78Z"/><path class="cls-5" d="M804.32,152.57s-1.28-5.33-5.38-3.13c0,0-1.85.94-.52,4.6,0,0,2,5.27,5.9,3.34Z"/><path class="cls-11" d="M840.53,206.45A18.25,18.25,0,0,1,835.17,224l6.82,51.4H791.8c.18-11,3.34-21.84,7.83-31.81,4.42-9.81,2.16-22.2-4.11-30.63A13.84,13.84,0,0,0,794,211.2l-7.35-11.12a16.31,16.31,0,0,1,11.15-13.36l9.38-3.48a26.13,26.13,0,0,0,14,6.17s4.4-1.84,5.37-5.92l6.35,2.33S834.19,192.29,840.53,206.45Z"/><path class="cls-5" d="M793.4,273.52l-4.08,3.94-22.91-34c-5.37-6.7-1.44-12.28-1.44-12.28L785,199.09c5.81-12.21,13.73-12.74,13.73-12.74,10,11.49-1.54,24.77-1.54,24.77l-21.11,24.53S785.21,250.39,793.4,273.52Z"/><path class="cls-5" d="M787.48,279.54c-1.57,1-3.33-.58-4.31,1.42-1.86,3.82,4.53,4.53,6.55,3.55,2.23-1.08,5.15-4.34,5.38-6.88.19-2-1.85-5.68-4.21-5.1C787.75,273.31,790,278,787.48,279.54Z"/><path class="cls-9" d="M807.36,143.17s-3.55.56-4.09,12.55v79.37s-6.27,7.3-18.81,4.57c0,0,3.58-3.27,4.52-12.26l1.75-78.49s-1.6-21,12.39-26.93Z"/><path class="cls-12" d="M930.88,68.23a14.37,14.37,0,0,0-19.56-13.42,17.75,17.75,0,0,0-34.08-3,7.55,7.55,0,0,0-11.83,7.53,10.18,10.18,0,1,0-8.24,18.5,14.44,14.44,0,0,0,16.73,22.74,14.38,14.38,0,0,0,28.15,2.89A14.38,14.38,0,1,0,921,81.89,14.39,14.39,0,0,0,930.88,68.23Z"/><path class="cls-13" d="M930.88,68.23a14.38,14.38,0,0,0-11-14,17.1,17.1,0,0,1,5.48,11.46c.12,4.21-1.24,9.26-4.75,11.9-1.52,1.15-4.6,2.6-6.57,2.4,2.77,3.56,3.76,8-.26,11.6-4.49,4-9.93,3.58-13.52-.71.1,3.63-1.11,8.33-4.33,10.37a15.35,15.35,0,0,1-9.46,2.23c-6.28-.77-9.95-5.34-10.49-11.42,0,.33-2,1.61-2.29,1.83a11.24,11.24,0,0,1-2.51,1.35c-6,2.18-13.68-2.84-13-9.39A19,19,0,0,1,860.27,79c.49-.86,1.9-3,3.13-2.93-7.94-.52-9.82-13.88-.91-17.81a10,10,0,0,0-2.14-.23,10.18,10.18,0,0,0-3.18,19.85,14.44,14.44,0,0,0,16.73,22.74,14.38,14.38,0,0,0,28.15,2.89A14.38,14.38,0,1,0,921,81.89,14.39,14.39,0,0,0,930.88,68.23Z"/><path class="cls-12" d="M867.28,110.48c-1.38,1.65-4.24,1.52-6.4-.28s-2.8-4.59-1.43-6.24,4.24-1.53,6.4.27S868.65,108.83,867.28,110.48Z"/><path class="cls-12" d="M859.8,114.11c-1,1.25-3.21,1.16-4.85-.21s-2.13-3.48-1.08-4.74,3.21-1.16,4.85.21S860.85,112.86,859.8,114.11Z"/><path class="cls-12" d="M853.19,115.75c-.73.88-2.27.82-3.42-.15s-1.5-2.46-.77-3.34,2.27-.82,3.43.15S853.93,114.87,853.19,115.75Z"/><path class="cls-14" d="M888.59,62.62a9.21,9.21,0,0,1,14.62-7.46A9.21,9.21,0,1,0,890.35,68,9.18,9.18,0,0,1,888.59,62.62Z"/><path class="cls-14" d="M873,84.55a7,7,0,0,1,8.18,5.56,7.09,7.09,0,0,1-.55,4.29,7,7,0,1,0-11.42-7.77A7,7,0,0,1,873,84.55Z"/><path class="cls-15" d="M882.07,78.52a3.91,3.91,0,1,1-3.91-3.91A3.91,3.91,0,0,1,882.07,78.52Z"/><path class="cls-15" d="M894.43,78a3.91,3.91,0,1,1-3.91-3.91A3.91,3.91,0,0,1,894.43,78Z"/><path class="cls-15" d="M906.8,77.44a3.92,3.92,0,1,1-3.92-3.91A3.92,3.92,0,0,1,906.8,77.44Z"/><path class="cls-16" d="M978.77,438.35l-18.39,4.72s-2.36.71-2.36,4H989.6l-.45-8.73Z"/><path class="cls-5" d="M895.5,272.61c-1.14-3.15.72-3.37,3-4.42,1.77-.8,1.59-.51,3.37-1.39a3.72,3.72,0,0,1-3-.09,1.41,1.41,0,0,1-.39-2.15l4.8-.09c1,0,2-.08,3,0a6.46,6.46,0,0,1,3.46,1.38,3.3,3.3,0,0,1,.13,4.93c-1.23,1.25-3,1.88-4.51,2.77C905.38,273.52,898.9,276.33,895.5,272.61Z"/><path class="cls-17" d="M910.93,274.17l38-12.77s5.82-3.12,11.94-13.24l17.84-24.61S979.81,198.82,968,195c0,0-4.47,8.16-11.61,29L946,243.66s-1.8,4.23-13.77,10.16l-23,9.23S907,270.61,910.93,274.17Z"/><polygon class="cls-18" points="971.61 265.99 978.57 438.35 989.4 438.35 1007.6 265.99 971.61 265.99"/><polygon class="cls-19" points="977.18 265.64 992.43 307.89 999.93 365.08 1008.18 438.35 1019.12 438.35 1016.85 358.06 1020.84 265.64 977.18 265.64"/><rect class="cls-5" x="990.49" y="170.58" width="12.74" height="17.06"/><path class="cls-5" d="M1025.7,195a17.32,17.32,0,0,0-9.12-7l-13.35-4.94H990.49L977.15,188a17.32,17.32,0,0,0-9.12,7Z"/><path class="cls-20" d="M1003.23,183.1l13.35,4.94a17.17,17.17,0,0,1,11.73,14.06l-5.88,11.7,2.23,76.35H968l2.57-73.8-5.19-14.25A17.19,17.19,0,0,1,977.15,188l13.34-4.94,4.29,5.11Z"/><path class="cls-5" d="M981,170.77c2.65,6.63,6,8.12,6,8.12l4.25.27c2.34-.62,6.32-2.12,6.32-2.12,9-4.46,12.2-4.68,13.51-9.85,0-.16,3.23-26.42,3.23-26.42-.52-13.38-14.71-14.31-16.84-14.38s-15.78-2.14-18,11A69.47,69.47,0,0,0,981,170.77Z"/><path class="cls-5" d="M981.11,167.43c1.8,3.46,5.1,7.48,9.45,7.43,3.23,0,7-1.43,10-2.68,3.21-1.35,7.31-2.6,10.09-4.66l.4-.32h0c0-.16,3.23-26.42,3.23-26.42-.52-13.38-14.71-14.31-16.84-14.38s-15.78-2.14-18,11a69.42,69.42,0,0,0,.57,29.64A.79.79,0,0,1,981.11,167.43Z"/><path class="cls-10" d="M1007.76,171c-5.26,2.47-8.27,4.16-12.33,5.57-6.2,2.15-9.48,2.53-14.47-5.93l0,.12c2.65,6.63,6,8.12,6,8.12l4.25.27c2.34-.62,6.32-2.12,6.32-2.12,7.09-3.5,10.55-4.39,12.36-7.1C1009.22,170.33,1008.49,170.67,1007.76,171Z"/><path class="cls-21" d="M1011.06,167.19c9.79-11.92,9.08-28.72,9.08-28.72,1-22.68-25.89-19.44-25.89-19.44-9.52-.12-9.31-4.83-9.31-4.83a8.63,8.63,0,0,0-3.23,8.67c-1.66-.07-1.78-3.06-1.78-3.06-6,4.64-2.49,11.05-2.49,11.05-1.16,6.48.79,23.64.79,23.64s.54-17.19,5.17-20.87c0,0,4.63-2.19,7.91.54,0,0,15.47-6,17.53,9.73l2,13.69Z"/><path class="cls-5" d="M1010,155.82s1.68-5.4,5.75-2.86c0,0,1.84,1.09.23,4.77,0,0-2.35,5.29-6.3,3.05Z"/><path class="cls-21" d="M1008.84,143.9s1.18,9.12.13,14.18l1.83.11s.11-6.37,3.32-6.87Z"/><path class="cls-22" d="M1008.48,438.35l-18.39,4.72s-2.36.71-2.36,4h31.58l-.45-8.73Z"/><path class="cls-23" d="M1055.76,292.15S1046,253,1026.51,222l12.11-4.69s17.1,28.06,23.62,72.24Z"/><polygon class="cls-5" points="1062.97 296.31 1062.01 287.89 1055.04 288.19 1055.62 293.45 1062.97 296.31"/><path class="cls-23" d="M1056.2,298.66l.42,4.17c-3.15.46-3-4.77-3-4.77s.7-6.57,7.05-6.33c2,0,3.89,5.43,3.89,5.43a35,35,0,0,1,.15,5.58c-.27,1.49-1.94,1-1.94,1a8.83,8.83,0,0,1-3.82.81c-1.24,1.63-2.45-.18-2.45-.18Z"/><path class="cls-17" d="M1053.7,291.86c-21.18-64-42.51-81.57-42.51-81.57-6.58-10.91,1.16-17.18,1.16-17.18,10.12-6,15.31,3.43,15.31,3.43,2.08,2.44,35.71,58.24,36.4,93C1064.06,289.59,1060.67,291.73,1053.7,291.86Z"/><polygon class="cls-24" points="994.84 188.23 990.41 181.3 983.46 184.98 988.67 193.37 994.84 188.23"/><polygon class="cls-24" points="994.84 188.23 1003.29 180.38 1010.27 184.78 1001.04 193.88 994.84 188.23"/><rect class="cls-15" width="686.09" height="490.3"/><text class="cls-25" transform="translate(83.99 129.07)"><tspan class="cls-26">D</tspan><tspan x="30.52" y="0">o</tspan><tspan class="cls-27" x="56.19" y="0">n</tspan><tspan class="cls-28" x="78.19" y="0">’</tspan><tspan x="84.9" y="0">t</tspan><tspan class="cls-29" x="98.92" y="0"> </tspan><tspan class="cls-30" x="111.16" y="0">w</tspan><tspan x="142.73" y="0">orr</tspan><tspan class="cls-31" x="198.33" y="0">y </tspan><tspan class="cls-30" x="231.67" y="0">w</tspan><tspan x="263.23" y="0">e</tspan><tspan class="cls-31" x="286.68" y="0"> </tspan><tspan class="cls-30" x="298.93" y="0">w</tspan><tspan x="330.5" y="0">o</tspan><tspan class="cls-27" x="356.17" y="0">n</tspan><tspan class="cls-28" x="378.16" y="0">’</tspan><tspan x="384.88" y="0">t </tspan><tspan x="0" y="59.53">ups</tspan><tspan class="cls-31" x="68.03" y="59.53">e</tspan><tspan x="90.57" y="59.53">t</tspan><tspan class="cls-29" x="104.59" y="59.53"> </tspan><tspan class="cls-32" x="116.83" y="59.53">y</tspan><tspan x="137.69" y="59.53">our</tspan><tspan class="cls-29" x="202.19" y="59.53"> </tspan><tspan class="cls-30" x="214.43" y="59.53">w</tspan><tspan x="246" y="59.53">all</tspan><tspan class="cls-31" x="292.58" y="59.53">e</tspan><tspan x="315.12" y="59.53">ts </tspan><tspan class="cls-30" x="0" y="119.05">b</tspan><tspan class="cls-31" x="24.99" y="119.05">y</tspan><tspan x="46.08" y="119.05" xml:space="preserve"> em</tspan><tspan class="cls-31" x="118.92" y="119.05">p</tspan><tspan x="143.91" y="119.05">tying it out unli</tspan><tspan class="cls-33" x="437.03" y="119.05">k</tspan><tspan x="457.12" y="119.05">e </tspan><tspan class="cls-31" x="0" y="178.58">o</tspan><tspan x="24.76" y="178.58">ther </tspan><tspan class="cls-29" x="115.06" y="178.58">t</tspan><tspan x="128.17" y="178.58">es</tspan><tspan class="cls-31" x="169.89" y="178.58">t</tspan><tspan x="183" y="178.58">-series out </tspan><tspan x="0" y="238.11">the</tspan><tspan class="cls-30" x="62.18" y="238.11">r</tspan><tspan x="76.01" y="238.11">e!</tspan></text></g></g></g></svg>