<svg xmlns="http://www.w3.org/2000/svg" viewBox="0 0 154 154"><defs><style>.cls-1{isolation:isolate;}.cls-2{fill:#8ad2d1;}.cls-3{fill:#e4c7c0;}.cls-4{fill:#4d4a84;}.cls-5{fill:#f7b68d;}.cls-6{fill:#232570;}.cls-7{fill:#2e358b;}.cls-8{fill:#a2765c;}.cls-9{fill:#c18b6e;}.cls-10{fill:#e6aa85;}.cls-11{fill:#006bb5;}.cls-12{fill:#5fc9e4;}.cls-13{fill:#9fcfe2;}.cls-13,.cls-14{mix-blend-mode:multiply;}.cls-14{fill:#c7e9f4;}.cls-15{fill:#fff;}.cls-16{fill:#001346;}.cls-17{fill:#75aed5;}.cls-18{fill:#004f8b;}.cls-19{fill:#006ab5;}.cls-20{fill:#8fc1e8;}.cls-21{fill:#955125;}.cls-22{fill:#072860;}.cls-23{fill:#fab78d;}.cls-24{fill:#c1ddf3;}</style></defs><g class="cls-1"><g id="Layer_2" data-name="Layer 2"><g id="Layer_1-2" data-name="Layer 1"><circle class="cls-2" cx="77" cy="77" r="77"/><path class="cls-3" d="M32,134.06c0,1.71,7.51,3.11,16.78,3.11s16.79-1.4,16.79-3.11S58,131,48.76,131,32,132.34,32,134.06Z"/><path class="cls-4" d="M47.13,135.25c.32-1.61-5.13-4.39-4.34-3.93a1.46,1.46,0,0,0-1.37-.57.92.92,0,0,0-.45.8,4.42,4.42,0,0,1-.22,1.14s.07.18.42.25l.57-.45L43,133.82A5.57,5.57,0,0,0,47.13,135.25Z"/><path class="cls-5" d="M41.35,131.07s2.46,2.7,3.84,2.53c0,0,.63,0,.12-.46a16.51,16.51,0,0,0-2.56-1.7Z"/><polygon class="cls-6" points="48.52 78.56 49.68 105.71 53.44 132.28 56.05 132.3 56.21 104.51 56.8 78.56 48.52 78.56"/><polygon class="cls-7" points="55.19 80.08 50.96 87.33 50.62 109.5 43.53 131.81 40.95 130.88 45.52 109.07 42.4 79.73 55.19 80.08"/><rect class="cls-8" x="43.94" y="44.36" width="6.87" height="12.8"/><path class="cls-9" d="M47.51,32.3l.37,38.45,10.28-1.56-1.7-32.48S55.64,31.1,47.51,32.3Z"/><path class="cls-4" d="M60.46,134.79c-.11-1.63-6.08-2.92-5.21-2.67a1.44,1.44,0,0,0-1.47-.21.91.91,0,0,0-.22.89,4.58,4.58,0,0,1,.08,1.16s.11.15.47.14l.43-.59,1.57,1A5.57,5.57,0,0,0,60.46,134.79Z"/><path class="cls-5" d="M53.8,132.24s3.06,2,4.36,1.46c0,0,.6-.17,0-.48a16.49,16.49,0,0,0-2.92-1Z"/><path class="cls-5" d="M65.31,70.27s.42-1.65-1.07-4.26L60.62,58.8s-2.39-5.26-4.55-4.31c0,0-4.42,1.35,1,7.72l2.79,5.18s2.94,6.4,5.43,2.88"/><rect class="cls-5" x="47.91" y="48.26" width="3.84" height="5.13"/><path class="cls-5" d="M41.15,55.61a5.23,5.23,0,0,1,2.75-2.1l4-1.49h3.84l4,1.49a5.23,5.23,0,0,1,2.75,2.1Z"/><path class="cls-5" d="M45.52,46.3a7.13,7.13,0,0,0,2.93,2.63,7.06,7.06,0,0,0,1.48.53,3.24,3.24,0,0,0,1.53.19c5.15-2.25,3.48-12.17,3.48-12.17-.77-4.75-4.83-4.74-4.83-4.74-3.07-.13-5.87,1.32-6.34,4.55a20.24,20.24,0,0,0,.12,3.81,9.77,9.77,0,0,0,.45,2.68A10.78,10.78,0,0,0,45.52,46.3Z"/><path class="cls-10" d="M50.82,49.26c-2.29-.16-4.13-1.94-5.66-3.57.11.21.23.41.36.61a7.13,7.13,0,0,0,2.93,2.63,7.06,7.06,0,0,0,1.48.53,3.24,3.24,0,0,0,1.53.19,5,5,0,0,0,2-1.56A4.82,4.82,0,0,1,50.82,49.26Z"/><path class="cls-9" d="M46,46.92c-.47-3.48-.55-6.13,2.09-7.3,1.79-.78,6.32-1.07,6.32-4,0-2.34-2.31-2.82-4.21-3.32-2.87-.75-7.11,1.43-7.8,4.41C42.36,36.69,41.13,44.18,46,46.92Z"/><path class="cls-5" d="M76.51,57c-.82-.67-1.08-.14-1.64.44s-.32.42-.77.86a1.19,1.19,0,0,0,.29-.9c-.08-.5-.6-.34-.6-.34l-.53,1.42c-.11.29-.23.58-.32.89a2,2,0,0,0,0,1.17,1,1,0,0,0,1.45.56,6.29,6.29,0,0,0,1.3-1.06S77.26,58.41,76.51,57Z"/><path class="cls-5" d="M64.22,66.83l8.67-6.7,1.55.91-8.8,9.21s-1.84,2.14-3.12.35C62.52,70.6,61.39,69,64.22,66.83Z"/><path class="cls-5" d="M46,42.7s-.4-1.69-1.7-1c0,0-.59.3-.16,1.46,0,0,.61,1.67,1.86,1Z"/><path class="cls-11" d="M57.43,59.76a5.79,5.79,0,0,1-1.7,5.57l2.16,16.28H42a25.93,25.93,0,0,1,2.48-10.08,10,10,0,0,0-1.3-9.7,4.37,4.37,0,0,0-.49-.56l-2.33-3.53a5.19,5.19,0,0,1,3.53-4.23l3-1.1a8.27,8.27,0,0,0,4.44,2A3.12,3.12,0,0,0,53,52.49l2,.74A35.68,35.68,0,0,0,57.43,59.76Z"/><path class="cls-5" d="M42.51,81l-1.3,1.25L34,71.48a3.25,3.25,0,0,1-.46-3.89l6.36-10.16c1.84-3.86,4.34-4,4.34-4,3.16,3.64-.48,7.84-.48,7.84L37,69A69.06,69.06,0,0,1,42.51,81Z"/><path class="cls-5" d="M40.63,82.91c-.5.31-1.05-.18-1.36.45-.59,1.21,1.43,1.43,2.07,1.12A3.36,3.36,0,0,0,43,82.3c.06-.62-.58-1.8-1.33-1.61C40.72,80.93,41.44,82.41,40.63,82.91Z"/><path class="cls-9" d="M46.93,39.72s-1.13.18-1.3,4V68.83s-2,2.31-6,1.45c0,0,1.13-1,1.43-3.88l.55-24.86S41.15,34.9,45.58,33Z"/><path class="cls-12" d="M86,16a4.56,4.56,0,0,0-4.56-4.56,4.67,4.67,0,0,0-1.63.31,5.62,5.62,0,0,0-10.79-.93,2.4,2.4,0,0,0-3.79,2,1.93,1.93,0,0,0,0,.42,3.22,3.22,0,1,0-2.61,5.86,4.58,4.58,0,0,0,3.43,7.61A4.49,4.49,0,0,0,68,26.25a4.55,4.55,0,0,0,8.91.92,4.55,4.55,0,1,0,6-6.85A4.56,4.56,0,0,0,86,16Z"/><path class="cls-13" d="M86,16a4.56,4.56,0,0,0-3.46-4.42,5.45,5.45,0,0,1,1.73,3.63A4.63,4.63,0,0,1,82.81,19a3.8,3.8,0,0,1-2.08.76c.87,1.12,1.19,2.53-.09,3.67a2.82,2.82,0,0,1-4.28-.22A3.85,3.85,0,0,1,75,26.46a4.85,4.85,0,0,1-3,.7,3.71,3.71,0,0,1-3.33-3.61c0,.1-.62.51-.72.58a3.39,3.39,0,0,1-.8.42c-1.9.7-4.33-.9-4.12-3a6.07,6.07,0,0,1,.65-2.17c.16-.28.6-1,1-.93-2.51-.17-3.11-4.4-.28-5.64a3.08,3.08,0,0,0-.68-.07,3.22,3.22,0,0,0-1,6.28,4.58,4.58,0,0,0,3.43,7.61A4.49,4.49,0,0,0,68,26.25a4.55,4.55,0,0,0,8.91.92,4.55,4.55,0,1,0,6-6.85A4.56,4.56,0,0,0,86,16Z"/><path class="cls-12" d="M65.9,29.37a1.67,1.67,0,1,1-.45-2A1.47,1.47,0,0,1,65.9,29.37Z"/><path class="cls-12" d="M63.53,30.52A1.1,1.1,0,0,1,62,30.46,1,1,0,1,1,63.19,29,1.11,1.11,0,0,1,63.53,30.52Z"/><path class="cls-12" d="M61.44,31a.9.9,0,0,1-1.33-1.1.79.79,0,0,1,1.09,0A.78.78,0,0,1,61.44,31Z"/><path class="cls-14" d="M72.65,14.21a2.91,2.91,0,0,1,2.92-2.91,2.88,2.88,0,0,1,1.71.55,2.92,2.92,0,1,0-4.07,4.08A2.9,2.9,0,0,1,72.65,14.21Z"/><path class="cls-14" d="M67.71,21.16a2.22,2.22,0,0,1,2.59,1.76,2.24,2.24,0,0,1-.18,1.36,2.21,2.21,0,0,0,.57-1.93,2.21,2.21,0,0,0-4.18-.53A2.19,2.19,0,0,1,67.71,21.16Z"/><path class="cls-15" d="M70.59,19.25A1.24,1.24,0,1,1,69.35,18,1.25,1.25,0,0,1,70.59,19.25Z"/><path class="cls-15" d="M74.5,19.08a1.24,1.24,0,1,1-1.24-1.24A1.24,1.24,0,0,1,74.5,19.08Z"/><path class="cls-15" d="M78.41,18.91a1.24,1.24,0,1,1-1.23-1.24A1.24,1.24,0,0,1,78.41,18.91Z"/><path class="cls-3" d="M85.66,135.46c0,1.71,7.52,3.1,16.79,3.1s16.79-1.39,16.79-3.1-7.52-3.12-16.79-3.12S85.66,133.74,85.66,135.46Z"/><path class="cls-16" d="M101.21,133.2l-5.83,1.49a1.23,1.23,0,0,0-.74,1.27h10l-.15-2.76Z"/><path class="cls-5" d="M74.84,80.71c-.36-1,.23-1.06,1-1.4.56-.25.5-.16,1.07-.44a1.19,1.19,0,0,1-1,0,.45.45,0,0,1-.12-.69l1.51,0c.32,0,.63,0,1,0a2,2,0,0,1,1.09.43,1,1,0,0,1,0,1.56A6.25,6.25,0,0,1,78,81S75.91,81.89,74.84,80.71Z"/><path class="cls-17" d="M79.72,81.21l12-4A11.71,11.71,0,0,0,95.55,73l5.65-7.79s.33-7.83-3.39-9a65.66,65.66,0,0,0-3.68,9.19l-3.31,6.21s-.57,1.34-4.36,3.22l-7.28,2.93S78.46,80.08,79.72,81.21Z"/><polygon class="cls-18" points="98.94 78.62 101.14 133.2 104.57 133.2 110.34 78.62 98.94 78.62"/><polygon class="cls-19" points="100.7 78.51 105.53 91.88 107.91 109.99 110.52 133.2 113.98 133.2 113.27 107.77 114.53 78.51 100.7 78.51"/><rect class="cls-5" x="104.92" y="48.4" width="4.03" height="5.4"/><path class="cls-5" d="M116.07,56.14a5.49,5.49,0,0,0-2.89-2.21L109,52.37h-4l-4.23,1.56a5.45,5.45,0,0,0-2.88,2.21Z"/><path class="cls-20" d="M109,52.37l4.23,1.56a5.46,5.46,0,0,1,3.72,4.45L115,62.09l.71,24.18H97.81l.81-23.37L97,58.38a5.44,5.44,0,0,1,3.71-4.45l4.23-1.56L106.28,54Z"/><path class="cls-5" d="M101.91,48.47a4.61,4.61,0,0,0,1.9,2.57l1.34.08c.74-.2,2-.67,2-.67C110,49,111,49,111.43,47.33c0,0,1-8.37,1-8.37-.16-4.23-4.65-4.53-5.33-4.55s-5-.68-5.7,3.5A22,22,0,0,0,101.91,48.47Z"/><path class="cls-5" d="M102,47.41c.57,1.09,1.61,2.36,3,2.35a9.11,9.11,0,0,0,3.17-.85,15.22,15.22,0,0,0,3.19-1.48l.13-.1h0s1-8.37,1-8.37c-.16-4.23-4.65-4.53-5.33-4.55s-5-.68-5.7,3.5a22,22,0,0,0,.18,9.39A.24.24,0,0,1,102,47.41Z"/><path class="cls-10" d="M110.39,48.54a39.52,39.52,0,0,1-3.91,1.76c-2,.69-3,.8-4.58-1.87v0a4.61,4.61,0,0,0,1.9,2.57l1.34.08c.74-.2,2-.67,2-.67,2.25-1.11,3.35-1.39,3.92-2.25Z"/><path class="cls-21" d="M111.43,47.33c3.1-3.78,2.88-9.09,2.88-9.09.3-7.19-8.2-6.16-8.2-6.16-3,0-3-1.53-3-1.53a2.72,2.72,0,0,0-1,2.74c-.53,0-.56-1-.56-1a2.76,2.76,0,0,0-.79,3.5c-.37,2.05.25,7.48.25,7.48s.17-5.44,1.63-6.61a2.57,2.57,0,0,1,2.51.17s4.9-1.89,5.55,3.08l.63,4.34Z"/><path class="cls-5" d="M111.1,43.73s.53-1.71,1.82-.91c0,0,.59.35.08,1.51,0,0-.75,1.68-2,1Z"/><path class="cls-21" d="M110.73,40a18.21,18.21,0,0,1,0,4.49l.58,0s0-2,1.05-2.17Z"/><path class="cls-22" d="M110.62,133.2l-5.83,1.49A1.23,1.23,0,0,0,104,136h10l-.15-2.76Z"/><path class="cls-23" d="M125.59,86.9s-3.08-12.4-9.26-22.21l3.83-1.49s5.41,8.89,7.48,22.88Z"/><polygon class="cls-5" points="127.87 88.22 127.57 85.55 125.36 85.65 125.54 87.31 127.87 88.22"/><path class="cls-23" d="M125.73,89l.13,1.32c-1,.15-1-1.51-1-1.51a2.19,2.19,0,0,1,2.23-2c.65,0,1.24,1.72,1.24,1.72a11.34,11.34,0,0,1,0,1.77c-.08.47-.61.31-.61.31a.36.36,0,0,1-.6.2.34.34,0,0,1-.61.06c-.4.52-.78-.06-.78-.06Z"/><path class="cls-17" d="M124.93,86.81C118.23,66.56,111.47,61,111.47,61c-2.08-3.46.37-5.44.37-5.44a3.31,3.31,0,0,1,4.85,1.08c.66.78,11.31,18.45,11.53,29.47A6.82,6.82,0,0,1,124.93,86.81Z"/><polygon class="cls-24" points="106.3 53.99 104.89 51.8 102.69 52.96 104.34 55.62 106.3 53.99"/><polygon class="cls-24" points="106.3 53.99 108.97 51.51 111.18 52.9 108.26 55.78 106.3 53.99"/></g></g></g></svg>