<svg xmlns="http://www.w3.org/2000/svg" xmlns:xlink="http://www.w3.org/1999/xlink" viewBox="0 0 1818.65 450.28"><defs><style>.cls-1{fill:none;}.cls-2{fill:#8f8f8f;}.cls-3{fill:#ccc;}.cls-4,.cls-5{stroke:#fff;stroke-miterlimit:10;stroke-width:0;}.cls-4{fill:url(#linear-gradient);}.cls-5{fill:url(#linear-gradient-2);}.cls-6{fill:#292c3d;}.cls-7{fill:#b9d2db;}.cls-8{fill:#73c4d1;}</style><linearGradient id="linear-gradient" x1="1146.45" y1="403.34" x2="1168.94" y2="305.64" gradientUnits="userSpaceOnUse"><stop offset="0" stop-color="#b6c4e3"/><stop offset="1" stop-color="#e8efff"/></linearGradient><linearGradient id="linear-gradient-2" x1="1142.57" y1="421.16" x2="1184.04" y2="239.83" xlink:href="#linear-gradient"/></defs><g id="Layer_2" data-name="Layer 2"><g id="_Layer_" data-name="&lt;Layer&gt;"><rect class="cls-1" y="127.93" width="1818.65" height="322.34"/><rect class="cls-2" x="598.5" width="99.47" height="302.12" transform="translate(1296.47 302.12) rotate(180)"/><rect class="cls-3" x="424.49" y="290.72" width="447.5" height="22.81"/><polygon class="cls-4" points="1233 274.98 1206.08 377.12 1145.92 377.12 1118.99 274.98 1233 274.98"/><path class="cls-5" d="M1233,275s-59.27,11.13-59.27,102.14h-27.81L1119,275Z"/><path class="cls-6" d="M845.4,348.34s-31.3,37.26-35,45.18,5.28,17.89,17.48,13.83,19.31-12.4,19.52-17.69,6.71-8.11,9.55-8.52,19.11-18.92,17.48-24-9.78-10.65-9.78-10.65Z"/><path class="cls-6" d="M939,348.34s31.3,37.26,35,45.18-5.28,17.89-17.48,13.83S937.17,395,937,389.66s-6.7-8.11-9.55-8.52-19.11-18.92-17.48-24,9.79-10.65,9.79-10.65Z"/><rect class="cls-7" x="770.3" y="192.95" width="10.21" height="215.34"/><rect class="cls-7" x="1006.13" y="192.95" width="10.21" height="215.34"/><rect class="cls-6" x="750.28" y="175.6" width="279.31" height="27.59"/><path class="cls-8" d="M856.36,162.13c-3.73-8.87-4.48-27.63-29.59-27.63-48.36,0-37,38.75-36.29,44.55,7.32,57.7,42.41,172.81,42.41,172.81h48.43s-17.61-141-20.33-162.8C860.61,186.07,858.92,168.23,856.36,162.13Z"/><path class="cls-8" d="M928.14,162.13c3.73-8.87,4.49-27.63,29.6-27.63,48.39,0,37,38.75,36.28,44.55-7.32,57.7-42.4,172.81-42.4,172.81H903.18s17.62-141,20.34-162.8C923.89,186.07,925.58,168.23,928.14,162.13Z"/></g></g></svg>