<svg xmlns="http://www.w3.org/2000/svg" viewBox="0 0 163 163"><defs><style>.cls-1{isolation:isolate;}.cls-2{fill:#6fbfc6;}.cls-3{fill:#040a10;}.cls-17,.cls-4{fill:#fff;}.cls-11,.cls-5{fill:#dfdfdf;}.cls-6{fill:#ffba1f;}.cls-7{fill:#979797;}.cls-8{fill:none;}.cls-8,.cls-9{stroke:#a8a8a8;}.cls-14,.cls-8,.cls-9{stroke-miterlimit:10;}.cls-9{fill:#a0e39e;}.cls-10{fill:#ff9320;}.cls-11{mix-blend-mode:multiply;}.cls-12{fill:#26333b;}.cls-13{opacity:0.41;}.cls-14{fill:#d9d0cf;stroke:#424242;}.cls-15{fill:#ff9920;}.cls-16{fill:#0083ff;opacity:0.19;}.cls-17{opacity:0.35;}.cls-18{opacity:0.54;}.cls-19{fill:#eeebfc;}</style></defs><g class="cls-1"><g id="Layer_2" data-name="Layer 2"><g id="Layer_1-2" data-name="Layer 1"><circle class="cls-2" cx="81.5" cy="81.5" r="81.5"/><path class="cls-3" d="M75.48,85.06l.43-3.23a2.59,2.59,0,0,0-2.46-3.13H47.59l-.84,6.36L46.24,89l-4.86,36.76c-.53,4,2,7.25,5.7,7.25h56.44c3.67,0,7.08-3.25,7.61-7.25l5.38-40.69Z"/><path class="cls-4" d="M97,87.72,61.18,66.59c17.08-9.3,8.39-33.82,25.47-43.12Q104.53,34,122.43,44.6C105.35,53.9,114,78.42,97,87.72Z"/><path class="cls-5" d="M89.1,58.93,75.28,50.77c2.31-8.45,3.5-17.56,10.27-23.39l13.82,8.17C92.6,41.37,91.41,50.48,89.1,58.93Z"/><path class="cls-6" d="M115.05,47.09l-14.64-8.65A19.66,19.66,0,0,1,101.88,37l14.64,8.65A19.66,19.66,0,0,0,115.05,47.09Z"/><path class="cls-7" d="M106.6,45.38l-8-4.72c.25-.34.5-.68.76-1l8,4.72C107.1,44.7,106.84,45,106.6,45.38Z"/><path class="cls-7" d="M82.68,57.58l-8-4.73.37-1.24,8,4.72Z"/><path class="cls-5" d="M88.13,62.17,74.31,54c.07-.2.13-.41.2-.61l13.82,8.16C88.26,61.76,88.2,62,88.13,62.17Z"/><path class="cls-5" d="M87.74,63.32,73.92,55.15l.21-.6L88,62.71Z"/><path class="cls-5" d="M111.93,51.39,97.29,42.74l.22-.38L112.15,51C112.07,51.13,112,51.26,111.93,51.39Z"/><path class="cls-5" d="M110.88,53.48,96.24,44.83l.19-.4q7.32,4.32,14.63,8.65Z"/><path class="cls-5" d="M110,55.66,95.35,47c.05-.14.1-.28.16-.42l14.63,8.64Z"/><path class="cls-5" d="M109.21,57.91,94.57,49.27c.05-.15.09-.29.14-.43l14.64,8.64C109.3,57.63,109.25,57.77,109.21,57.91Z"/><path class="cls-5" d="M108.53,60.22,93.89,51.58c0-.15.08-.3.13-.44l14.63,8.64Z"/><path class="cls-5" d="M107.91,62.57,93.27,53.92l.12-.45L108,62.12C108,62.27,108,62.42,107.91,62.57Z"/><path class="cls-5" d="M107.32,64.93,92.68,56.28c0-.15.08-.3.11-.45l14.64,8.65C107.39,64.63,107.35,64.78,107.32,64.93Z"/><path class="cls-5" d="M106.72,67.29Q99.42,63,92.09,58.64c0-.15.07-.3.11-.44l14.64,8.64Z"/><path class="cls-5" d="M106.1,69.63,91.46,61c0-.15.08-.29.13-.44l14.63,8.65Z"/><path class="cls-5" d="M105.41,71.93,90.77,63.28c0-.14.09-.28.14-.43l14.64,8.65C105.5,71.64,105.45,71.78,105.41,71.93Z"/><path class="cls-5" d="M104.62,74.17,90,65.53l.15-.42,14.64,8.64C104.73,73.89,104.68,74,104.62,74.17Z"/><path class="cls-5" d="M103.71,76.34,89.07,67.7l.19-.4,14.63,8.64Z"/><circle class="cls-8" cx="86.4" cy="37.54" r="0.92"/><ellipse class="cls-8" cx="86.37" cy="37.59" rx="6.88" ry="2.49" transform="translate(11.77 95.1) rotate(-61.15)"/><ellipse class="cls-8" cx="86.43" cy="37.59" rx="2.49" ry="7.12" transform="translate(46.68 123.06) rotate(-88.57)"/><ellipse class="cls-8" cx="86.38" cy="37.58" rx="2.49" ry="6.88" transform="translate(-6.98 50.1) rotate(-31.15)"/><circle class="cls-9" cx="87.25" cy="32.47" r="0.65"/><circle class="cls-9" cx="90.47" cy="41.27" r="0.65"/><circle class="cls-9" cx="81.41" cy="39.27" r="0.65"/><polygon class="cls-5" points="45.51 101.55 95.82 101.55 101.13 45.62 50.82 45.62 45.51 101.55"/><polygon class="cls-10" points="44.59 101.37 94.91 101.37 99.4 43.97 49.09 43.97 44.59 101.37"/><polygon class="cls-6" points="43.65 99.52 94.71 99.52 98.45 42.12 53.94 42.12 43.65 99.52"/><polygon class="cls-4" points="95.17 101.5 44.85 101.5 44.85 46.92 50.91 40.87 95.17 40.87 95.17 101.5"/><rect class="cls-5" x="48.32" y="45.62" width="19.44" height="30.71"/><rect class="cls-6" x="71.3" y="45.62" width="20.58" height="2.38"/><rect class="cls-7" x="71.3" y="49.9" width="11.25" height="1.52"/><rect class="cls-7" x="48.32" y="77.34" width="11.25" height="1.52"/><rect class="cls-5" x="48.32" y="79.54" width="19.44" height="0.76"/><rect class="cls-5" x="48.32" y="80.97" width="19.44" height="0.76"/><rect class="cls-5" x="71.3" y="53.87" width="20.58" height="0.53"/><rect class="cls-5" x="71.3" y="56.69" width="20.58" height="0.53"/><rect class="cls-5" x="71.3" y="59.52" width="20.58" height="0.53"/><rect class="cls-5" x="71.3" y="62.34" width="20.58" height="0.53"/><rect class="cls-5" x="71.3" y="65.17" width="20.58" height="0.53"/><rect class="cls-5" x="71.3" y="67.99" width="20.58" height="0.53"/><rect class="cls-5" x="71.3" y="70.82" width="20.58" height="0.53"/><rect class="cls-5" x="71.3" y="73.64" width="20.58" height="0.53"/><rect class="cls-5" x="71.3" y="76.47" width="20.58" height="0.53"/><rect class="cls-5" x="71.3" y="79.3" width="20.58" height="0.53"/><rect class="cls-5" x="71.3" y="82.12" width="20.58" height="0.53"/><rect class="cls-5" x="71.3" y="84.95" width="20.58" height="0.53"/><path class="cls-11" d="M95.16,88.92l-25-1.22V85.51a3.39,3.39,0,0,0-3.37-3.38l-21.92,0V86L72.91,98.84"/><path class="cls-12" d="M69.14,89V86a2.86,2.86,0,0,0-2.87-2.87H40.42v43.19A6.66,6.66,0,0,0,47.08,133h56.44a6.66,6.66,0,0,0,6.65-6.66V89Z"/><g class="cls-13"><path class="cls-14" d="M57.11,53.78v9.9l-5.94,9.57S50,75.59,53,75.16H68.06s2.28.22,1.6-1.91l-7.31-9.79V53.68h1.36s1.83-1.92,0-1.92h-2"/><path class="cls-14" d="M59.39,51.76H55.74s-1.83-.42,0,2.13h1.37"/><ellipse class="cls-14" cx="60.53" cy="51.55" rx="1.14" ry="1.06"/><ellipse class="cls-14" cx="61.67" cy="66.23" rx="1.37" ry="1.28"/><ellipse class="cls-14" cx="57.68" cy="70.38" rx="1.25" ry="1.17"/><line class="cls-14" x1="55.52" y1="66.23" x2="60.3" y2="66.23"/><line class="cls-14" x1="63.04" y1="66.23" x2="64.42" y2="66.23"/><line class="cls-14" x1="57.11" y1="59.79" x2="58.7" y2="59.85"/><line class="cls-14" x1="57.11" y1="58.36" x2="58.7" y2="58.36"/><line class="cls-14" x1="57.11" y1="57.08" x2="58.7" y2="57.08"/><line class="cls-14" x1="57.11" y1="55.6" x2="58.7" y2="55.59"/></g><path class="cls-15" d="M51.15,46.29A19.43,19.43,0,1,0,78,52.14,19.45,19.45,0,0,0,51.15,46.29Zm22.66,8.54a14.45,14.45,0,1,1-20-4.35A14.48,14.48,0,0,1,73.81,54.83Z"/><circle class="cls-16" cx="61.49" cy="62.4" r="15.45" transform="translate(-11.53 110.82) rotate(-78.97)"/><circle class="cls-17" cx="55.22" cy="63.71" r="5.91" transform="translate(-17.88 105.72) rotate(-78.97)"/><circle class="cls-17" cx="59.1" cy="72.11" r="1.59"/><path class="cls-17" d="M69.82,56.79a10,10,0,0,1,1.68,4.85l3.06-1a13.19,13.19,0,0,0-20.44-9.2l1.76,2.61A10,10,0,0,1,69.82,56.79Z"/><path class="cls-6" d="M51.19,47.12a18.43,18.43,0,1,0,25.59,5A18.44,18.44,0,0,0,51.19,47.12Zm18.93,28.1A15.45,15.45,0,1,1,74.3,53.77,15.45,15.45,0,0,1,70.12,75.22Z"/><g class="cls-18"><path class="cls-4" d="M70.56,66.7a9.91,9.91,0,0,1-3.46,4l1.75,2.61a13.13,13.13,0,0,0,4.87-6Z"/></g><path class="cls-6" d="M88.92,103.13h0a4.52,4.52,0,0,1-6.26-1.22L72.26,86.47l7.49-5,10.4,15.43A4.52,4.52,0,0,1,88.92,103.13Z"/><rect class="cls-12" x="68.76" y="77.35" width="11.2" height="8.31" rx="4.16" transform="translate(-32.85 55.45) rotate(-33.97)"/><polygon class="cls-11" points="44.85 46.92 50.91 40.87 49.97 47.7 44.85 46.92"/><polygon class="cls-19" points="44.85 46.92 50.91 40.87 50.91 46.92 44.85 46.92"/></g></g></g></svg>