<svg xmlns="http://www.w3.org/2000/svg" viewBox="0 0 155 155"><defs><style>.cls-1{isolation:isolate;}.cls-2{fill:#ffd400;}.cls-3{fill:#e6e7e8;}.cls-10,.cls-13,.cls-3,.cls-8{opacity:0.5;}.cls-13,.cls-3,.cls-8{mix-blend-mode:multiply;}.cls-4{fill:#9d5742;}.cls-15,.cls-16,.cls-5,.cls-7,.cls-9{fill:none;}.cls-15,.cls-5,.cls-9{stroke:#6d344b;}.cls-16,.cls-5,.cls-7,.cls-9{stroke-miterlimit:10;}.cls-15,.cls-16,.cls-5{stroke-width:4.08px;}.cls-6,.cls-8{fill:#eac579;}.cls-7{stroke:#e6a871;}.cls-7,.cls-9{stroke-width:2.48px;}.cls-10,.cls-11,.cls-14{fill:#fff;}.cls-10,.cls-14{mix-blend-mode:soft-light;}.cls-12{fill:#c16c52;}.cls-13{fill:#5b8596;}.cls-14{opacity:0.2;}.cls-15{stroke-linecap:round;stroke-linejoin:round;}.cls-16{stroke:#fff;stroke-dasharray:3.02 3.02;}.cls-17{fill:#231f20;}.cls-18{fill:#f26f4f;}.cls-19{fill:#6d344b;}</style></defs><g class="cls-1"><g id="Layer_2" data-name="Layer 2"><g id="Layer_1-2" data-name="Layer 1"><circle class="cls-2" cx="77.5" cy="77.5" r="77.5"/><path class="cls-3" d="M146.55,114.83c0,7.3-29.53,13.22-66,13.22s-65.95-5.92-65.95-13.22,29.53-13.21,65.95-13.21S146.55,107.53,146.55,114.83Z"/><rect class="cls-4" x="27.49" y="36.71" width="99.64" height="72.65" rx="4.24"/><rect class="cls-5" x="27.49" y="36.71" width="99.64" height="72.65" rx="4.24"/><path class="cls-6" d="M90.34,30.74A20.44,20.44,0,1,1,69.9,10.3,20.44,20.44,0,0,1,90.34,30.74Z"/><line class="cls-7" x1="69.9" y1="10.3" x2="69.9" y2="51.1"/><line class="cls-7" x1="90.3" y1="30.7" x2="49.5" y2="30.7"/><line class="cls-7" x1="77.2" y1="11.65" x2="62.59" y2="49.75"/><line class="cls-7" x1="88.95" y1="38.01" x2="50.85" y2="23.4"/><line class="cls-7" x1="77.2" y1="11.65" x2="62.59" y2="49.75"/><line class="cls-7" x1="88.95" y1="38.01" x2="50.85" y2="23.4"/><line class="cls-7" x1="80.86" y1="13.49" x2="58.94" y2="47.91"/><line class="cls-7" x1="87.11" y1="41.66" x2="52.69" y2="19.75"/><line class="cls-7" x1="84.07" y1="16.02" x2="55.73" y2="45.38"/><line class="cls-7" x1="84.58" y1="44.87" x2="55.22" y2="16.53"/><line class="cls-7" x1="86.71" y1="19.14" x2="53.09" y2="42.26"/><line class="cls-7" x1="81.46" y1="47.51" x2="58.34" y2="13.89"/><line class="cls-7" x1="88.68" y1="22.72" x2="51.12" y2="38.68"/><line class="cls-7" x1="77.88" y1="49.48" x2="61.92" y2="11.92"/><line class="cls-7" x1="89.89" y1="26.63" x2="49.91" y2="34.77"/><line class="cls-7" x1="73.97" y1="50.69" x2="65.83" y2="10.71"/><line class="cls-7" x1="89.89" y1="26.63" x2="49.91" y2="34.77"/><line class="cls-7" x1="73.97" y1="50.69" x2="65.83" y2="10.71"/><line class="cls-7" x1="89.96" y1="34.43" x2="49.84" y2="26.97"/><line class="cls-7" x1="66.17" y1="50.76" x2="73.63" y2="10.64"/><path class="cls-6" d="M83.49,30.74A13.24,13.24,0,1,1,70.26,17.5,13.23,13.23,0,0,1,83.49,30.74Z"/><path class="cls-8" d="M83.28,28.4c0,.16,0,.31,0,.47a10.44,10.44,0,1,1-6.58-9.68,13.1,13.1,0,0,0-6.46-1.69A13.24,13.24,0,1,0,83.49,30.74,12.89,12.89,0,0,0,83.28,28.4Z"/><path class="cls-9" d="M83.49,30.74A13.24,13.24,0,1,1,70.26,17.5,13.23,13.23,0,0,1,83.49,30.74Z"/><path class="cls-10" d="M79.86,28.82A6.78,6.78,0,1,1,73.08,22,6.78,6.78,0,0,1,79.86,28.82Z"/><path class="cls-9" d="M90.34,30.74A20.44,20.44,0,1,1,69.9,10.3,20.44,20.44,0,0,1,90.34,30.74Z"/><path class="cls-11" d="M66.53,22.05c-6.09.45-6.46.82-6.91,6.91-.46-6.09-.82-6.46-6.93-6.91,6.11-.45,6.47-.82,6.93-6.92C60.07,21.23,60.44,21.6,66.53,22.05Z"/><path class="cls-12" d="M27.49,48.93v64.16a4.24,4.24,0,0,0,4.24,4.24h84.85a4.24,4.24,0,0,0,4.24-4.24V48.93a4.24,4.24,0,0,0-4.24-4.24H36.35s-6.64.51-6.4-7.1a5.74,5.74,0,0,0-2.46,2.63Z"/><path class="cls-13" d="M74.21,95.72c-12.82-4.66-26.12-13.8-32.74-26.07a62.76,62.76,0,0,1-6.63-20.89c-.2-1.38-.36-2.82-.45-4.28-1.94-.49-4.59-2-4.44-6.89a5.74,5.74,0,0,0-2.46,2.63v72.87a4.24,4.24,0,0,0,4.24,4.24h84.85a4.24,4.24,0,0,0,4.24-4.24V96.56A73,73,0,0,1,74.21,95.72Z"/><path class="cls-14" d="M54.78,58c1,4.61,2.49,9.33,5.39,13.12A40.64,40.64,0,0,0,81.66,85.49a54.78,54.78,0,0,0,15.86,1.93,43.94,43.94,0,0,0,12.89-2.74V56.26a3,3,0,0,0-3-3H54A36.86,36.86,0,0,0,54.78,58Z"/><path class="cls-15" d="M27.49,48.93v64.16a4.24,4.24,0,0,0,4.24,4.24h84.85a4.24,4.24,0,0,0,4.24-4.24V48.93a4.24,4.24,0,0,0-4.24-4.24H36.35s-6.64.51-6.4-7.1a5.74,5.74,0,0,0-2.46,2.63Z"/><rect class="cls-16" x="32" y="48.19" width="84.31" height="65.63" rx="3.83"/><rect class="cls-12" x="101.15" y="67.3" width="32.39" height="21.54" rx="3.71"/><path class="cls-13" d="M124.61,84c-9-.76-18.89-7.45-20.55-16.65A3.71,3.71,0,0,0,101.15,71V85.12a3.72,3.72,0,0,0,3.71,3.72h25a3.73,3.73,0,0,0,3.72-3.72V83A23,23,0,0,1,124.61,84Z"/><rect class="cls-5" x="101.15" y="67.3" width="32.39" height="21.54" rx="3.71"/><circle class="cls-17" cx="57.44" cy="75.68" r="5.33"/><circle class="cls-17" cx="84.47" cy="75.68" r="5.33"/><path d="M65.12,85.25l11.35.14a1.29,1.29,0,0,1,1.08,2,4,4,0,0,1-.39.53S70.32,98.24,64.82,88C64.82,88,63,85.25,65.12,85.25Z"/><circle class="cls-11" cx="59.6" cy="75.19" r="1.41"/><circle class="cls-11" cx="82.22" cy="75.19" r="1.41"/><path class="cls-18" d="M67.17,90.26a6.09,6.09,0,0,1,6.56,0S70.45,93.92,67.17,90.26Z"/><ellipse class="cls-18" cx="55.49" cy="84.65" rx="4.41" ry="1.78"/><ellipse class="cls-18" cx="86.34" cy="84.5" rx="4.41" ry="1.78"/><path class="cls-19" d="M65.79,22.59H76a.34.34,0,0,1,.34.33l0,1.29a.39.39,0,0,1-.4.41H73.1a4.61,4.61,0,0,1,.74,1.76h2c.26,0,.46.12.46.38V28a.4.4,0,0,1-.4.41h-2S73.65,32,69,32.48l5.53,6.45a.4.4,0,0,1-.31.66H71.91a.41.41,0,0,1-.33-.15l-6.06-6.95a.38.38,0,0,1-.09-.24V30.79a.44.44,0,0,1,.43-.44h2.06s2.5.09,3-2H65.75a.32.32,0,0,1-.32-.33V26.67a.29.29,0,0,1,.29-.29h5.16S70.42,25.08,68,25H65.88a.43.43,0,0,1-.44-.45l0-1.63A.32.32,0,0,1,65.79,22.59Z"/></g></g></g></svg>