<svg xmlns="http://www.w3.org/2000/svg" xmlns:xlink="http://www.w3.org/1999/xlink" viewBox="0 0 200.2 205.65"><defs><style>.cls-1{fill:#765e69;}.cls-10,.cls-2{fill:none;}.cls-3{clip-path:url(#clip-path);}.cls-4{fill:#ffac9d;}.cls-5{fill:#cc887f;}.cls-6{fill:#6f96bd;}.cls-7{clip-path:url(#clip-path-2);}.cls-8{fill:#352c38;}.cls-9{fill:#d3b9a3;}.cls-10,.cls-11{stroke:#765e69;stroke-miterlimit:10;}.cls-10{stroke-width:1.43px;}.cls-11{fill:#a9c7db;stroke-width:1.34px;}.cls-12{fill:#fff;}.cls-13{fill:#fddec0;}</style><clipPath id="clip-path"><circle class="cls-1" cx="100.1" cy="100.1" r="100.09" transform="translate(-41.46 100.1) rotate(-45)"/></clipPath><clipPath id="clip-path-2"><path class="cls-2" d="M126.15,130c-6,6.19-15.45,10.19-26.05,10.19s-20-4-26-10.19c-15.74,4.38-54.43,12.11-49.58,58.54L94.15,204.7h17.63l63.95-16.15C180.58,142.12,141.89,134.39,126.15,130Z"/></clipPath></defs><g id="Layer_2" data-name="Layer 2"><g id="Layer_1-2" data-name="Layer 1"><circle class="cls-1" cx="100.1" cy="100.1" r="100.09" transform="translate(-41.46 100.1) rotate(-45)"/><g class="cls-3"><path class="cls-4" d="M120.66,129c-8.61-4.7-6.26-27.41-6.26-27.41l-12.9.84v-.83l-1.38.41-1.38-.41v.83l-12.9-.84s2.35,22.71-6.27,27.41-59.5,7.05-54,59.51H174.69C180.17,136.09,129.27,133.74,120.66,129Z"/><path class="cls-5" d="M84,123.18q15.45-2.3,30.89-4.75a68.68,68.68,0,0,1-.52-16.8l-12.9.84v-.83l-1.38.41-1.38-.41v.83l-12.9-.84S87.2,114.83,84,123.18Z"/><path class="cls-6" d="M126.15,130c-6,6.19-15.45,10.19-26.05,10.19s-20-4-26-10.19c-15.74,4.38-54.43,12.11-49.58,58.54l68.9,16.71,11.67.39,70.69-17.1C180.58,142.12,141.89,134.39,126.15,130Z"/><g class="cls-7"><path class="cls-8" d="M145.62,134.05l3.51,5.26.5.75.35-.37-6.66,1.4-.95.2.49.14,3.16-6.66.45-.94c.08-.18-.3-.18-.37-.17a.6.6,0,0,0-.5.28l-3.16,6.67-.45.94c-.1.23.44.16.49.14l6.66-1.4,1-.2c.14,0,.48-.18.35-.37l-3.5-5.26-.5-.74C146.29,133.49,145.44,133.77,145.62,134.05Z"/><path class="cls-8" d="M130.77,134.07l3.51,5.26.5.75.32-.48L128.44,141l-1,.19.5.33,3.15-6.66.45-.94c.21-.44-.67-.42-.83-.09l-3.16,6.67-.45.94c-.15.32.29.37.5.33l6.66-1.4.94-.2c.2,0,.47-.26.33-.48l-3.51-5.26-.5-.74C131.37,133.38,130.53,133.71,130.77,134.07Z"/><path class="cls-8" d="M115.91,134.05l3.5,5.26.5.74.36-.35-6.66,1.4-1,.2.49.13,3.15-6.67.45-.94c.08-.17-.29-.16-.37-.15a.62.62,0,0,0-.5.28l-3.16,6.66-.44.94c-.11.22.44.15.48.14l6.66-1.41,1-.2c.13,0,.48-.17.36-.35l-3.51-5.26-.5-.75C116.58,133.5,115.73,133.78,115.91,134.05Z"/><path class="cls-8" d="M101.05,134.06l3.51,5.26.5.75.34-.42-6.66,1.41-.95.2.47.25,3.16-6.67.45-.94c.18-.39-.69-.31-.82,0l-3.16,6.66-.45.94c-.14.3.3.29.48.26l6.66-1.4.94-.2c.16,0,.48-.21.35-.42l-3.51-5.26-.5-.74C101.69,133.45,100.84,133.74,101.05,134.06Z"/><path class="cls-8" d="M86.16,134l3.51,5.26.5.75.51-.31L84,141.1l-1,.2.36.12,3.16-6.66.44-.94c.09-.19-.75-.11-.86.13L83,140.62l-.45.94c-.07.16.32.13.36.12l6.66-1.4,1-.2s.61-.16.51-.31l-3.51-5.26-.49-.74C86.88,133.53,86.07,133.86,86.16,134Z"/><path class="cls-8" d="M71.34,134.07l3.51,5.26.49.75.33-.48L69,141l-1,.2.49.32,3.16-6.66.45-.94c.2-.44-.68-.42-.83-.09l-3.16,6.67-.45.94c-.15.32.29.37.49.33l6.66-1.4.95-.2c.19-.05.47-.26.33-.48l-3.51-5.26-.5-.74C71.93,133.38,71.1,133.71,71.34,134.07Z"/><path class="cls-8" d="M56.48,134.06l3.5,5.26.5.74.35-.4-6.66,1.41-1,.2.47.23,3.15-6.66.45-.94c.18-.39-.69-.29-.81,0l-3.16,6.67-.45.94c-.14.29.3.27.47.24L60,140.31l1-.2c.15,0,.48-.19.34-.39l-3.5-5.26-.5-.75C57.12,133.46,56.27,133.75,56.48,134.06Z"/><path class="cls-8" d="M41.62,134.06l3.51,5.26.49.74.35-.4-6.66,1.4-1,.2.47.25L42,134.84l.44-.94c.19-.39-.68-.31-.81,0l-3.16,6.66-.45.94c-.14.3.3.29.47.26l6.66-1.41,1-.2c.16,0,.48-.2.34-.41l-3.5-5.26-.5-.74C42.26,133.45,41.41,133.74,41.62,134.06Z"/><path class="cls-8" d="M26.73,134l3.51,5.26.49.75.52-.3-6.66,1.4-.95.2.36.11,3.15-6.66.45-.95c.08-.17-.75-.09-.87.14l-3.15,6.67-.45.94c-.07.16.32.12.36.12l6.66-1.41,1-.2s.61-.15.51-.3l-3.51-5.26-.5-.74C27.45,133.53,26.64,133.86,26.73,134Z"/><path class="cls-8" d="M160.48,134.05l3.51,5.26.5.74.35-.35-6.66,1.4-1,.2.49.13,3.16-6.67.44-.94c.09-.17-.29-.16-.36-.15a.65.65,0,0,0-.51.28l-3.15,6.66-.45.94c-.1.22.44.14.49.13l6.66-1.4.94-.2c.13,0,.48-.17.36-.35l-3.51-5.26-.49-.75C161.15,133.5,160.3,133.78,160.48,134.05Z"/><path class="cls-8" d="M154.32,146.89l3.51,5.26.5.74.32-.47L152,153.83l-1,.2.5.32,3.15-6.67.45-.94c.2-.43-.68-.41-.83-.08l-3.16,6.66-.45,1c-.14.31.29.36.5.32l6.65-1.41,1-.19c.19,0,.47-.26.33-.47l-3.51-5.26-.5-.75C154.92,146.2,154.08,146.53,154.32,146.89Z"/><path class="cls-8" d="M139.46,146.89l3.51,5.26.5.75.32-.49-6.66,1.4-.95.2.5.34,3.16-6.66.44-.94c.21-.45-.67-.44-.83-.1l-3.16,6.67-.45.94c-.15.32.29.38.5.34l6.66-1.4.95-.2c.2,0,.47-.27.32-.49l-3.51-5.26-.49-.74C140.05,146.19,139.22,146.52,139.46,146.89Z"/><path class="cls-8" d="M124.6,146.87l3.51,5.26.49.74.35-.37-6.65,1.4-1,.2.49.15,3.16-6.67.44-.94c.09-.18-.29-.18-.37-.17a.6.6,0,0,0-.5.29l-3.16,6.66-.44.94c-.11.23.44.17.49.16l6.66-1.41.95-.2c.14,0,.48-.18.35-.37l-3.51-5.26-.5-.75C125.26,146.3,124.41,146.58,124.6,146.87Z"/><path class="cls-8" d="M109.75,146.89l3.5,5.26.5.74.33-.47-6.66,1.4-1,.2.49.33,3.16-6.67.44-.94c.21-.44-.67-.42-.83-.08l-3.15,6.66-.45.94c-.15.32.29.37.49.33l6.66-1.4,1-.2c.19,0,.47-.26.32-.47l-3.5-5.26-.5-.75C110.34,146.2,109.51,146.52,109.75,146.89Z"/><path class="cls-8" d="M94.85,146.82l3.51,5.26.5.74.51-.31-6.66,1.4-.95.2.36.13,3.16-6.67.44-.94c.09-.19-.75-.11-.86.14l-3.16,6.66-.45.94c-.07.17.32.14.37.13l6.65-1.4,1-.2s.62-.16.51-.31l-3.5-5.26-.5-.75C95.57,146.34,94.75,146.66,94.85,146.82Z"/><path class="cls-8" d="M80,146.82l3.5,5.26.5.74.52-.26L77.86,154l-1,.2.35.06,3.16-6.66.44-.94c0-.1-.75-.06-.86.16l-3.15,6.67-.45.94c-.06.13.32.07.34.06l6.66-1.4.95-.2s.6-.15.52-.26l-3.5-5.26-.5-.75C80.74,146.38,79.94,146.73,80,146.82Z"/><path class="cls-8" d="M65.17,146.89l3.51,5.26.5.75.32-.49-6.66,1.4-1,.2.5.34,3.16-6.66.44-.94c.21-.45-.67-.45-.83-.1L62,153.32l-.45.94c-.15.32.29.39.5.34l6.66-1.4,1-.2c.2,0,.47-.27.32-.49l-3.51-5.26-.5-.74C65.76,146.18,64.92,146.52,65.17,146.89Z"/><path class="cls-8" d="M50.31,146.89l3.51,5.25.5.75.33-.46L48,153.83l-1,.2.49.31,3.16-6.66.44-.94c.2-.43-.68-.4-.83-.08l-3.16,6.67-.44.94c-.15.31.29.35.49.31l6.66-1.4.94-.2c.19,0,.48-.25.33-.46l-3.5-5.26-.5-.75C50.92,146.21,50.08,146.53,50.31,146.89Z"/><path class="cls-8" d="M35.45,146.88,39,152.14l.5.74.34-.42-6.66,1.4-1,.2.48.27,3.15-6.66.45-.95c.19-.4-.68-.34-.82-.05l-3.16,6.67-.45.94c-.14.31.3.31.48.28L39,153.15l1-.2c.17,0,.47-.22.34-.42l-3.51-5.26-.5-.75C36.08,146.25,35.24,146.55,35.45,146.88Z"/><path class="cls-8" d="M169.14,146.82l3.51,5.26.5.74.52-.26L167,154l-.95.2.35.06,3.15-6.66.45-.94c.06-.13-.3-.07-.34-.07s-.45.09-.52.23L166,153.45l-.44.94c-.06.13.32.07.34.06l6.66-1.4.95-.2s.6-.15.52-.26l-3.5-5.26-.5-.75C169.89,146.38,169.09,146.73,169.14,146.82Z"/><path class="cls-8" d="M145.62,159.68l3.51,5.26.5.74.35-.36-6.66,1.41-.94.2.48.13L146,160.4l.45-1c.08-.17-.3-.17-.37-.16a.67.67,0,0,0-.5.28l-3.16,6.67-.45.94c-.1.22.44.15.49.14l6.66-1.4,1-.2c.13,0,.48-.18.35-.37l-3.5-5.25-.5-.75C146.29,159.13,145.44,159.41,145.62,159.68Z"/><path class="cls-8" d="M130.77,159.68l3.5,5.26.5.75.35-.38-6.66,1.4-1,.2.5.16,3.15-6.67.45-.94c.09-.18-.29-.19-.38-.18a.59.59,0,0,0-.49.29l-3.16,6.67-.45.94c-.11.23.44.17.5.16l6.66-1.41.94-.2c.15,0,.48-.19.35-.38l-3.5-5.26-.5-.75C131.42,159.11,130.57,159.39,130.77,159.68Z"/><path class="cls-8" d="M115.91,159.7l3.51,5.26.5.74.33-.45-6.66,1.4-1,.2.49.31,3.15-6.67.45-.94c.2-.43-.68-.39-.83-.07l-3.16,6.66-.44,1c-.15.31.29.34.48.3l6.66-1.4,1-.2c.18,0,.47-.24.33-.46l-3.51-5.25-.49-.75C116.52,159,115.68,159.35,115.91,159.7Z"/><path class="cls-8" d="M101.06,159.7l3.5,5.26.5.74.33-.45-6.66,1.41-1,.19.49.3,3.15-6.66.45-.94c.2-.42-.68-.38-.83-.07l-3.15,6.67-.45.94c-.15.31.29.34.49.3l6.65-1.4,1-.2c.18,0,.48-.24.33-.45l-3.5-5.26-.5-.75C101.67,159,100.82,159.35,101.06,159.7Z"/><path class="cls-8" d="M86.19,159.68l3.51,5.26.5.75.35-.37-6.66,1.4-1,.2.49.14,3.16-6.66.45-.94c.08-.18-.3-.18-.38-.17a.63.63,0,0,0-.5.28L83,166.24l-.45.94c-.11.23.44.16.49.14l6.66-1.4,1-.2c.13,0,.48-.18.35-.37l-3.51-5.26-.49-.74C86.86,159.12,86,159.4,86.19,159.68Z"/><path class="cls-8" d="M71.34,159.7l3.5,5.26.5.74.34-.44L69,166.66l-1,.2.48.29,3.16-6.66.44-1c.2-.41-.68-.36-.82-.06l-3.16,6.67-.44.94c-.15.31.29.33.48.29l6.66-1.4.94-.2c.18,0,.48-.23.34-.44l-3.51-5.26-.5-.75C72,159.05,71.11,159.35,71.34,159.7Z"/><path class="cls-8" d="M56.45,159.63l3.5,5.26.5.75.51-.32-6.66,1.41-.95.2.36.12,3.16-6.66.45-.94c.09-.19-.75-.12-.87.13l-3.16,6.67-.44.94c-.08.16.31.14.36.13l6.66-1.41.94-.19s.62-.16.51-.32l-3.5-5.26-.5-.74C57.16,159.15,56.34,159.48,56.45,159.63Z"/><path class="cls-8" d="M41.62,159.69,45.13,165l.49.74.35-.4-6.66,1.4-1,.2.47.25L42,160.47l.44-.94c.19-.39-.68-.3-.81,0l-3.16,6.66-.45,1c-.14.29.3.28.47.24l6.66-1.4,1-.2c.15,0,.48-.2.34-.4l-3.5-5.26-.5-.75C42.26,159.09,41.41,159.38,41.62,159.69Z"/><path class="cls-8" d="M26.77,159.7l3.5,5.26.5.74.33-.45-6.66,1.4-1,.2.49.31,3.16-6.67.44-.94c.2-.43-.68-.39-.83-.07l-3.15,6.66-.45,1c-.15.31.29.34.49.3l6.65-1.4.95-.2c.19,0,.48-.24.33-.46l-3.5-5.25-.5-.75C27.37,159,26.53,159.35,26.77,159.7Z"/><path class="cls-8" d="M160.49,159.71,164,165l.49.75.32-.52-6.66,1.4-1,.2.51.38,3.15-6.66.45-1c.22-.46-.66-.49-.84-.12l-3.16,6.67-.44.94c-.16.33.28.43.5.38L164,166l.95-.2c.21-.05.46-.29.31-.52l-3.5-5.26-.5-.74C161.05,159,160.23,159.32,160.49,159.71Z"/><path class="cls-8" d="M145.63,185.33l3.51,5.26.49.75.33-.47-6.66,1.4-1,.2.49.32,3.16-6.66.45-.95c.2-.43-.68-.4-.83-.08l-3.16,6.67-.45.94c-.15.32.29.36.49.32l6.66-1.4,1-.2c.19,0,.47-.25.33-.47l-3.51-5.26-.5-.74C146.23,184.65,145.39,185,145.63,185.33Z"/><path class="cls-8" d="M130.77,185.31l3.5,5.26.5.75.35-.38-6.66,1.4-1,.2.5.15,3.15-6.66.45-.94c.08-.18-.29-.19-.37-.18a.61.61,0,0,0-.5.29l-3.16,6.67-.45.94c-.11.23.44.16.5.15l6.65-1.4.95-.2c.14,0,.48-.19.35-.38l-3.5-5.26-.5-.74C131.42,184.74,130.58,185,130.77,185.31Z"/><path class="cls-8" d="M115.92,185.34l3.5,5.26.5.75.31-.52-6.65,1.4-1,.2.5.38,3.16-6.66.45-1c.21-.46-.67-.49-.84-.12l-3.16,6.67-.45.94c-.15.33.29.43.51.38l6.66-1.4.94-.2c.22-.05.47-.29.32-.52l-3.51-5.26-.5-.74C116.48,184.6,115.65,185,115.92,185.34Z"/><path class="cls-8" d="M101,185.26l3.51,5.26.49.75.52-.31-6.66,1.4-.95.2.36.12,3.15-6.66.45-1c.08-.17-.75-.1-.87.14l-3.15,6.67-.45.94c-.07.16.32.13.36.12l6.66-1.4,1-.2s.61-.16.51-.31l-3.51-5.26-.5-.74C101.74,184.79,100.93,185.12,101,185.26Z"/><path class="cls-8" d="M86.2,185.34l3.51,5.26.49.74.32-.49-6.66,1.4-.94.2.49.35,3.16-6.66.45-.94c.21-.45-.67-.46-.84-.11L83,191.76l-.44.94c-.15.32.28.4.5.35l6.66-1.4.94-.2c.21,0,.47-.27.32-.49l-3.5-5.26L87,185C86.78,184.62,86,185,86.2,185.34Z"/><path class="cls-8" d="M71.3,185.26l3.51,5.26.5.75.51-.3-6.66,1.4-.94.2.35.11L71.73,186l.44-.94c.08-.16-.75-.09-.86.15l-3.16,6.66-.44.94c-.08.16.31.12.35.11l6.66-1.4,1-.2s.61-.16.51-.3l-3.5-5.26-.5-.74C72,184.8,71.22,185.13,71.3,185.26Z"/><path class="cls-8" d="M56.48,185.34,60,190.6l.5.75.31-.52-6.66,1.4-1,.2.51.38,3.16-6.66.44-.94c.22-.47-.66-.51-.84-.13l-3.15,6.67-.45.94c-.16.33.28.43.51.38l6.65-1.4.95-.2c.22,0,.47-.29.32-.52l-3.51-5.26-.5-.74C57.05,184.59,56.22,184.94,56.48,185.34Z"/><path class="cls-8" d="M41.62,185.31l3.5,5.26.5.74L46,191l-6.66,1.4-1,.2.49.12L42,186l.45-.94c.08-.17-.3-.15-.37-.14a.65.65,0,0,0-.5.27l-3.16,6.66-.44.95c-.1.21.44.12.48.11l6.66-1.4.95-.2c.12,0,.48-.16.36-.34l-3.51-5.26-.5-.75C42.3,184.78,41.45,185.05,41.62,185.31Z"/><path class="cls-8" d="M26.76,185.32l3.51,5.26.5.75.34-.42-6.66,1.4-.95.2.47.26,3.16-6.67.45-.94c.18-.39-.69-.31-.82,0l-3.16,6.66-.45.94c-.14.3.3.3.48.26l6.66-1.4.94-.2c.16,0,.48-.21.35-.42l-3.51-5.26-.5-.74C27.4,184.71,26.55,185,26.76,185.32Z"/><path class="cls-8" d="M160.45,185.26l3.51,5.26.5.75L165,191l-6.66,1.4-.95.2.35.07,3.15-6.66.45-.95c.05-.11-.76-.05-.86.16l-3.16,6.67-.44.94c-.07.14.31.08.34.07l6.66-1.4.95-.2s.6-.15.52-.27l-3.51-5.26-.49-.74C161.19,184.82,160.39,185.17,160.45,185.26Z"/><path class="cls-8" d="M154.32,172.5l3.5,5.25.5.75.35-.37L152,179.54l-.94.2.49.14,3.15-6.67.45-.94c.08-.18-.3-.17-.37-.17a.64.64,0,0,0-.5.29l-3.16,6.66-.45.95c-.1.22.44.15.49.14l6.66-1.4.95-.2c.13,0,.48-.18.35-.37l-3.5-5.26-.5-.75C155,171.94,154.13,172.22,154.32,172.5Z"/><path class="cls-8" d="M139.46,172.51l3.51,5.26.5.75.33-.45-6.66,1.4-.95.2.49.3,3.15-6.67.45-.94c.2-.42-.68-.38-.83-.06L136.29,179l-.44.94c-.15.31.29.34.48.3l6.66-1.4.95-.2c.18,0,.47-.24.33-.45l-3.51-5.26-.49-.74C140.07,171.85,139.23,172.16,139.46,172.51Z"/><path class="cls-8" d="M124.6,172.51l3.51,5.26.5.75.33-.44-6.66,1.4-.94.2.48.28L125,173.3l.45-.94c.19-.42-.68-.36-.82-.06L121.44,179l-.45.94c-.14.31.3.32.48.28l6.66-1.4,1-.2c.17,0,.47-.23.33-.44l-3.5-5.26-.5-.74C125.22,171.87,124.38,172.17,124.6,172.51Z"/><path class="cls-8" d="M109.71,172.45l3.51,5.26.5.74.51-.3-6.66,1.4-.95.2.36.12,3.16-6.67.44-.94c.08-.17-.75-.1-.86.14l-3.16,6.66-.45.95c-.07.15.32.12.36.11l6.66-1.4,1-.2s.61-.15.51-.3L111.08,173l-.49-.75C110.43,172,109.62,172.31,109.71,172.45Z"/><path class="cls-8" d="M94.88,172.49l3.51,5.26.5.75.35-.35-6.65,1.4-1,.2.48.12,3.16-6.66.45-.94c.08-.18-.3-.16-.37-.15a.63.63,0,0,0-.5.27l-3.16,6.67-.45.94c-.1.21.44.13.49.12l6.66-1.4.94-.2c.13,0,.48-.17.36-.35l-3.5-5.26-.5-.74C95.56,172,94.71,172.23,94.88,172.49Z"/><path class="cls-8" d="M80,172.52l3.51,5.26.49.74.33-.46-6.66,1.4-.94.2.48.31,3.16-6.66.45-.94c.2-.43-.68-.4-.83-.08L76.86,179l-.45.94c-.14.31.3.35.49.31l6.66-1.4,1-.2c.19,0,.47-.25.33-.46l-3.51-5.26-.5-.75C80.63,171.84,79.79,172.16,80,172.52Z"/><path class="cls-8" d="M65.17,172.49l3.5,5.26.5.75.36-.36-6.66,1.4-.95.2.49.14,3.15-6.67.45-.94c.08-.18-.29-.17-.37-.16a.62.62,0,0,0-.5.28L62,179.05l-.44.95c-.11.22.44.15.48.13l6.66-1.4.95-.2c.13,0,.48-.17.36-.36l-3.51-5.26-.5-.75C65.83,171.94,65,172.22,65.17,172.49Z"/><path class="cls-8" d="M50.31,172.51l3.51,5.26.5.74.33-.42L48,179.49l-1,.2.47.27,3.16-6.66.45-1c.19-.4-.69-.34-.82,0L47.15,179l-.45.94c-.14.31.3.31.48.28l6.66-1.41.95-.2c.17,0,.47-.22.33-.42l-3.5-5.26-.5-.75C50.94,171.88,50.09,172.18,50.31,172.51Z"/><path class="cls-8" d="M35.46,172.51l3.5,5.26.5.75.33-.45-6.66,1.4-1,.2.49.3,3.16-6.67.44-.94c.2-.42-.68-.37-.82-.06L32.29,179l-.45.94c-.14.31.3.34.49.3L39,178.8l1-.2c.18,0,.48-.24.33-.45l-3.5-5.26-.5-.74C36.07,171.86,35.23,172.17,35.46,172.51Z"/><path class="cls-8" d="M169.14,172.45l3.51,5.26.5.74.52-.27-6.66,1.4-.95.2.35.08,3.16-6.67.44-.94c.06-.12-.75-.06-.86.16L166,179.07l-.44.94c-.07.14.32.09.35.08l6.65-1.4.95-.2s.6-.15.52-.27l-3.5-5.26-.5-.75C169.88,172,169.08,172.35,169.14,172.45Z"/></g><path class="cls-9" d="M87.71,98.55s-13-3.21-24.36,1.56-9.77-27.47-8.89-28.59S76.32,57.64,76.32,57.64Z"/><path class="cls-9" d="M110.2,98.1s13.17-2.43,24.23,3,11.38-26.84,10.57-28S124,58,124,58Z"/><path class="cls-5" d="M74.9,68.39c-2.54-7.87-8.55-6-9.11-5.86s-6.8,1-5.73,9.2,5.87,12.72,10.36,11.41C75,82.4,77.45,76.31,74.9,68.39Z"/><path class="cls-5" d="M125.57,68.39c2.54-7.87,8.55-6,9.11-5.86s6.8,1,5.73,9.2-5.87,12.72-10.36,11.41C125.43,82.4,123,76.31,125.57,68.39Z"/><path class="cls-4" d="M68.74,56.47C71.89,22,98.13,23.89,100.6,24.14c2.47-.25,28.71-2.19,31.86,32.33,3.16,34.72-12.3,57.39-31.86,56.15C81,113.86,65.58,91.19,68.74,56.47Z"/><path class="cls-10" d="M65.05,64.64l8.83,6.8L95.24,72.5s6.26-6.94,13-.33l19.63.33,8.4-6.81"/><circle class="cls-11" cx="84.74" cy="71.54" r="10.67"/><circle class="cls-11" cx="117.74" cy="71.54" r="10.67"/><path class="cls-5" d="M105.12,73.55a23.49,23.49,0,0,1,1.84,5c.21.84.42,1.68.57,2.54s.29,1.72.39,2.58l0,.4-.22.2c-.7.65-1.42,1.27-2.16,1.89s-1.48,1.21-2.28,1.76c.52-.82,1.1-1.58,1.68-2.35s1.19-1.5,1.81-2.22l-.17.6c-.26-.84-.5-1.68-.69-2.53s-.35-1.7-.5-2.55A24.26,24.26,0,0,1,105.12,73.55Z"/><path class="cls-12" d="M114,94.07c-6.25,6.08-16.83,5.74-24.85.33"/><path class="cls-8" d="M125.35,61.85a44.33,44.33,0,0,0-4.2-2.16,13.36,13.36,0,0,0-4.06-1.12,8.62,8.62,0,0,0-4,.56,14.88,14.88,0,0,0-2,.88c-.7.35-1.34.8-2.14,1.15A11.71,11.71,0,0,1,110.18,59a9,9,0,0,1,1.93-1.75,7.14,7.14,0,0,1,1.17-.68c.42-.17.86-.32,1.29-.47a8.84,8.84,0,0,1,2.76-.21,9.47,9.47,0,0,1,4.91,2A9.78,9.78,0,0,1,125.35,61.85Z"/><path class="cls-8" d="M92.66,61.85a43.15,43.15,0,0,0-4.2-2.16,13.3,13.3,0,0,0-4-1.12,8.62,8.62,0,0,0-4,.56,14.48,14.48,0,0,0-2.06.88c-.69.35-1.34.8-2.14,1.15A11.77,11.77,0,0,1,77.5,59a8.74,8.74,0,0,1,1.93-1.75,7.05,7.05,0,0,1,1.16-.68c.42-.17.86-.32,1.3-.47a8.82,8.82,0,0,1,2.76-.21,9.54,9.54,0,0,1,4.91,2A9.85,9.85,0,0,1,92.66,61.85Z"/><path class="cls-8" d="M91.62,74.36a10.32,10.32,0,0,0-1.92-3.93,4.54,4.54,0,0,0-3.56-1.64,5,5,0,0,0-2,.3,3.72,3.72,0,0,0-1.55,1.18,8.33,8.33,0,0,0-1.41,4.09,6.42,6.42,0,0,1,.64-4.61,4.4,4.4,0,0,1,1.87-1.7,5.87,5.87,0,0,1,2.46-.45,5.09,5.09,0,0,1,4.26,2.27A7.29,7.29,0,0,1,91.62,74.36Z"/><path class="cls-8" d="M121,73.88A10.22,10.22,0,0,0,119.07,70a4.53,4.53,0,0,0-3.55-1.64,5.06,5.06,0,0,0-2,.29A3.9,3.9,0,0,0,112,69.8a8.33,8.33,0,0,0-1.41,4.08,6.42,6.42,0,0,1,.64-4.61,4.44,4.44,0,0,1,1.87-1.69,5.91,5.91,0,0,1,2.46-.46,5.14,5.14,0,0,1,4.27,2.27A7.46,7.46,0,0,1,121,73.88Z"/><path class="cls-13" d="M70,20s9.82-12.52,29.45-4.4c11.17-7.11,19.63-3.72,27.75,2.37l-26.06,13.2Z"/><path class="cls-13" d="M34.31,92.93a32.65,32.65,0,0,1-2.09-11.19A22.94,22.94,0,0,1,33,76a21,21,0,0,1,2.38-5.34,26.58,26.58,0,0,1,8.27-8.15,50,50,0,0,1,5-2.82,18.33,18.33,0,0,0,4.44-3,21.18,21.18,0,0,0,5.63-9.13c1.24-3.48,2-7.19,2.92-10.87a38.92,38.92,0,0,1,4.09-10.72,19.36,19.36,0,0,1,8.45-7.54,22.67,22.67,0,0,0-4.39,3.5,18.44,18.44,0,0,0-3.21,4.53A41.4,41.4,0,0,0,63.19,37a107.3,107.3,0,0,1-2.65,11.12,22.81,22.81,0,0,1-6.07,10,20.21,20.21,0,0,1-4.93,3.29,54.25,54.25,0,0,0-4.88,2.66,26.18,26.18,0,0,0-8,7.4,20.79,20.79,0,0,0-2.43,4.88,22.53,22.53,0,0,0-1.05,5.41A35.48,35.48,0,0,0,34.31,92.93Z"/><path class="cls-13" d="M101.71,35.59a17.82,17.82,0,0,0-5.41-1.3,9.33,9.33,0,0,0-5.16.93,7.92,7.92,0,0,0-3.39,3.7,24.35,24.35,0,0,0-1.55,5.14c-.7,3.58-.87,7.34-1.79,11.2a23.53,23.53,0,0,1-5.64,10.42c-.68.72-1.41,1.37-2.12,2.06S75.13,69,74.38,69.58,72.79,70.7,72,71.26c-.38.26-.84.56-1.15.8a7.82,7.82,0,0,0-1,.73,6.54,6.54,0,0,0-1.46,1.82,8,8,0,0,0-.74,2.26A16.33,16.33,0,0,0,68,82.05c.71,3.57,2,7.13,2.92,10.82a26,26,0,0,1,.85,5.7,11.63,11.63,0,0,1-.33,2.88A8,8,0,0,1,70.12,104a7.74,7.74,0,0,0,.84-2.65,11.42,11.42,0,0,0,0-2.74,27.35,27.35,0,0,0-1.42-5.34c-1.21-3.51-2.79-7-3.76-10.74a16.81,16.81,0,0,1-.56-6,10.36,10.36,0,0,1,.89-3.12,10.13,10.13,0,0,1,3.2-3.65l1.16-.82c.74-.54,1.52-1,2.22-1.6s1.41-1.14,2.09-1.74,1.3-1.24,1.91-1.89a21.13,21.13,0,0,0,5.11-9.15c1-3.44,1.24-7.24,2.24-11,.26-.94.51-1.88.86-2.79A17.41,17.41,0,0,1,86.08,38a9.57,9.57,0,0,1,4.46-4.09,10.13,10.13,0,0,1,5.87-.44A16,16,0,0,1,101.71,35.59Z"/><path class="cls-13" d="M72.46,18C55.53,28.5,67.72,52.2,50.12,62S34.21,85.37,37.93,95.18c1.33,3.49,5,5.39,9.19,6.4-1.3-5.09-2.33-12.33-.45-19.26,0,0-1.34,11.82,2.68,19.71a46.25,46.25,0,0,0,6.38.58,21.63,21.63,0,0,1-.6-7.43,47.41,47.41,0,0,0,2.26,7.45,61.26,61.26,0,0,0,6.61-.34c6.77-8.12-9.82-26.74,2.7-33.17,18.49-9.49,14.22-19,19.3-29.45s14.48-3.38,14.48-3.38C102.18,16.32,89.38,7.52,72.46,18Z"/><path class="cls-13" d="M165.37,92.93a35.48,35.48,0,0,0,1.12-11.15,23,23,0,0,0-1-5.41A20.83,20.83,0,0,0,163,71.49a26.15,26.15,0,0,0-8-7.4c-1.54-1-3.21-1.77-4.88-2.66a20.08,20.08,0,0,1-4.94-3.29,22.91,22.91,0,0,1-6.07-10A104.72,104.72,0,0,1,136.5,37a41.94,41.94,0,0,0-3.43-10.59,18.67,18.67,0,0,0-3.2-4.53,23,23,0,0,0-4.4-3.5,19.36,19.36,0,0,1,8.45,7.54A39.26,39.26,0,0,1,138,36.66c.95,3.68,1.68,7.39,2.91,10.87a21.18,21.18,0,0,0,5.63,9.13,18.52,18.52,0,0,0,4.44,3,50,50,0,0,1,5,2.82,26.47,26.47,0,0,1,8.27,8.15A20.62,20.62,0,0,1,166.69,76a22.94,22.94,0,0,1,.77,5.75A32.65,32.65,0,0,1,165.37,92.93Z"/><path class="cls-13" d="M98,35.59a16,16,0,0,1,5.3-2.09,10.13,10.13,0,0,1,5.87.44A9.59,9.59,0,0,1,113.61,38a17.34,17.34,0,0,1,1.21,2.74,27.23,27.23,0,0,1,.86,2.79c1,3.76,1.25,7.56,2.24,11A21.05,21.05,0,0,0,123,63.71c.61.65,1.27,1.26,1.9,1.89s1.4,1.16,2.09,1.74,1.48,1.06,2.22,1.6l1.16.82a8.62,8.62,0,0,1,1.24,1,9.27,9.27,0,0,1,2,2.63,10.38,10.38,0,0,1,.9,3.12,16.8,16.8,0,0,1-.57,6c-1,3.79-2.54,7.23-3.76,10.74a26.64,26.64,0,0,0-1.41,5.34,10.93,10.93,0,0,0-.05,2.74,7.74,7.74,0,0,0,.84,2.65,8,8,0,0,1-1.27-2.56,12.12,12.12,0,0,1-.33-2.88,26.61,26.61,0,0,1,.85-5.7c.93-3.69,2.21-7.25,2.92-10.82a16.33,16.33,0,0,0,.26-5.18,7.41,7.41,0,0,0-.74-2.26,6.54,6.54,0,0,0-1.46-1.82,7.82,7.82,0,0,0-1-.73c-.31-.24-.77-.54-1.15-.8-.79-.56-1.61-1.07-2.37-1.68s-1.54-1.2-2.28-1.84-1.44-1.34-2.12-2.06a23.63,23.63,0,0,1-5.64-10.42c-.91-3.86-1.09-7.62-1.78-11.2a25.58,25.58,0,0,0-1.55-5.14,8,8,0,0,0-3.4-3.7,9.33,9.33,0,0,0-5.16-.93A17.82,17.82,0,0,0,98,35.59Z"/><path class="cls-13" d="M149.56,62C132,52.2,144.15,28.5,127.22,18s-28.43-1.69-26.74,18.28c0,0,8.13-7.11,13.2,3.38s.81,20,19.3,29.45c12.52,6.43-4.06,25,2.7,33.17a62.4,62.4,0,0,0,11.3.15,48.71,48.71,0,0,0,2.92-12.33,30.85,30.85,0,0,1-.79,12.1,31.86,31.86,0,0,0,4.53-.91A29.91,29.91,0,0,0,155,96.2a31.27,31.27,0,0,1-.15,4.72c3.2-1.11,5.84-2.9,6.92-5.74C165.47,85.37,167.16,71.83,149.56,62Z"/></g></g></g></svg>