<svg xmlns="http://www.w3.org/2000/svg" xmlns:xlink="http://www.w3.org/1999/xlink" viewBox="0 0 199.86 199.86"><defs><style>.cls-1{fill:#393;}.cls-2{clip-path:url(#clip-path);}.cls-3{fill:#f19c7c;}.cls-4{fill:#c47d66;}.cls-5{fill:#fc6a5a;}.cls-6{fill:#d35450;}.cls-7{fill:#765e69;}.cls-8{fill:#8e7280;}.cls-9{fill:#a06653;}.cls-10{fill:#fff;}.cls-11{fill:#352c38;}</style><clipPath id="clip-path"><circle class="cls-1" cx="99.93" cy="99.93" r="99.92" transform="translate(-41.39 99.93) rotate(-45)"/></clipPath></defs><g id="Layer_2" data-name="Layer 2"><g id="Layer_1-2" data-name="Layer 1"><circle class="cls-1" cx="99.93" cy="99.93" r="99.92" transform="translate(-41.39 99.93) rotate(-45)"/><g class="cls-2"><path class="cls-3" d="M120.35,126.16c-8.59-4.69-6.25-27.36-6.25-27.36l-12.88.83V98.8l-1.37.41-1.38-.41v.83L85.59,98.8s2.35,22.67-6.25,27.36-59.41,7-53.94,59.4H174.29C179.76,133.19,129,130.85,120.35,126.16Z"/><path class="cls-4" d="M83.79,120.31q15.42-2.3,30.83-4.75a68.92,68.92,0,0,1-.52-16.76l-12.88.83V98.8l-1.37.41-1.38-.41v.83L85.59,98.8S87,112,83.79,120.31Z"/><path class="cls-5" d="M128.61,129.27a39,39,0,0,1-57.53,0c-16.92,5.65-50.16,17.26-45.68,70.53H174.29C178.77,146.53,145.53,134.92,128.61,129.27Z"/><path class="cls-6" d="M25,188.74a108.8,108.8,0,0,0,.37,11.06H174.29c1.94-23.12-3.22-38.38-11.07-48.73C116.75,161.16,70.76,174.31,25,188.74Z"/><path class="cls-7" d="M68.79,126.82l8.78,73H21.48S15.4,137.73,68.79,126.82Z"/><path class="cls-8" d="M68.79,126.82l8.78,73L53.92,153.69l9.46-16-12.17-5.87A43.86,43.86,0,0,1,68.79,126.82Z"/><path class="cls-7" d="M130.41,126.82l-8.78,73h56.09S183.8,137.73,130.41,126.82Z"/><path class="cls-8" d="M130.41,126.82l-8.78,73,23.65-46.17-9.46-16L148,131.86A43.85,43.85,0,0,0,130.41,126.82Z"/><path class="cls-3" d="M74.67,65.61c-2.53-7.86-8.53-6-9.1-5.85s-6.79,1-5.71,9.18,5.85,12.7,10.33,11.39C74.81,79.6,77.22,73.52,74.67,65.61Z"/><path class="cls-3" d="M125.25,65.61c2.54-7.86,8.54-6,9.1-5.85s6.79,1,5.72,9.18-5.86,12.7-10.34,11.39C125.12,79.6,122.71,73.52,125.25,65.61Z"/><path class="cls-3" d="M68.52,53.7c3.14-34.45,29.34-32.52,31.81-32.26,2.47-.26,28.66-2.19,31.8,32.26,3.16,34.67-12.28,57.3-31.8,56.06C80.8,111,65.36,88.37,68.52,53.7Z"/><path class="cls-9" d="M101,81.17a12,12,0,0,1,2.56-2.7c.48-.36,1-.74,1.47-1a13.82,13.82,0,0,1,1.59-.9l-.29.62q-.45-4.85-.82-9.69c-.24-3.23-.49-6.46-.66-9.71.55,3.2,1,6.41,1.49,9.62s.9,6.42,1.31,9.63l0,.33-.32.29A15.39,15.39,0,0,1,106,78.76c-.49.37-1,.68-1.52,1A11.81,11.81,0,0,1,101,81.17Z"/><path class="cls-10" d="M113.68,87.36c-6.23,6.06-15.94,5.67-23.94.26"/><path class="cls-11" d="M125,55.19c-1.73-.65-3.23-1.24-4.68-1.72a18,18,0,0,0-4.11-.9,14.38,14.38,0,0,0-2,0c-.33.05-.66.12-1,.14a1.5,1.5,0,0,0-.51.11l-.52.13a18.12,18.12,0,0,0-2.2.67c-.77.27-1.52.65-2.45.91a10,10,0,0,1,.53-1.27,6.45,6.45,0,0,1,.71-1.19,9,9,0,0,1,4.72-3.22,9.57,9.57,0,0,1,3-.25,10,10,0,0,1,5.33,2.16A9.19,9.19,0,0,1,125,55.19Z"/><path class="cls-11" d="M95.59,54.52c-1.81-.53-3.41-1-4.94-1.39a18.65,18.65,0,0,0-4.35-.61,14.32,14.32,0,0,0-2.06.12c-.34.07-.68.16-1,.21a2,2,0,0,0-.53.14l-.53.17a18,18,0,0,0-2.23.82c-.78.32-1.52.75-2.46,1.07a11.14,11.14,0,0,1,.5-1.32,6.62,6.62,0,0,1,.69-1.25,9,9,0,0,1,2-2.09A9.34,9.34,0,0,1,83.3,49a10.19,10.19,0,0,1,3-.44A10.35,10.35,0,0,1,92,50.28,9.54,9.54,0,0,1,95.59,54.52Z"/><path class="cls-11" d="M91.37,67.68a10.08,10.08,0,0,0-1.93-3.92,4.52,4.52,0,0,0-3.55-1.64,5,5,0,0,0-2,.3,3.72,3.72,0,0,0-1.55,1.18A8.26,8.26,0,0,0,81,67.68a6.38,6.38,0,0,1,.64-4.6,4.34,4.34,0,0,1,1.87-1.7,5.82,5.82,0,0,1,2.45-.45,5.11,5.11,0,0,1,4.26,2.26A7.44,7.44,0,0,1,91.37,67.68Z"/><path class="cls-11" d="M120.69,67.2a10.22,10.22,0,0,0-1.93-3.92,4.52,4.52,0,0,0-3.54-1.63,5,5,0,0,0-2,.29,3.83,3.83,0,0,0-1.55,1.19,8.26,8.26,0,0,0-1.41,4.07,6.4,6.4,0,0,1,.64-4.6,4.44,4.44,0,0,1,1.87-1.69,5.86,5.86,0,0,1,2.45-.46,5.11,5.11,0,0,1,4.26,2.27A7.28,7.28,0,0,1,120.69,67.2Z"/><path class="cls-11" d="M80.27,31.19s13.18,16.9,32.11,13.86L108,39s11.49,5.4,30.75.33c0,0,1.35-20.95-31.42-25.68,0,0,15.54,1.35,26.35,7.77,0,0-31.76-33.11-57.78,0,0,0-14.87.34-15.54,16.9s3.38,22.64,3.38,22.64A2.81,2.81,0,0,1,66,60.38c1.07.35,1.61,1.63,2.08,3.59a32,32,0,0,1,.68,9.84l5.5-2.4-.06-.22a73.83,73.83,0,0,1-2.4-22.43S81.63,46.74,80.27,31.19Z"/><path class="cls-11" d="M134,36.26a142.42,142.42,0,0,1,.89,20.45,142.4,142.4,0,0,1-1.28,15.35l-5.26-1.31c.06-.23.11-.46.16-.7,1.83-8.35,2-18.79-1.94-31.42Z"/></g></g></g></svg>