<svg xmlns="http://www.w3.org/2000/svg" xmlns:xlink="http://www.w3.org/1999/xlink" viewBox="0 0 200.21 209.55"><defs><style>.cls-1{fill:#00656a;}.cls-2{clip-path:url(#clip-path);}.cls-3{fill:#ffac9d;}.cls-4{fill:#cc887f;}.cls-5{fill:#7aa8ce;}.cls-6{fill:#6f96bd;}.cls-7{fill:#ffa65b;}.cls-8{fill:#d68950;}.cls-9{fill:#fff;}.cls-10,.cls-11{fill:#352c38;}.cls-11{opacity:0.3;}.cls-12{fill:#965450;}.cls-13{fill:#76413b;}</style><clipPath id="clip-path"><circle class="cls-1" cx="100.1" cy="100.1" r="100.1" transform="translate(-41.46 100.1) rotate(-45)"/></clipPath></defs><g id="Layer_2" data-name="Layer 2"><g id="Layer_1-2" data-name="Layer 1"><circle class="cls-1" cx="100.1" cy="100.1" r="100.1" transform="translate(-41.46 100.1) rotate(-45)"/><g class="cls-2"><path class="cls-3" d="M122.07,126.59c-8.55-4.67-6.22-27.21-6.22-27.21L103,100.2v-.82l-1.37.41-1.37-.41v.82l-12.8-.82s2.33,22.54-6.22,27.21-59.07,7-53.63,59.07H175.7C181.14,133.58,130.62,131.25,122.07,126.59Z"/><path class="cls-4" d="M85.7,120.77q15.35-2.28,30.67-4.72a68.19,68.19,0,0,1-.52-16.67L103,100.2v-.82l-1.37.41-1.37-.41v.82l-12.8-.82S88.85,112.48,85.7,120.77Z"/><path class="cls-5" d="M130.17,129.18c-7.59,4.43-17.7,7.14-28.8,7.14s-21.05-2.66-28.62-7c-16.92,4.56-49.53,14-45.1,56.37H175.7C180.16,142.94,147,133.69,130.17,129.18Z"/><path class="cls-6" d="M165.05,147.05c-6.8,3.26-14.32,4.37-21.77,6.69q-15.8,4.9-31.7,9.46c-41,11.74-45.59,9.55-64,17.55a158.19,158.19,0,0,0-30.19,17.39l155,11.41c2.58-6.43,9.42-25.93,1.46-46.92A58.55,58.55,0,0,0,165.05,147.05Z"/><path class="cls-7" d="M66.79,131C62,132.12,45.32,136.7,34,152.69c-17,23.91-6.78,51.7-5.89,54l60.8.91Q77.84,169.29,66.79,131Z"/><path class="cls-7" d="M136.13,130.85q-7.5,37.6-15,75.2l57.3-4c.88-3.38,6.77-27.8-9-49.34C157.61,136.62,141,132,136.13,130.85Z"/><path class="cls-8" d="M88.86,207.61l8.3,1.55Q82,170.07,66.79,131a86.39,86.39,0,0,0-14.5,5.68Z"/><path class="cls-8" d="M136.13,130.85q-7.5,37.6-15,75.2l4.41-.13L156.3,139.7A76.86,76.86,0,0,0,136.13,130.85Z"/><path class="cls-4" d="M76.64,66.38c-2.52-7.81-8.49-6-9-5.82s-6.75,1-5.68,9.13S67.73,82.32,72.19,81C76.77,80.29,79.17,74.24,76.64,66.38Z"/><path class="cls-4" d="M126.94,66.38c2.52-7.81,8.49-6,9-5.82s6.76,1,5.69,9.13S135.85,82.32,131.39,81C126.8,80.29,124.41,74.24,126.94,66.38Z"/><path class="cls-3" d="M70.53,54.54C73.65,20.28,99.7,22.2,102.15,22.45c2.46-.25,28.51-2.17,31.63,32.09,3.14,34.47-12.21,57-31.63,55.74C82.74,111.52,67.39,89,70.53,54.54Z"/><path class="cls-4" d="M106.64,70.66a23.34,23.34,0,0,1,1.83,4.91c.21.84.42,1.67.57,2.52s.28,1.71.38,2.57l0,.4-.22.2c-.7.64-1.42,1.26-2.15,1.87s-1.47,1.2-2.27,1.75c.52-.82,1.1-1.57,1.67-2.34s1.18-1.49,1.79-2.21l-.17.6c-.26-.83-.49-1.66-.68-2.5s-.35-1.69-.5-2.54A23.89,23.89,0,0,1,106.64,70.66Z"/><path class="cls-9" d="M115.43,91c-6.2,6-16.7,5.7-24.66.33"/><path class="cls-10" d="M126.72,59c-1.46-.81-2.82-1.55-4.17-2.14a13.44,13.44,0,0,0-4-1.1,8.62,8.62,0,0,0-4,.55,14.19,14.19,0,0,0-2,.87c-.69.34-1.33.8-2.13,1.14a12.52,12.52,0,0,1,1.28-2.16,8.9,8.9,0,0,1,1.92-1.74,6.63,6.63,0,0,1,1.15-.67c.42-.17.86-.32,1.29-.47a8.45,8.45,0,0,1,2.74-.21,9.43,9.43,0,0,1,4.88,2A9.72,9.72,0,0,1,126.72,59Z"/><path class="cls-10" d="M94.27,59c-1.45-.81-2.81-1.55-4.17-2.14a13.44,13.44,0,0,0-4-1.1,8.62,8.62,0,0,0-4,.55,14.19,14.19,0,0,0-2,.87c-.69.34-1.33.8-2.13,1.14a12.52,12.52,0,0,1,1.28-2.16,9.39,9.39,0,0,1,1.92-1.74,6.36,6.36,0,0,1,1.16-.67c.42-.17.85-.32,1.28-.47a8.49,8.49,0,0,1,2.75-.21,9.43,9.43,0,0,1,4.87,2A9.72,9.72,0,0,1,94.27,59Z"/><path class="cls-10" d="M93.24,71.46a10.31,10.31,0,0,0-1.91-3.9,4.51,4.51,0,0,0-3.53-1.62,4.92,4.92,0,0,0-2,.29,3.79,3.79,0,0,0-1.55,1.18,8.31,8.31,0,0,0-1.4,4,6.44,6.44,0,0,1,.63-4.58,4.45,4.45,0,0,1,1.86-1.68,5.83,5.83,0,0,1,2.45-.46A5.09,5.09,0,0,1,92.06,67,7.29,7.29,0,0,1,93.24,71.46Z"/><path class="cls-10" d="M122.4,71a10.19,10.19,0,0,0-1.92-3.9A4.47,4.47,0,0,0,117,65.47a5,5,0,0,0-2,.29,3.82,3.82,0,0,0-1.54,1.18,8.31,8.31,0,0,0-1.4,4,6.38,6.38,0,0,1,.63-4.58,4.39,4.39,0,0,1,1.86-1.68,5.83,5.83,0,0,1,2.45-.46,5.09,5.09,0,0,1,4.23,2.26A7.29,7.29,0,0,1,122.4,71Z"/><path class="cls-11" d="M55.33,59.68a18.09,18.09,0,0,0,4.63-5,14.66,14.66,0,0,0,.8-1.8c.16-.64.37-1.3.48-2s.19-1.37.21-2.07,0-1.43,0-2.15-.11-1.4-.17-2.12l0-.53c0-.17,0-.07,0-.21v-.25c0-.35,0-.7,0-1.06a38.22,38.22,0,0,1,.5-4.34A21.47,21.47,0,0,1,63,34a8.22,8.22,0,0,1,.45-1,6.88,6.88,0,0,1,.52-.9l.26-.42.39-.44.19-.23,0-.06h0l.08-.08.44-.4a14.85,14.85,0,0,1,2.47-1.72q0-1.12,0-2.25A18.27,18.27,0,0,0,64,29l-.43.41-.11.1-.1.1-.07.09-.2.23-.38.45-.39.58a9.69,9.69,0,0,0-.64,1.16c-.2.38-.33.77-.49,1.16a23.45,23.45,0,0,0-1.16,4.67,34,34,0,0,0-.41,4.56c0,.37,0,.75,0,1.12v.29s0,.32,0,.33l.06.54c.09.71.17,1.41.25,2.1.16,2.64,0,5.28-1,7.32a18.75,18.75,0,0,1-4.12,4.92,19,19,0,0,0-3.27,4,12.43,12.43,0,0,0-.86,1.71,10.29,10.29,0,0,0-.49,1.32l-.35,1.11.46-1.07a14.39,14.39,0,0,1,1.58-2.85A17.62,17.62,0,0,1,55.33,59.68Z"/><path class="cls-12" d="M119.85,25.1s11.42.34,15.12,14.45-.34,16.8-.34,28.22c0,0,0,7.06-1.68,9.41L130.6,54S114.81,45.6,119.85,25.1Z"/><path class="cls-13" d="M99.24,6.19a18.21,18.21,0,0,0-6.12,0,13.13,13.13,0,0,0-4.27,1.56,14.62,14.62,0,0,0-3.58,3.08c-2.08,2.4-3.65,5.16-5.54,7.62a18.74,18.74,0,0,1-7,5.89c-.7.35-1.37.59-2.16.9s-1.51.57-2.3,1A18.48,18.48,0,0,0,64,29l-.43.41-.11.1-.1.1,0,0,0,.06-.2.23-.38.45-.39.58a9.69,9.69,0,0,0-.64,1.16c-.2.38-.33.77-.49,1.16a23.45,23.45,0,0,0-1.16,4.67,34,34,0,0,0-.41,4.56c0,.37,0,.75,0,1.12v.29s0,.32,0,.33l.06.54c.09.71.17,1.41.25,2.1.16,2.64,0,5.28-1,7.32a18.75,18.75,0,0,1-4.12,4.92,19,19,0,0,0-3.27,4,12.43,12.43,0,0,0-.86,1.71,10.29,10.29,0,0,0-.49,1.32l-.35,1.11.46-1.07a14.39,14.39,0,0,1,1.58-2.85,17.62,17.62,0,0,1,3.44-3.67,18.09,18.09,0,0,0,4.63-5,14.66,14.66,0,0,0,.8-1.8c.16-.64.37-1.3.48-2s.19-1.37.21-2.07,0-1.43,0-2.15-.11-1.4-.17-2.12l0-.53c0-.17,0-.07,0-.21v-.25c0-.35,0-.7,0-1.06a38.22,38.22,0,0,1,.5-4.34A21.47,21.47,0,0,1,63,34a8.22,8.22,0,0,1,.45-1,6.88,6.88,0,0,1,.52-.9l.26-.42.39-.44.19-.23,0-.06h0l.08-.08.44-.4a15.5,15.5,0,0,1,2.83-1.93c-.46.3-.9.6-1.31.92l-.62.5-.24.2c-.27.25-.53.51-.78.79-3.65,3.9-3.22,13.77-3.18,14,2.69,15.46-6.72,12.44-9.74,23.52s11.94,18.29,8.4,22.18C54,98,50.63,88.27,50.63,88.27c-1.35,5.71,4.7,14.11,12.09,13.1,7-1,14.59-6.42,12-17.83l0,0,.78,1.87c.24.59.52,1.17.72,1.77l.55,1.82.36,1.85c0,.62.13,1.25.13,1.87a12.94,12.94,0,0,1-.14,1.86,9.43,9.43,0,0,1-.42,1.82A10.38,10.38,0,0,1,76,98.2a12,12,0,0,1-2.23,3.08,14.28,14.28,0,0,1-3,2.41,18.48,18.48,0,0,1-3.61,1.66A17.64,17.64,0,0,0,71,104.17,15,15,0,0,0,74.45,102a12.87,12.87,0,0,0,2.73-3.14,11.19,11.19,0,0,0,1-1.89,11.07,11.07,0,0,0,.62-2,13.59,13.59,0,0,0,.31-2.11c.05-.71,0-1.41,0-2.13s-.17-1.39-.27-2.1-.33-1.35-.5-2-.45-1.31-.68-2L77,82.73c-.11-.31-.24-.64-.33-.94l-.19-.85a8.27,8.27,0,0,1-.23-1.69,4.26,4.26,0,0,1,1-2.86c.67-.87,1.72-1.72,2.7-2.76A15.39,15.39,0,0,0,81.31,72a12.83,12.83,0,0,0,1.15-1.92l.48-1L83.28,68c.11-.35.24-.7.32-1.06l.2-1.06L84,64.8l.08-1.06.12-2,.11-2a15.12,15.12,0,0,1,.15-2,27.62,27.62,0,0,1,.67-3.68,16.37,16.37,0,0,1,.51-1.82l.61-1.66.61-.88.75-.86c.29-.24.57-.51.86-.74s.62-.43,1-.62.69-.35,1-.49l1.12-.37,1.18-.25c.4-.07.82-.09,1.22-.14l2.7-.29L98,45.8c.45-.07.92-.2,1.38-.29.91-.23,1.86-.37,2.73-.68l2.62-.93.34-.17a20.73,20.73,0,0,0,16.12-14.6C123.13,21,114.51,7.27,99.24,6.19ZM79.84,68.76a11.85,11.85,0,0,1-2,2.93c-.81.93-1.85,1.79-2.79,3a7.36,7.36,0,0,0-.64,1,4.87,4.87,0,0,0-.47,1.15l-.18.61-.06.61a5.44,5.44,0,0,0,0,1.2c0,.16,0,.31,0,.47-1.84-7.8,3.26-7.34,6.66-12.23l-.12.39Z"/><path class="cls-11" d="M76.59,53.91a40.93,40.93,0,0,1-8.77-25.17c-.33.22-.66.44-.95.67l-.62.5-.24.2c-.27.25-.53.51-.78.79-3.65,3.9-3.22,13.77-3.18,14,2.69,15.46-6.72,12.44-9.74,23.52s11.94,18.29,8.4,22.18C54,98,50.63,88.27,50.63,88.27c-1.35,5.71,4.7,14.11,12.09,13.1,7-1,14.59-6.42,12-17.83l0,0,.78,1.87c.24.59.52,1.17.72,1.77l.55,1.82.36,1.85c0,.62.13,1.25.13,1.87a12.94,12.94,0,0,1-.14,1.86,9.43,9.43,0,0,1-.42,1.82A10.38,10.38,0,0,1,76,98.2a12,12,0,0,1-2.23,3.08,14.28,14.28,0,0,1-3,2.41,18.48,18.48,0,0,1-3.61,1.66A17.64,17.64,0,0,0,71,104.17,15,15,0,0,0,74.45,102a12.87,12.87,0,0,0,2.73-3.14,11.19,11.19,0,0,0,1-1.89,11.07,11.07,0,0,0,.62-2,13.59,13.59,0,0,0,.31-2.11c.05-.71,0-1.41,0-2.13s-.17-1.39-.27-2.1-.33-1.35-.5-2-.45-1.31-.68-2L77,82.73c-.11-.31-.24-.64-.33-.94l-.19-.85a8.27,8.27,0,0,1-.23-1.69,4.26,4.26,0,0,1,1-2.86c.67-.87,1.72-1.72,2.7-2.76A15.39,15.39,0,0,0,81.31,72a12.83,12.83,0,0,0,1.15-1.92l.48-1L83.28,68c.11-.35.24-.7.32-1.06l.2-1.06L84,64.8l.08-1.06.12-2A54.31,54.31,0,0,1,76.59,53.91Zm3.62,14-.37.8a11.85,11.85,0,0,1-2,2.93c-.81.93-1.85,1.79-2.79,3a7.36,7.36,0,0,0-.64,1,4.87,4.87,0,0,0-.47,1.15l-.18.61-.06.61a5.44,5.44,0,0,0,0,1.2c0,.16,0,.31,0,.47-1.84-7.8,3.26-7.34,6.66-12.23Z"/></g></g></g></svg>