<svg xmlns="http://www.w3.org/2000/svg" xmlns:xlink="http://www.w3.org/1999/xlink" viewBox="0 0 200.32 200.32"><defs><style>.cls-1{fill:#ffa65b;}.cls-2{clip-path:url(#clip-path);}.cls-3{fill:#965450;}.cls-4{fill:#76413b;}.cls-5{fill:#fdedee;}.cls-10,.cls-6{fill:#352c38;}.cls-6{opacity:0.1;}.cls-7{fill:#6f96bd;}.cls-8{fill:#88bbe5;}.cls-9{fill:#fff;}.cls-11{fill:#fddec0;}.cls-12{fill:#d3b9a3;}</style><clipPath id="clip-path"><circle class="cls-1" cx="100.16" cy="100.16" r="100.16"/></clipPath></defs><g id="Layer_2" data-name="Layer 2"><g id="Layer_1-2" data-name="Layer 1"><circle class="cls-1" cx="100.16" cy="100.16" r="100.16"/><g class="cls-2"><path class="cls-3" d="M124.46,134.14c-8.23-5.22-6-30.48-6-30.48l-12.33.93v-.92l-1.32.46-1.32-.46v.92l-12.33-.93s2.25,25.26-6,30.48S28.32,142,33.56,200.32H176.1C181.34,142,132.7,139.37,124.46,134.14Z"/><path class="cls-4" d="M89.45,127.63q14.77-2.56,29.53-5.29a88.53,88.53,0,0,1-.5-18.68l-12.33.93v-.92l-1.32.46-1.32-.46v.92l-12.33-.93S92.48,118.34,89.45,127.63Z"/><path class="cls-5" d="M134.82,136.55c-4.42,13.42-16.18,23-30,23s-25.57-9.6-30-23c-17,5.41-46.76,17-42.56,63.77h145.1C181.58,153.55,151.77,142,134.82,136.55Z"/><path class="cls-6" d="M165.8,154.88c-18.19,13.69-40.13,19.06-60.53,26.62-19.12,7.09-38.49,13.23-58,18.82H177.38C179.34,178.49,173.89,164.33,165.8,154.88Z"/><path class="cls-7" d="M137.69,137.5v62.82h39.69C181.35,156.09,154.91,143.33,137.69,137.5Z"/><path class="cls-7" d="M71.7,137.59c-17.23,5.87-43.37,18.73-39.42,62.73H71.7Z"/><path class="cls-8" d="M72.17,137.59v62.73s-19.89-39.47-18.92-53S70.23,133,72.17,137.59Z"/><path class="cls-8" d="M136.69,137.59v62.73s19.89-39.47,18.92-53S138.63,133,136.69,137.59Z"/><path class="cls-4" d="M80.73,71.89c-2.43-7.52-8.17-5.78-8.71-5.6s-6.5.95-5.47,8.79,5.6,12.16,9.89,10.9C80.86,85.28,83.17,79.46,80.73,71.89Z"/><path class="cls-4" d="M129.15,71.89c2.43-7.52,8.17-5.78,8.71-5.6s6.5.95,5.48,8.79-5.61,12.16-9.9,10.9C129,85.28,126.72,79.46,129.15,71.89Z"/><path class="cls-3" d="M74.84,60.49c3-33,28.09-31.13,30.45-30.89,2.37-.24,27.44-2.09,30.45,30.89,3,33.19-11.76,54.86-30.45,53.67C86.6,115.35,71.82,93.68,74.84,60.49Z"/><path class="cls-4" d="M109.62,64.36a74.44,74.44,0,0,1,1.79,9.16c.2,1.54.41,3.08.55,4.62s.27,3.09.36,4.64l0,.43-.31.19c-1,.61-2,1.2-3,1.77s-2,1.12-3.1,1.62c.84-.82,1.74-1.56,2.63-2.31s1.8-1.47,2.73-2.17l-.29.62c-.25-1.53-.48-3.07-.66-4.61s-.34-3.08-.48-4.62A74.51,74.51,0,0,1,109.62,64.36Z"/><path class="cls-9" d="M118.08,92.71c-6,5.81-16.09,5.49-23.75.31"/><path class="cls-10" d="M128.94,61.92a43.63,43.63,0,0,0-4-2,12.86,12.86,0,0,0-3.85-1,8.16,8.16,0,0,0-3.81.51,14.1,14.1,0,0,0-2,.82c-.67.32-1.29.75-2.07,1.08a11.36,11.36,0,0,1,1.22-2.1,8.73,8.73,0,0,1,1.84-1.69,6.28,6.28,0,0,1,1.12-.65c.4-.17.82-.31,1.24-.46a8.21,8.21,0,0,1,2.66-.2A9,9,0,0,1,126,58.08,9.21,9.21,0,0,1,128.94,61.92Z"/><path class="cls-10" d="M97.7,61.92a42.41,42.41,0,0,0-4-2,12.86,12.86,0,0,0-3.85-1,8.1,8.1,0,0,0-3.8.51,14.21,14.21,0,0,0-2,.82c-.67.32-1.29.75-2.07,1.08a11.36,11.36,0,0,1,1.22-2.1A8.73,8.73,0,0,1,85,57.47a6.28,6.28,0,0,1,1.12-.65c.41-.17.82-.31,1.24-.46a8.21,8.21,0,0,1,2.66-.2,9,9,0,0,1,4.71,1.92A9.21,9.21,0,0,1,97.7,61.92Z"/><path class="cls-10" d="M96.71,73.87a9.82,9.82,0,0,0-1.86-3.74,4.29,4.29,0,0,0-3.38-1.55,4.72,4.72,0,0,0-1.88.28A3.67,3.67,0,0,0,88.11,70a8,8,0,0,0-1.36,3.89,6.11,6.11,0,0,1,.59-4.42,4.31,4.31,0,0,1,1.8-1.63,5.72,5.72,0,0,1,2.36-.44,4.9,4.9,0,0,1,4.09,2.19A6.9,6.9,0,0,1,96.71,73.87Z"/><path class="cls-10" d="M124.78,73.42a9.8,9.8,0,0,0-1.85-3.74,4.34,4.34,0,0,0-3.38-1.56,5.16,5.16,0,0,0-1.89.28,3.7,3.7,0,0,0-1.48,1.13,8,8,0,0,0-1.36,3.89,6.15,6.15,0,0,1,.59-4.42,4.37,4.37,0,0,1,1.8-1.63,5.75,5.75,0,0,1,2.36-.44,4.89,4.89,0,0,1,4.09,2.18A7,7,0,0,1,124.78,73.42Z"/><path class="cls-11" d="M137,35.06c-1.69-6.76-5.72-8.47-7.66-8.91C128.27,8.72,81.69,5.53,81.08,8.86c-.65,3.56,16.5,9.38,16.5,9.38s-30.73-8.09-29.12-1C69.78,23.05,82.19,22.43,86.8,22c-6.48.81-28.66,4.37-18.66,14.37a17,17,0,0,0,2.64,2.12C69.85,50.87,73.53,80,73.53,80h2.58L75.14,60c5-1,7.31-12.88,8.09-18.18,8.49.12,17-2.76,20.18-3.95-1.91.88-4.91,2.91-1.63,6s15.37-.68,21.4-2.87c1.11,4.73,4.67,18,10,19l-1,20.06h2.59S139.31,44.12,137,35.06Z"/><path class="cls-12" d="M137,35.06c-1.69-6.76-5.72-8.47-7.66-8.91-.2-3.18-1.93-5.89-4.61-8.17-1.45,11.82-10.1,21.87-21.08,26.73,4.72,1.15,14.31-1.9,19.49-3.78,1.11,4.73,4.67,18,10,19l-1,20.06h2.59S139.31,44.12,137,35.06Z"/></g></g></g></svg>