<svg xmlns="http://www.w3.org/2000/svg" xmlns:xlink="http://www.w3.org/1999/xlink" viewBox="0 0 220 200"><defs><style>.cls-1{fill:#ffa65b;}.cls-11,.cls-2{fill:none;}.cls-3{clip-path:url(#clip-path);}.cls-4{fill:#352c38;}.cls-12,.cls-5{fill:#2a242d;}.cls-6{fill:#965450;}.cls-7{fill:#76413b;}.cls-8{fill:#fc6a5a;}.cls-9{opacity:0.9;}.cls-10{clip-path:url(#clip-path-2);}.cls-11{stroke:#fdedee;stroke-miterlimit:10;stroke-width:3.06px;}.cls-12{opacity:0.3;}.cls-13{fill:#fff;}</style><clipPath id="clip-path" transform="translate(9.98)"><circle class="cls-1" cx="100.08" cy="100.08" r="100.07" transform="translate(-41.45 100.08) rotate(-45)"/></clipPath><clipPath id="clip-path-2" transform="translate(9.98)"><path class="cls-2" d="M122.06,119c-3.52-1.89-5.31-6.57-6.19-11.6a74,74,0,0,1-31.22.07c-.88,5-2.67,9.65-6.17,11.53-9.14,4.9-63.12,7.35-57.31,62.08l72.18,26.35,20.74-.69,65.27-25.66C185.18,126.35,131.19,123.9,122.06,119Z"/></clipPath></defs><g id="Layer_2" data-name="Layer 2"><g id="Layer_1-2" data-name="Layer 1"><circle class="cls-1" cx="100.08" cy="100.08" r="100.07" transform="translate(-31.47 100.08) rotate(-45)"/><g class="cls-3"><path class="cls-4" d="M71,68.64S62.5,66.76,61.24,74,65,82.79,65,82.79s-7.54-8.49-12.88-2.52,3.45,11,3.45,11S45.84,85.93,44,92.53s6,10.69,6,10.69-8.49-.63-8.18,3.14,8.49.63,8.49.63-11.94,2.2-10.06,11.63S51.5,122.7,51.5,122.7s-7.23,3.77-5.35,15.72,55.64-12.26,55.64-12.26l.94-32.37Z" transform="translate(9.98)"/><path class="cls-4" d="M133,68.64s8.48-1.88,9.74,5.34S139,82.79,139,82.79s7.54-8.49,12.88-2.52-3.45,11-3.45,11,9.74-5.34,11.63,1.26-6,10.69-6,10.69,8.49-.63,8.18,3.14-8.49.63-8.49.63,11.94,2.2,10.06,11.63-11.32,4.08-11.32,4.08,7.23,3.77,5.35,15.72-55.64-12.26-55.64-12.26l-.94-32.37Z" transform="translate(9.98)"/><path class="cls-5" d="M71,68.64S62.5,66.76,61.24,74,65,82.79,65,82.79s-7.54-8.49-12.88-2.52,3.45,11,3.45,11S45.84,85.93,44,92.53s6,10.69,6,10.69-8.49-.63-8.18,3.14,8.49.63,8.49.63-11.94,2.2-10.06,11.63S51.5,122.7,51.5,122.7s-7.23,3.77-5.35,15.72,55.64-12.26,55.64-12.26l.94-32.37Z" transform="translate(9.98)"/><path class="cls-5" d="M133,68.64s8.48-1.88,9.74,5.34S139,82.79,139,82.79s7.54-8.49,12.88-2.52-3.45,11-3.45,11,9.74-5.34,11.63,1.26-6,10.69-6,10.69,8.49-.63,8.18,3.14-8.49.63-8.49.63,11.94,2.2,10.06,11.63-11.32,4.08-11.32,4.08,7.23,3.77,5.35,15.72-55.64-12.26-55.64-12.26l-.94-32.37Z" transform="translate(9.98)"/><path class="cls-6" d="M121.59,119.88c-8.86-4.83-6.44-28.19-6.44-28.19l-13.27.85v-.85l-1.42.43L99,91.69v.85l-13.26-.85s2.41,23.36-6.44,28.19-61.21,7.25-55.57,61.2H177.16C182.8,127.13,130.45,124.71,121.59,119.88Z" transform="translate(9.98)"/><path class="cls-7" d="M83.92,113.85q15.89-2.37,31.77-4.89a70.78,70.78,0,0,1-.54-17.27l-13.27.85v-.85l-1.42.43L99,91.69v.85l-13.26-.85S87.18,105.26,83.92,113.85Z" transform="translate(9.98)"/><path class="cls-8" d="M122.06,119c-3.52-1.89-5.31-6.57-6.19-11.6a74,74,0,0,1-31.22.07c-.88,5-2.67,9.65-6.17,11.53-9.14,4.9-63.12,7.35-57.31,62.08L89.9,209.51l27.65,1.38,61.81-29.81C185.18,126.35,131.19,123.9,122.06,119Z" transform="translate(9.98)"/><g class="cls-9"><g class="cls-10"><line class="cls-11" x1="21.76" y1="114.74" x2="195.46" y2="114.74"/><line class="cls-11" x1="21.76" y1="123.21" x2="195.46" y2="123.21"/><line class="cls-11" x1="21.76" y1="131.68" x2="195.46" y2="131.68"/><line class="cls-11" x1="21.76" y1="140.15" x2="195.46" y2="140.15"/><line class="cls-11" x1="21.76" y1="148.62" x2="195.46" y2="148.62"/><line class="cls-11" x1="21.76" y1="157.09" x2="195.46" y2="157.09"/><line class="cls-11" x1="21.76" y1="165.56" x2="195.46" y2="165.56"/><line class="cls-11" x1="21.76" y1="174.03" x2="195.46" y2="174.03"/><line class="cls-11" x1="23.22" y1="183.16" x2="196.91" y2="183.16"/><line class="cls-11" x1="23.22" y1="191.63" x2="196.91" y2="191.63"/><line class="cls-11" x1="23.22" y1="200.1" x2="196.91" y2="200.1"/><line class="cls-11" x1="23.22" y1="208.57" x2="196.91" y2="208.57"/><line class="cls-11" x1="23.22" y1="217.04" x2="196.91" y2="217.04"/><line class="cls-11" x1="23.22" y1="225.51" x2="196.91" y2="225.51"/><line class="cls-11" x1="23.22" y1="233.98" x2="196.91" y2="233.98"/><line class="cls-11" x1="23.22" y1="242.45" x2="196.91" y2="242.45"/></g></g><path class="cls-12" d="M-10,196l193.88,6.56a93.78,93.78,0,0,0-6-44.47,90.46,90.46,0,0,0-8.39-16q-34.92,8.64-71.64,19.2C59.92,172.32,24,184-10,196Z" transform="translate(9.98)"/><path class="cls-7" d="M74.53,57.5c-2.61-8.1-8.79-6.22-9.37-6s-7,1-5.89,9.46S65.3,74,69.92,72.66C74.67,71.91,77.15,65.65,74.53,57.5Z" transform="translate(9.98)"/><path class="cls-7" d="M126.64,57.5c2.61-8.1,8.79-6.22,9.37-6s7,1,5.89,9.46-6,13.08-10.65,11.73C126.5,71.91,124,65.65,126.64,57.5Z" transform="translate(9.98)"/><path class="cls-6" d="M68.19,45.23C71.43,9.74,98.42,11.72,101,12c2.55-.27,29.53-2.25,32.77,33.24C137,80.94,121.07,104.27,101,103,80.85,104.27,64.94,80.94,68.19,45.23Z" transform="translate(9.98)"/><path class="cls-7" d="M105.61,61.94A25,25,0,0,1,107.48,67c.21.86.43,1.73.58,2.61s.3,1.77.41,2.66l0,.4-.22.2c-.72.66-1.46,1.31-2.21,1.94s-1.53,1.25-2.35,1.83c.55-.84,1.15-1.63,1.74-2.41s1.23-1.54,1.87-2.29l-.17.6c-.27-.86-.51-1.72-.7-2.59s-.36-1.75-.52-2.63A25.56,25.56,0,0,1,105.61,61.94Z" transform="translate(9.98)"/><path class="cls-13" d="M114.72,83c-6.43,6.25-17.31,5.9-25.55.34" transform="translate(9.98)"/><path class="cls-4" d="M126.41,49.9a42.57,42.57,0,0,0-4.3-2.25,13.59,13.59,0,0,0-4.18-1.16,8.76,8.76,0,0,0-4.14.58,16.79,16.79,0,0,0-2.12.92c-.71.36-1.37.84-2.19,1.21A12.5,12.5,0,0,1,110.83,47a9.44,9.44,0,0,1,2-1.79,6.75,6.75,0,0,1,1.2-.68c.43-.18.88-.33,1.33-.48a9,9,0,0,1,2.83-.22,9.75,9.75,0,0,1,5,2A10.14,10.14,0,0,1,126.41,49.9Z" transform="translate(9.98)"/><path class="cls-4" d="M92.79,49.9a42.57,42.57,0,0,0-4.3-2.25,13.52,13.52,0,0,0-4.18-1.16,8.77,8.77,0,0,0-4.14.58,16.07,16.07,0,0,0-2.11.92c-.72.36-1.38.84-2.19,1.21A11.89,11.89,0,0,1,77.21,47a9.75,9.75,0,0,1,2-1.79,6.66,6.66,0,0,1,1.19-.68c.44-.18.88-.33,1.33-.48a9,9,0,0,1,2.83-.22,9.78,9.78,0,0,1,5,2A10.2,10.2,0,0,1,92.79,49.9Z" transform="translate(9.98)"/><path class="cls-4" d="M91.73,62.76a10.52,10.52,0,0,0-2-4A4.67,4.67,0,0,0,86.09,57a5.14,5.14,0,0,0-2,.31,3.93,3.93,0,0,0-1.61,1.23A8.46,8.46,0,0,0,81,62.76,6.64,6.64,0,0,1,81.67,58a4.59,4.59,0,0,1,1.93-1.74,6.15,6.15,0,0,1,2.52-.46,5.24,5.24,0,0,1,4.37,2.32A7.59,7.59,0,0,1,91.73,62.76Z" transform="translate(9.98)"/><path class="cls-4" d="M121.94,62.28a10.5,10.5,0,0,0-2-4.05,4.74,4.74,0,0,0-3.67-1.7,5.32,5.32,0,0,0-2,.31,4,4,0,0,0-1.61,1.23,8.46,8.46,0,0,0-1.43,4.21,6.66,6.66,0,0,1,.66-4.74,4.6,4.6,0,0,1,1.92-1.73,6.08,6.08,0,0,1,2.53-.47,5.25,5.25,0,0,1,4.37,2.33A7.55,7.55,0,0,1,121.94,62.28Z" transform="translate(9.98)"/><path class="cls-4" d="M102,12s1.66,21.76-31.34,30.88a70,70,0,0,1-1.89,21.37S58.1,48.84,63.13,30.61,93.64-2.22,102,12Z" transform="translate(9.98)"/><path class="cls-4" d="M99.41,12s-.63,21.76,32.38,30.88c0,0-1.58,13.83,1.25,24.2,0,0,11.32-18.23,6.29-36.46S107.78-2.22,99.41,12Z" transform="translate(9.98)"/><path class="cls-5" d="M75.66,41.29a42,42,0,0,1-12-12.45c-.2.59-.39,1.18-.55,1.77-5,18.23,5.65,33.63,5.65,33.63a70,70,0,0,0,1.89-21.37C72.44,42.38,74.08,41.85,75.66,41.29Z" transform="translate(9.98)"/></g></g></g></svg>