<svg xmlns="http://www.w3.org/2000/svg" xmlns:xlink="http://www.w3.org/1999/xlink" viewBox="0 0 199.27 200.84"><defs><style>.cls-1{fill:#765e69;}.cls-2{clip-path:url(#clip-path);}.cls-3{fill:#ffac9d;}.cls-4{fill:#cc887f;}.cls-5{fill:#d68950;}.cls-6{fill:#ffa65b;}.cls-13,.cls-7,.cls-8{fill:none;}.cls-13,.cls-14,.cls-7,.cls-8{stroke:#765e69;stroke-miterlimit:10;}.cls-7{stroke-width:1.83px;}.cls-9{fill:#d35450;}.cls-10{fill:#fc6a5a;}.cls-11{fill:#fff;}.cls-12{fill:#352c38;}.cls-13,.cls-14{stroke-width:1.43px;}.cls-14{fill:#a9c7db;}</style><clipPath id="clip-path"><circle class="cls-1" cx="99.64" cy="99.64" r="99.63" transform="translate(-41.27 99.64) rotate(-45)"/></clipPath></defs><g id="Layer_2" data-name="Layer 2"><g id="Layer_1-2" data-name="Layer 1"><circle class="cls-1" cx="99.64" cy="99.64" r="99.63" transform="translate(-41.27 99.64) rotate(-45)"/><g class="cls-2"><path class="cls-3" d="M119.79,127c-8.57-4.67-6.24-27.28-6.24-27.28l-12.84.83v-.82l-1.37.41L98,99.75v.82l-12.84-.83s2.33,22.61-6.24,27.28-59.23,7-53.77,59.24H173.56C179,134,128.36,131.7,119.79,127Z"/><path class="cls-4" d="M83.33,121.19q15.38-2.3,30.74-4.73a68.6,68.6,0,0,1-.52-16.72l-12.84.83v-.82l-1.37.41L98,99.75v.82l-12.84-.83S86.48,112.88,83.33,121.19Z"/><path class="cls-5" d="M122.46,126.62c-4.28-2.33-5.86-9.1-6.37-15.34-3.76,1.42-11.3,2.25-16.13,2.25-5.81,0-13.16-1.19-17.31-3.17-.42,6.47-1.93,13.81-6.43,16.26-8.63,4.71-57.61,7.06-52.29,61.21l71.49,13,13.75-.14,64.39-14.44C179.05,133.68,131.09,131.33,122.46,126.62Z"/><path class="cls-6" d="M99.27,138.8c11.79,0,22.36-3.91,29.58-10.12a32.11,32.11,0,0,1-6-2.06c-4.28-2.33-5.86-9.1-6.36-15.34-3.77,1.42-11.3,2.25-16.14,2.25-5.81,0-13.15-1.19-17.3-3.17-.43,6.47-1.94,13.81-6.43,16.26a37.12,37.12,0,0,1-6.74,2.26C77.14,135,87.61,138.8,99.27,138.8Z"/><polyline class="cls-7" points="44.62 180.03 52.96 172.16 60.83 180.03"/><polyline class="cls-7" points="138.42 179.72 147.92 172.16 155.8 180.03"/><polyline class="cls-7" points="122.74 179.77 131.71 172.16 139.59 180.03"/><polyline class="cls-7" points="107.62 180.03 115.96 172.16 123.83 180.03"/><polyline class="cls-7" points="91.07 179.87 100.21 172.16 108.73 179.82"/><polyline class="cls-7" points="76.12 180.03 84.46 172.16 92.33 180.03"/><polyline class="cls-7" points="59.71 179.87 68.71 172.16 77.12 179.72"/><polyline class="cls-8" points="44.62 172.28 52.96 164.41 60.83 172.28"/><polyline class="cls-8" points="138.42 171.97 147.92 164.41 155.8 172.28"/><polyline class="cls-8" points="122.74 172.02 131.71 164.41 139.59 172.28"/><polyline class="cls-8" points="107.62 172.28 115.96 164.41 123.83 172.28"/><polyline class="cls-8" points="91.07 172.12 100.21 164.41 108.73 172.07"/><polyline class="cls-8" points="76.12 172.28 84.46 164.41 92.33 172.28"/><polyline class="cls-8" points="59.71 172.12 68.71 164.41 77.12 171.97"/><path class="cls-6" d="M47.15,167.36a106.38,106.38,0,0,0-3.45-28.13c-12.13,7.87-22.25,21.55-19.59,47h21.6A120.12,120.12,0,0,0,47.15,167.36Z"/><path class="cls-6" d="M153.8,138.81a105.73,105.73,0,0,0-3.56,28.55,120.12,120.12,0,0,0,1.44,18.9h21.88C176.27,160.32,166,146.61,153.8,138.81Z"/><path class="cls-4" d="M74.24,66.66c-2.53-7.84-8.51-6-9.07-5.84s-6.77,1-5.7,9.15,5.84,12.67,10.31,11.36C74.37,80.6,76.78,74.54,74.24,66.66Z"/><path class="cls-4" d="M124.67,66.66c2.53-7.84,8.51-6,9.07-5.84s6.77,1,5.7,9.15-5.84,12.67-10.3,11.36C124.54,80.6,122.13,74.54,124.67,66.66Z"/><path class="cls-3" d="M68.11,54.78c3.13-34.35,29.25-32.43,31.71-32.17,2.46-.26,28.58-2.18,31.71,32.17,3.15,34.56-12.24,57.14-31.71,55.89C80.35,111.92,65,89.34,68.11,54.78Z"/><path class="cls-9" d="M66.85,30.65s-7.07,4.55-2,20.22l3,17.69,2.52.5s-1-26.78,7.58-32.85S66.85,30.65,66.85,30.65Z"/><path class="cls-10" d="M120.93,33.18s-33.86,19.71-52.05,4,1-23.75,8.59-22.74c0,0-2.53-8.59,7.58-9.6S93.13,14,108.29,14,131,15,129.52,27.62c0,0,7.58-4.55,10.11,4.05s-7.08,36.89-7.08,36.89l-1,4.55H129V48.85S119.41,51.88,120.93,33.18Z"/><path class="cls-9" d="M139.63,31.67c-2.53-8.6-10.11-4.05-10.11-4.05.87-7.27-1.28-10.69-6.14-12.28a47.51,47.51,0,0,1-7.57,20.46c3.18-1.49,5.12-2.62,5.12-2.62C119.41,51.88,129,48.85,129,48.85V73.11h2.52l1-4.55S142.15,40.26,139.63,31.67Z"/><path class="cls-4" d="M104.32,58.81a78.83,78.83,0,0,1,1.84,9.55c.21,1.6.43,3.2.57,4.81s.29,3.22.39,4.83l0,.43-.31.19c-1,.64-2.07,1.25-3.12,1.85s-2.12,1.18-3.23,1.7c.89-.84,1.82-1.62,2.75-2.4s1.89-1.51,2.85-2.24l-.28.62c-.26-1.6-.5-3.2-.69-4.8s-.35-3.21-.5-4.82A80.62,80.62,0,0,1,104.32,58.81Z"/><path class="cls-11" d="M113.14,88.34c-6.22,6-16.76,5.71-24.73.32"/><path class="cls-12" d="M124.45,56.27a41.7,41.7,0,0,0-4.18-2.15,13.23,13.23,0,0,0-4-1.11,8.52,8.52,0,0,0-4,.55,14.79,14.79,0,0,0-2,.87c-.69.35-1.33.8-2.13,1.15a11.71,11.71,0,0,1,1.29-2.17,8.9,8.9,0,0,1,1.92-1.74,6.36,6.36,0,0,1,1.16-.67c.42-.17.85-.32,1.29-.47a8.43,8.43,0,0,1,2.74-.21,9.36,9.36,0,0,1,4.89,2A9.71,9.71,0,0,1,124.45,56.27Z"/><path class="cls-12" d="M91.92,56.27a40.76,40.76,0,0,0-4.19-2.15,13.08,13.08,0,0,0-4-1.11,8.55,8.55,0,0,0-4,.55,14.19,14.19,0,0,0-2,.87c-.7.35-1.34.8-2.13,1.15a11.66,11.66,0,0,1,1.28-2.17,9.39,9.39,0,0,1,1.92-1.74A6.36,6.36,0,0,1,79.9,51c.42-.17.86-.32,1.29-.47a8.49,8.49,0,0,1,2.75-.21,9.43,9.43,0,0,1,4.89,2A9.79,9.79,0,0,1,91.92,56.27Z"/><path class="cls-13" d="M65.45,59.89l8.79,6.77,22.08.69s5.69-8,10.44,0h22.76l6.84-6.41"/><circle class="cls-14" cx="84.94" cy="67.35" r="11.38"/><circle class="cls-14" cx="118.14" cy="67.35" r="11.38"/><path class="cls-12" d="M90.88,68.72A10,10,0,0,0,89,64.81a4.5,4.5,0,0,0-3.54-1.63,5,5,0,0,0-2,.29,3.87,3.87,0,0,0-1.55,1.18,8.35,8.35,0,0,0-1.4,4.07,6.4,6.4,0,0,1,.63-4.59A4.46,4.46,0,0,1,83,62.43,6,6,0,0,1,85.46,62a5.08,5.08,0,0,1,4.24,2.26A7.35,7.35,0,0,1,90.88,68.72Z"/><path class="cls-12" d="M120.12,68.24a10.19,10.19,0,0,0-1.92-3.9,4.51,4.51,0,0,0-3.53-1.64,5.24,5.24,0,0,0-2,.3,3.76,3.76,0,0,0-1.54,1.18,8.21,8.21,0,0,0-1.4,4.06,6.37,6.37,0,0,1,.63-4.59A4.41,4.41,0,0,1,112.24,62a6,6,0,0,1,2.45-.45,5.08,5.08,0,0,1,4.25,2.26A7.31,7.31,0,0,1,120.12,68.24Z"/></g></g></g></svg>