<svg xmlns="http://www.w3.org/2000/svg" xmlns:xlink="http://www.w3.org/1999/xlink" viewBox="0 0 199.3 202.4"><defs><style>.cls-1{fill:#393;}.cls-2{clip-path:url(#clip-path);}.cls-3{fill:#fc6a5a;}.cls-4{fill:#d35450;}.cls-5{fill:#f19c7c;}.cls-6{fill:#c47d66;}.cls-7{fill:#352c38;}.cls-8{fill:#5d8584;}.cls-9{fill:#6f9b99;}.cls-10{fill:#a06653;}.cls-11{fill:#fff;}</style><clipPath id="clip-path"><circle class="cls-1" cx="99.65" cy="99.65" r="99.65" transform="translate(-41.28 99.65) rotate(-45)"/></clipPath></defs><g id="Layer_2" data-name="Layer 2"><g id="Layer_1-2" data-name="Layer 1"><circle class="cls-1" cx="99.65" cy="99.65" r="99.65" transform="translate(-41.28 99.65) rotate(-45)"/><g class="cls-2"><path class="cls-3" d="M139.41,36s2.7,19.21,10.79,32c11.66,18.47-3.37,20.9-.34,33.7s26.28,23.59-1.35,52.91c-18.08,19.18-39.76-18.2-39.76-18.2l-6.06-48.86Z"/><path class="cls-4" d="M130.49,67.27c-2.92-2.18-5.75-4.44-8.52-6.76l-19.28,23.9,6.06,43.14a70.71,70.71,0,0,0,13,14.29c2-2.19,6.63,8,9.26,7.07,8.76-3,24.6-19.88,13.14-32.69C130.45,100.93,146.83,83.54,130.49,67.27Z"/><path class="cls-5" d="M118,123.69c-8.19-4.47-6-26.06-6-26.06l-12.26.79v-.79l-1.31.4-1.31-.4v.79l-12.27-.79s2.24,21.59-6,26.06-56.58,6.7-51.37,56.57h141.8C174.55,130.39,126.16,128.15,118,123.69Z"/><path class="cls-6" d="M83.14,118.12q14.7-2.19,29.37-4.52a65.34,65.34,0,0,1-.5-16l-12.26.79v-.79l-1.31.4-1.31-.4v.79l-12.27-.79S86.15,110.17,83.14,118.12Z"/><path class="cls-7" d="M129.42,160.68a77.07,77.07,0,0,1,1-33.22c-2.07-.6-4-1.11-5.73-1.57-.78,9-1.83,18.16-5.23,26.28a43.52,43.52,0,0,1-4.7,8.51Z"/><path class="cls-8" d="M144.32,132.16c-8.1,11.08-25.45,18.74-45.56,18.74S61.3,143.24,53.2,132.16C38.79,139,24.59,152,27.54,180.26L87.17,202.4h27L170,180.26C172.93,152,158.73,139,144.32,132.16Z"/><path class="cls-9" d="M95.09,167.12c28.6,0,53.63-8.27,67.41-20.64-4.9-6.7-11.52-11.18-18.18-14.32-8.1,11.08-25.45,18.74-45.56,18.74S61.3,143.24,53.2,132.16c-7.87,3.71-15.67,9.29-20.66,18.18C46.92,160.54,69.58,167.12,95.09,167.12Z"/><path class="cls-6" d="M74.46,66c-2.41-7.49-8.13-5.76-8.66-5.58s-6.47.95-5.45,8.74S65.93,81.29,70.2,80C74.59,79.34,76.89,73.56,74.46,66Z"/><path class="cls-6" d="M122.64,66c2.41-7.49,8.12-5.76,8.66-5.58s6.46.95,5.44,8.74S131.17,81.29,126.9,80C122.51,79.34,120.21,73.56,122.64,66Z"/><path class="cls-5" d="M68.61,54.69c3-32.82,27.93-31,30.29-30.73,2.35-.25,27.3-2.09,30.29,30.73,3,33-11.7,54.57-30.29,53.38C80.3,109.26,65.6,87.7,68.61,54.69Z"/><path class="cls-3" d="M80.93,28.26S84,53.2,108.76,58l-6.11-15.29s2.09,18.5,26.71,17.54c0,0,9,4.18,5.79,13.84a19.81,19.81,0,0,0,5.47-20c-3.38-12.55,4.51-13.35-8-31.85C121.51,6,85.27,4.12,80.93,28.26Z"/><path class="cls-3" d="M87.84,23s-11.9-9.66-20.91,1.29-6.76,28-15.13,38.61-7.08,20,3.22,29.93-29,19.31-16.41,44.09,43.76,11.58,46-8.05,1-23.81,1-23.81S72.4,94.71,70.14,78.3s1.61-24.46,8.69-30.25S92.35,37.11,87.84,23Z"/><path class="cls-4" d="M44.4,125.28c-2.62-5.06-3-9-2.07-12.23-5.29,6.08-8.87,13.65-3.72,23.82,12.55,24.78,43.76,11.58,46-8.05.05-.43.09-.85.14-1.27C74.89,135.35,54.09,144,44.4,125.28Z"/><path class="cls-10" d="M103.2,71.09A21.61,21.61,0,0,1,105,75.78c.2.81.4,1.61.54,2.42s.28,1.63.37,2.46l0,.4-.22.2c-.67.61-1.36,1.2-2.06,1.78s-1.42,1.15-2.19,1.67c.49-.79,1-1.52,1.59-2.25s1.12-1.43,1.71-2.13l-.18.6c-.25-.79-.47-1.59-.65-2.39s-.34-1.62-.48-2.44A21.91,21.91,0,0,1,103.2,71.09Z"/><path class="cls-11" d="M111.62,90.6c-5.94,5.78-16,5.46-23.62.31"/><path class="cls-7" d="M122.42,60a44.47,44.47,0,0,0-4-2,12.64,12.64,0,0,0-3.83-1,8.16,8.16,0,0,0-3.78.5,14.62,14.62,0,0,0-2,.82c-.67.32-1.28.75-2,1.07A10.7,10.7,0,0,1,108,57.22a8.44,8.44,0,0,1,1.83-1.69,6.45,6.45,0,0,1,1.11-.65c.4-.16.82-.3,1.24-.45a8.09,8.09,0,0,1,2.64-.2,9,9,0,0,1,4.69,1.91A9.13,9.13,0,0,1,122.42,60Z"/><path class="cls-7" d="M91.35,60c-1.41-.77-2.72-1.47-4-2a12.79,12.79,0,0,0-3.83-1,8.18,8.18,0,0,0-3.79.5,14.51,14.51,0,0,0-1.95.82c-.67.32-1.29.75-2.06,1.07a10.7,10.7,0,0,1,1.21-2.09,8.44,8.44,0,0,1,1.83-1.69,6.45,6.45,0,0,1,1.11-.65c.41-.16.82-.3,1.24-.45a8.09,8.09,0,0,1,2.64-.2,8.93,8.93,0,0,1,4.69,1.91A9.24,9.24,0,0,1,91.35,60Z"/><path class="cls-7" d="M90.36,71.86a9.78,9.78,0,0,0-1.85-3.72,4.32,4.32,0,0,0-3.36-1.55,5,5,0,0,0-1.87.28A3.64,3.64,0,0,0,81.81,68a7.87,7.87,0,0,0-1.36,3.87,6.1,6.1,0,0,1,.59-4.4,4.28,4.28,0,0,1,1.79-1.63,5.66,5.66,0,0,1,2.35-.43,4.87,4.87,0,0,1,4.07,2.17A6.93,6.93,0,0,1,90.36,71.86Z"/><path class="cls-7" d="M118.29,71.41a9.78,9.78,0,0,0-1.85-3.72,4.33,4.33,0,0,0-3.36-1.55,4.91,4.91,0,0,0-1.88.28,3.61,3.61,0,0,0-1.46,1.12,7.87,7.87,0,0,0-1.36,3.87A6.1,6.1,0,0,1,109,67a4.34,4.34,0,0,1,1.79-1.63A5.69,5.69,0,0,1,113.1,65a4.9,4.9,0,0,1,4.08,2.17A7,7,0,0,1,118.29,71.41Z"/></g></g></g></svg>