<svg xmlns="http://www.w3.org/2000/svg" xmlns:xlink="http://www.w3.org/1999/xlink" viewBox="0 0 200 200"><defs><style>.cls-1{fill:#00656a;}.cls-2{clip-path:url(#clip-path);}.cls-3{fill:#ffac9d;}.cls-4{fill:#cc887f;}.cls-5{fill:#ffe555;}.cls-6{fill:#ffb92a;}.cls-7{fill:#352c38;}.cls-8{fill:#fff;}.cls-9{fill:#76413b;}.cls-10{fill:#965450;}</style><clipPath id="clip-path"><circle class="cls-1" cx="100" cy="100" r="99.99" transform="translate(-41.42 100) rotate(-45)"/></clipPath></defs><g id="Layer_2" data-name="Layer 2"><g id="Layer_1-2" data-name="Layer 1"><circle class="cls-1" cx="100" cy="100" r="99.99" transform="translate(-41.42 100) rotate(-45)"/><g class="cls-2"><path class="cls-3" d="M120.79,126.64c-8.61-4.69-6.26-27.38-6.26-27.38l-12.89.83v-.83l-1.38.42-1.38-.42v.83L86,99.26s2.34,22.69-6.26,27.38-61.48,7-56,59.45H176.79C182.26,133.68,129.39,131.33,120.79,126.64Z"/><path class="cls-4" d="M84.19,120.79q15.44-2.31,30.86-4.75a68.52,68.52,0,0,1-.52-16.78l-12.89.83v-.83l-1.38.42-1.38-.42v.83L86,99.26S87.36,112.44,84.19,120.79Z"/><path class="cls-5" d="M138.29,130.68c-7.54,6.82-18.65,11.55-31.34,12.77l-6.83,24.61L96.5,143.65c-13.75-.8-25.86-5.69-33.89-13-17.87,5.72-44,18.13-40.08,55.41l62.41,12.78,29.49.92,63.93-13.7C182.26,148.81,156.15,136.4,138.29,130.68Z"/><path class="cls-6" d="M97.43,149.91l-.93-6.26c-13.75-.8-25.86-5.69-33.89-13a89,89,0,0,0-9.48,3.59C59.46,142.88,76.71,149.22,97.43,149.91Z"/><path class="cls-6" d="M148.82,134.75a88.46,88.46,0,0,0-10.53-4.07c-7.54,6.82-18.65,11.55-31.34,12.77l-1.79,6.45C125.36,149.18,142.23,143.08,148.82,134.75Z"/><circle class="cls-6" cx="101.41" cy="174" r="2.84"/><path class="cls-4" d="M75.07,66.05c-2.54-7.86-8.54-6-9.1-5.85s-6.8,1-5.72,9.18,5.86,12.71,10.34,11.4C75.21,80.05,77.62,74,75.07,66.05Z"/><path class="cls-4" d="M125.69,66.05c2.53-7.86,8.54-6,9.1-5.85s6.79,1,5.72,9.18-5.86,12.71-10.34,11.4C125.55,80.05,123.14,74,125.69,66.05Z"/><path class="cls-3" d="M68.92,54.14c3.14-34.48,29.35-32.55,31.83-32.29,2.47-.26,28.68-2.19,31.82,32.29,3.16,34.68-12.29,57.34-31.82,56.09C81.21,111.48,65.76,88.82,68.92,54.14Z"/><path class="cls-4" d="M105.27,58.18a81.29,81.29,0,0,1,1.84,9.58c.21,1.61.42,3.22.57,4.83s.29,3.23.39,4.85l0,.43-.31.19c-1,.64-2.08,1.25-3.13,1.85s-2.13,1.19-3.24,1.71c.89-.84,1.83-1.62,2.76-2.4S106.06,77.7,107,77l-.29.63c-.26-1.61-.49-3.21-.68-4.82s-.35-3.22-.5-4.84A79.1,79.1,0,0,1,105.27,58.18Z"/><path class="cls-7" d="M125.47,55.62a44.14,44.14,0,0,0-4.2-2.15,13,13,0,0,0-4-1.12,8.69,8.69,0,0,0-4,.55,14.56,14.56,0,0,0-2.06.89c-.69.34-1.34.8-2.14,1.15a12.8,12.8,0,0,1,1.3-2.18A9.14,9.14,0,0,1,112.24,51a7.59,7.59,0,0,1,1.17-.68c.42-.17.86-.32,1.29-.47a8.84,8.84,0,0,1,2.76-.21,9.48,9.48,0,0,1,4.9,2A9.85,9.85,0,0,1,125.47,55.62Z"/><path class="cls-7" d="M92.81,55.62a42.86,42.86,0,0,0-4.19-2.15,13.1,13.1,0,0,0-4.05-1.12,8.75,8.75,0,0,0-4,.55,15,15,0,0,0-2,.89c-.7.34-1.34.8-2.14,1.15a12.74,12.74,0,0,1,1.29-2.18A9.19,9.19,0,0,1,79.59,51a7.14,7.14,0,0,1,1.17-.68c.42-.17.85-.32,1.29-.47a8.84,8.84,0,0,1,2.76-.21,9.55,9.55,0,0,1,4.9,2A9.83,9.83,0,0,1,92.81,55.62Z"/><path class="cls-7" d="M91.78,68.12a10.08,10.08,0,0,0-1.93-3.92,4.52,4.52,0,0,0-3.55-1.64,5,5,0,0,0-2,.3A3.79,3.79,0,0,0,82.77,64a8.3,8.3,0,0,0-1.41,4.08,6.44,6.44,0,0,1,.64-4.6,4.4,4.4,0,0,1,1.87-1.7,5.88,5.88,0,0,1,2.46-.46,5.15,5.15,0,0,1,4.26,2.27A7.46,7.46,0,0,1,91.78,68.12Z"/><path class="cls-7" d="M121.12,67.65a10.32,10.32,0,0,0-1.92-3.93,4.56,4.56,0,0,0-3.55-1.64,5.18,5.18,0,0,0-2,.3,3.93,3.93,0,0,0-1.56,1.19,8.35,8.35,0,0,0-1.4,4.08,6.46,6.46,0,0,1,.63-4.61,4.53,4.53,0,0,1,1.87-1.7,6.06,6.06,0,0,1,2.46-.45,5.09,5.09,0,0,1,4.26,2.27A7.31,7.31,0,0,1,121.12,67.65Z"/><path class="cls-8" d="M114.11,87.82c-6.24,6.06-16.81,5.73-24.82.32"/><path class="cls-9" d="M101.21,26.88s-18.93-3.38-22,8.45,1.36,27.73-12.51,25.36c0,0-10,2-3.63,17.92,0,0-19-18.26-7.86-31.44C64.33,36.41,60.64,13,83,9.29S101.21,22.48,101.21,26.88Z"/><path class="cls-10" d="M101.21,26.88s-18.93-3.38-22,8.45,1.36,27.73-12.51,25.36c0,0-10,2-3.63,17.92,0,0-19-18.26-7.86-31.44C64.33,36.41,60.64,13,83,9.29S101.21,22.48,101.21,26.88Z"/><path class="cls-10" d="M99.49,26.88s18.93-3.38,22,8.45S120.11,63.06,134,60.69c0,0,10.05,2,3.63,17.92,0,0,19-18.26,7.87-31.44C136.37,36.41,140.07,13,117.75,9.29S99.49,22.48,99.49,26.88Z"/><path class="cls-10" d="M99.17,24.1a42.46,42.46,0,0,1,7.67.59A27.94,27.94,0,0,1,114.25,27a14.41,14.41,0,0,1,6.14,5.12,11.61,11.61,0,0,1,1.53,3.82,26,26,0,0,1,.44,3.84c.31,5.07-.39,10-.09,14.84.18,2.36.65,4.81,2.27,6.4s4.2,1.94,6.59,1.81h.06a9.59,9.59,0,0,1,2.19.6,7.48,7.48,0,0,1,2,1.1,4.94,4.94,0,0,1,1.4,1.75,4.67,4.67,0,0,1,.39,2.17,4.7,4.7,0,0,0-.54-2.09,4.61,4.61,0,0,0-1.46-1.55,8.6,8.6,0,0,0-4-1.3h.05a13.91,13.91,0,0,1-3.81,0,7.24,7.24,0,0,1-3.6-1.6,7.82,7.82,0,0,1-2.19-3.32,17.29,17.29,0,0,1-.83-3.78c-.54-5-.11-10-.54-14.82a25.39,25.39,0,0,0-.52-3.5,9.26,9.26,0,0,0-1.31-3,12.55,12.55,0,0,0-5.22-4.11,27.59,27.59,0,0,0-6.77-1.94,39.73,39.73,0,0,0-7.11-.53Z"/></g></g></g></svg>